<svg xmlns="http://www.w3.org/2000/svg" viewBox="0 0 128 128">
<path fill="none" stroke="#303D7A" stroke-width="9" stroke-linecap="round" stroke-linejoin="round" d="M60.527,5.296
	c-11.86,4.09-5.778,16.937,2.668,20.265"/>
<path fill="none" stroke="#303D7A" stroke-width="9" stroke-linecap="round" stroke-linejoin="round" d="M76.773,87.183
	c-0.309,6.581,2.934,12.822,8.495,16.354c5.562,3.531,12.589,3.811,18.414,0.733c5.825-3.079,9.552-9.042,9.768-15.626
	c0.215-6.584-3.115-12.779-8.726-16.231"/>
<path fill="none" stroke="#303D7A" stroke-width="9" stroke-linecap="round" stroke-linejoin="round" d="M73.703,123.305
	c4.675-33.995,3.684-57.445-0.218-73.885"/>
<path fill="none" stroke="#303D7A" stroke-width="9" stroke-linecap="round" stroke-linejoin="round" d="M17.664,123.305
	C5.922,37.93,29.925,19.061,45.985,10.718C62.045,2.375,70.164,4.56,76.778,6.39c6.615,1.83,11.727,3.307,15.215,7.276
	c3.489,3.97,5.354,10.432,8.114,14.375c2.76,3.943,6.414,5.365,6.996,9.213s-1.908,10.121-5.387,12.981
	c-3.48,2.861-7.95,2.31-17.502,0.484c-9.552-1.827-24.188-4.929-38,16.5"/>
</svg>
