<svg xmlns="http://www.w3.org/2000/svg" viewBox="151.059 151.059 128 128">
<g>
	<path fill="#00A0DC" d="M269.606,151.059H160.517c-5.224,0-9.458,4.105-9.458,9.171v109.654
		c0,5.066,4.236,9.175,9.458,9.175h109.089c5.222,0,9.452-4.111,9.452-9.175V160.23
		C279.059,155.165,274.828,151.059,269.606,151.059z M189.865,258.205h-19.34v-57.791h19.34V258.205z M180.196,192.518h-0.129
		c-6.485,0-10.689-4.435-10.689-9.988c0-5.664,4.327-9.979,10.941-9.979s10.684,4.313,10.812,9.979
		C191.131,188.084,186.935,192.518,180.196,192.518z M259.578,258.205h-19.333v-30.921c0-7.769-2.802-13.07-9.793-13.07
		c-5.349,0-8.523,3.576-9.917,7.029c-0.517,1.232-0.646,2.958-0.646,4.68v32.28h-19.33c0,0,0.253-52.37,0-57.79h19.334v8.193
		c2.566-3.937,7.152-9.553,17.419-9.553c12.726,0,22.266,8.255,22.266,26.013V258.205L259.578,258.205z M219.769,208.789
		c0.031-0.054,0.077-0.119,0.125-0.183v0.183H219.769z"/>
</g>
</svg>
