<svg xmlns="http://www.w3.org/2000/svg" viewBox="0 0 128 128">
	<rect fill="#ED3DA4" width="128" height="128"/>
	<path fill="#F7F5F2" d="M83.18,57.173c-1.812-3.245-5.77-5.764-11.287-5.764c-9.643,0-18.05,8.729-17.968,23.406
		c0,13.497,7.585,22.413,17.141,22.413c5.851,0,10.71-3.057,13.104-7.922c0.053,0,0.105,0,0.168,0
		c0.135,2.308,0.27,4.62,0.409,6.927c3.019,0,6.042,0,9.064,0c-0.172-2.966-0.332-7.83-0.332-12.329c0-17.189,0-34.388,0-51.577
		c-3.378,0-6.757,0-10.137,0c0,8.282,0,16.564,0,24.846C83.29,57.173,83.232,57.173,83.18,57.173z"/>
	<rect x="34.188" y="35.561" fill="#F7F5F2" width="11.076" height="60.671"/>
	<path fill="#ED3DA4" d="M83.096,67.791c-0.908-4.317-4.118-7.83-8.732-7.83c-6.513,0-10.137,6.301-10.137,14.492
		c0,8.012,3.625,13.858,10.049,13.858c4.122,0,7.749-3.058,8.74-7.83c0.24-0.99,0.326-2.067,0.326-3.24c0-2.192,0-4.379,0-6.566
		C83.342,69.771,83.256,68.689,83.096,67.791z"/>
</svg>
