<svg xmlns="http://www.w3.org/2000/svg" viewBox="0 0 128 128">
<path fill="#6D6D6D" d="M69.395,55.262c-6.207,4.084-11.257,7.067-14.354,8.677c-3.109,1.604-4.266,1.835-5.273,2.553
	c-1.015,0.727-1.881,1.937-2.207,3.021c-0.318,1.08-0.104,2.039,0.307,2.751c0.411,0.711,1.025,1.189,1.458,1.528
	c0.433,0.328,0.707,0.521,1.332,0.591c0.635,0.059,1.632,0.005,2.791,0.05c1.163,0.035,2.482,0.161,4.01,0.762
	c1.522,0.592,3.258,1.646,4.796,2.65c1.544,1.004,2.888,1.952,3.805,2.421c0.928,0.465,1.428,0.445,2.219,0.092
	c0.793-0.354,1.863-1.035,2.938-1.489c1.075-0.459,2.14-0.702,3.265-0.742c1.131-0.04,2.311,0.112,4.058,0.581
	c1.75,0.47,4.064,1.246,6.311,2.673c2.246,1.429,4.416,3.502,6.166,5.557c1.746,2.068,3.067,4.117,3.725,5.896
	c0.66,1.783,0.66,3.307,0.692,5.537c1.352-1.822,3.515-4.244,5.583-6.343c2.069-2.089,4.048-3.844,6.702-6.05
	c2.653-2.2,5.979-4.85,8.708-7.608c2.726-2.771,4.854-5.667,6.63-8.336c1.771-2.668,3.193-5.11,3.998-6.741
	c0.796-1.634,0.983-2.457,0.796-2.86c-0.177-0.399-0.727-0.394-3.381,1.523c-2.645,1.897-7.396,5.706-10.731,8.265
	c-3.336,2.554-5.254,3.86-7.621,5.297c-2.358,1.435-5.171,2.992-7.425,4.033c-2.26,1.049-3.966,1.583-5.263,1.825
	c-1.288,0.244-2.166,0.187-3.002-0.069c-0.845-0.257-1.646-0.712-2.191-1.141c-0.54-0.424-0.801-0.821-0.575-1.322
	c0.227-0.494,0.953-1.095,2.004-2.023c1.056-0.928,2.433-2.195,3.341-3.593c0.919-1.387,1.342-2.916,1.533-3.885
	c0.197-0.979,0.142-1.402-0.181-1.55c-0.329-0.136-0.918,0-2.271,0.511c-1.361,0.515-3.492,1.393-5.43,1.847
	c-1.946,0.459-3.703,0.489-5.187,0.317c-1.483-0.162-2.679-0.523-3.981-1.422C76.185,68.146,74.779,66.723,69.395,55.262z"/>
<path fill="#6D6D6D" d="M48.667,73.555c1.66,3.426,1.817,5.187,1.637,7.049c-0.179,1.856-0.694,3.808-1.029,5.277
	c-0.332,1.474-0.47,2.467-0.321,3.256c0.151,0.792,0.586,1.377,2.121,2.478c1.528,1.096,4.162,2.708,7.053,4.448
	c2.902,1.736,6.076,3.61,8.673,5.399c2.594,1.797,4.617,3.518,6.803,5.425c2.179,1.917,4.521,4.025,6.084,5.287
	c1.559,1.257,2.342,1.666,2.91,1.514c0.565-0.156,0.919-0.868,0.835-1.812c-0.082-0.938-0.596-2.114-1.983-3.658
	c-1.387-1.548-3.639-3.48-5.239-4.903c-1.593-1.424-2.526-2.34-3.065-2.928c-0.526-0.585-0.656-0.836-0.571-0.974
	c0.087-0.125,0.389-0.137,1.11,0.27c0.717,0.413,1.856,1.225,3.027,2.093c1.17,0.868,2.367,1.786,3.855,3.122
	c1.482,1.337,3.248,3.104,6.079,6.948c2.352-0.807,3.638-1.952,4.812-3.329c1.177-1.378,2.246-2.986,2.873-4.597
	c0.625-1.609,0.796-3.229,0.801-4.688c0.01-1.447-0.156-2.729-0.695-4.354c-0.546-1.634-1.479-3.611-2.812-5.429
	c-1.337-1.825-3.072-3.48-4.899-4.844c-1.835-1.367-3.753-2.441-5.529-3.144c-1.776-0.701-3.405-1.02-5.268-0.867
	c-1.866,0.146-3.966,0.772-5.453,2.255c-1.5,1.479-2.388,3.814-2.998,5.44c-0.596,1.624-0.898,2.516-1.589,3.3
	c-0.691,0.771-1.762,1.417-2.67,1.649c-0.909,0.237-1.643,0.061-2.855-0.45c-1.205-0.505-2.886-1.337-4.438-2.18
	c-1.557-0.842-2.987-1.681-3.755-2.266c-0.765-0.585-0.877-0.907-0.8-1.811c0.075-0.907,0.325-2.396,0.545-3.91
	c0.218-1.509,0.41-3.042,0.143-4.411C51.797,76.854,51.086,75.649,48.667,73.555z"/>
<path fill="#6D6D6D" d="M58.627,76.532c1.048,0.494,2.594,1.333,3.854,2.175c1.257,0.833,2.231,1.655,2.811,2.3
	c0.569,0.652,0.762,1.13,0.747,1.631c-0.01,0.489-0.222,1.003-0.459,1.424c-0.241,0.422-0.52,0.741-0.893,0.921
	c-0.374,0.193-0.837,0.249-1.555-0.105c-0.727-0.348-1.69-1.114-2.75-1.922c-1.064-0.818-2.226-1.675-3.126-2.26
	c-0.903-0.586-1.547-0.903-1.898-1.358c-0.342-0.458-0.396-1.059-0.162-1.684c0.242-0.627,0.763-1.267,1.302-1.521
	C57.03,75.886,57.581,76.038,58.627,76.532z"/>
<path fill="#6D6D6D" d="M16.269,25.73c2.97,3.693,8.585,12.48,3.751,29.294c-3.917-1.306-8.912-2.199-15.575-2.199
	c-3.166,2.334-3.989,5.113-4.267,7.334c-0.277,2.225-0.018,3.895,0.417,5.097c0.446,1.2,1.059,1.927,2.008,2.104
	c0.948,0.176,2.223-0.197,3.845-0.556c1.62-0.348,3.577-0.682,6.029-0.687c2.455-0.021,5.402,0.294,8.267,1.171
	c2.864,0.883,5.636,2.337,7.796,3.8c2.154,1.467,3.694,2.941,6.421,5.857c2.714,2.917,6.61,7.275,10.246,16.453
	c0.855-4.944,0.352-9.515-0.73-13.476c-1.082-3.973-2.744-7.341-4.984-10.47c-0.197-0.279-0.398-0.55-0.602-0.817
	c6.228-1.757,11.458-4.318,16.038-6.747c4.588-2.426,8.506-4.707,10.642-6.368c2.129-1.66,2.463-2.696,2.246-4.746
	c-0.223-2.048-0.99-5.098-2.913-9.452c-1.922-4.339-4.989-9.978-15.259-18.134c0.267,13.625-4.799,27.175-15.202,40.657
	c-1.346-1.21-2.903-2.457-4.757-3.769c-0.22-0.162-0.438-0.318-0.671-0.474c7.555-10.894,9.552-17.216,10.647-21.702
	c1.092-4.49,1.283-7.147,1.19-9.699c-0.084-2.563-0.461-5.025-1.098-6.641c-0.643-1.606-1.557-2.379-3.994-2.684
	C33.333,18.575,29.367,18.739,16.269,25.73z"/>
</svg>
