<svg xmlns="http://www.w3.org/2000/svg" width="154.77" height="316.07" viewBox="0 0 154.773 316.067">
  <g id="outline">
    <g>
      <path fill="#A5A5A5" d="M51.4 6H103.3c1 0 1.96 0 2.93.26 1.1.3 2.04.75 2.93 1.46 1.66 1.32 2.7 3.27 2.74 5.4.05 2.15-.87 4.13-2.46 5.52-1.82 1.6-3.68 1.96-5.98 1.96v3.77c0 3.9.76 7.4 2.38 10.97 1.8 3.95 3.73 5.96 6.4 9.22l14.33 17.46c2.4 2.9 4.78 5.82 7.16 8.73 2.38 2.9 4.8 5.73 6.8 8.9 4.07 6.44 6.7 13.66 7.75 21.2.5 3.73.5 7.45.5 11.2v169.5c0 4.1-.1 6.75-1.5 10.7-1.32 3.83-3.27 6.97-6.12 9.86-2.85 2.9-5.96 4.92-9.78 6.32-3.84 1.42-6.65 1.63-10.68 1.63H36.56c-2.48 0-5.08 0-6.04-.08-7.77-.6-14.87-4.57-19.44-10.88-2.33-3.22-3.77-6.55-4.54-10.43-.73-3.65-.5-7.26-.5-10.9V187.4v-45.22-22.6-11.3c0-3.8.35-7.48 1.13-11.18 1.57-7.43 4.7-14.43 9.22-20.54 1.1-1.52 13.03-16 14.23-17.46l14.33-17.45c2.45-3 4.24-6.12 5.33-9.88 1.22-4.25 1.04-6.86 1.04-11.17h-.72c-4.4 0-8.25-3.63-7.66-8.18.27-2.15 1.53-4 3.33-5.16C48.1 6.1 49.55 6 51.4 6m0-6c-2.48 0-5.17.17-8.34 2.2C39.7 4.36 37.5 7.8 37 11.65c-.48 3.76.64 7.4 3.15 10.25 1.42 1.62 3.2 2.86 5.15 3.66-.07 1.48-.28 2.82-.78 4.54-.8 2.8-2.1 5.2-4.2 7.74l-1.02 1.23L26 55.3l-.8.96C16.52 66.82 12.3 71.98 11.56 73 6.5 79.85 3.06 87.54 1.3 95.86c-.85 4.06-1.27 8.12-1.27 12.4V279.76c-.05 3.2-.1 6.5.62 10.08.93 4.7 2.76 8.9 5.57 12.78 5.6 7.75 14.3 12.62 23.84 13.36.66.05 2 .1 6.5.1h84.14c4.75 0 8.2-.33 12.75-2 4.62-1.7 8.54-4.23 12-7.74 3.43-3.5 5.9-7.46 7.5-12.1 1.7-4.82 1.82-8.3 1.82-12.68V111.66c0-3.74 0-7.62-.55-11.63-1.16-8.44-4.06-16.37-8.6-23.57-2.02-3.16-4.3-5.93-6.5-8.6l-.75-.9-3.05-3.73-4.1-5-12.9-15.72-1.44-1.74-1.15-1.4c-2.02-2.4-3.23-3.87-4.43-6.5-1.1-2.42-1.67-4.7-1.8-7.28 1.3-.52 2.6-1.3 3.9-2.43 2.95-2.6 4.6-6.3 4.5-10.16-.1-3.88-1.92-7.5-5-9.97-1.54-1.23-3.23-2.07-5.16-2.57C106 0 104.44 0 103.3 0H51.4z"/>
    </g>
  </g>
  <g id="bottle">
    <path fill="#EEE" d="M103.47 24.37V20.6H51.34v3.77c0 6.14-2.13 12.1-6.03 16.84-9.06 11.07-18.14 22.13-27.22 33.2-7.8 9.48-12.05 21.38-12.05 33.66V283.5c0 14.67 11.88 26.55 26.54 26.55h89.66c14.66 0 26.54-11.88 26.54-26.54V108.07c0-12.28-4.26-24.18-12.05-33.67L109.5 41.2c-3.9-4.74-6.03-10.7-6.03-16.83z"/>
  </g>
  <g id="milk">
    <path fill="#FFF" d="M133.86 77.17c3.8 4.7 6.52 9.68 8.43 15.42 2.06 6.23 2.5 11.02 2.5 17.52v168.91c0 6.2.2 10.3-3.18 16-2.94 4.97-7.67 8.6-13.2 10.18-3.03.87-4.98.87-8.08.87H42.12c-3.3 0-6.57.05-9.86 0-11.9-.16-21.6-9.52-22.22-21.4-.12-2.26-.03-6.63-.03-8.9v-9.24-18.5-36.98-73.65-19.1c0-5.6-.26-12.72.68-18.32 1-6 2.94-11.38 6-16.64 1.5-2.57 3.24-4.92 5.12-7.2l6.06-7.4c3.92-4.77 9.4-8.03 15.46-9.2 6.77-1.32 13.2-1.33 19.98-.05 3.3.62 6.48 1.64 9.65 2.72 3.17 1.1 6.34 2.17 9.5 3.25 3.18 1.1 6.34 2.17 9.5 3.25 3.18 1.08 6.32 2.22 9.6 2.97 6.72 1.53 13.15 1.76 19.96.7 4.68-.72 9.4 1.1 12.36 4.77z"/>
  </g>
  <g id="shade">
    <path opacity=".35" fill="#D3D3D3" d="M103.66 310.05c13.94 0 25.5-10.78 26.47-24.68.12-1.7.07-8.13.07-9.82v-10-20-79.63-39.82-9.94c0-3.3.08-6.6-.03-9.92-.24-6.84-1.65-13.07-4.38-19.35-3.13-7.18-6.08-10.6-10.95-16.53l-12.64-15.4-6.3-7.7c-.9-1.08-5.43-6.56-6.24-7.72-1.96-2.8-3.27-5.74-4.06-9.08-.88-3.72-.7-6.13-.7-9.87H103.4c.18 0 .06.17.06.28v3.5c0 3.57.65 6.84 2.03 10.15 1.55 3.78 3.1 5.6 5.64 8.68l13.2 16.12c2.22 2.68 4.42 5.36 6.62 8.04 2.2 2.68 4.44 5.3 6.57 8.04 4.42 5.66 7.42 11.6 9.33 18.53 2.18 7.9 1.9 12.63 1.9 20.64v166.77c0 3.82 0 6.17-1.14 9.9-1.08 3.54-2.7 6.55-5.1 9.38-4.6 5.45-11.17 8.82-18.28 9.36-1.73.13-18.86.07-20.58.07z"/>
  </g>
  <g id="cap">
    <g>
      <path fill="#FFF" d="M50.62 22.6c-5.36 0-9.72-4.17-9.72-9.3S45.26 4 50.62 4h53.57c5.34 0 9.7 4.17 9.7 9.3s-4.35 9.3-9.7 9.3H50.6z"/>
      <path fill="#A5A5A5" d="M104.2 6c4.05 0 7.7 3.08 7.7 7.3s-3.65 7.3-7.7 7.3H50.6c-4.07 0-7.72-3.08-7.72-7.3S46.55 6 50.62 6h53.57m0-4H50.6C44.16 2 38.9 7.07 38.9 13.3s5.26 11.3 11.72 11.3h53.57c6.45 0 11.7-5.07 11.7-11.3S110.65 2 104.2 2z"/>
    </g>
  </g>
  <g id="cap-shade">
    <path opacity=".35" fill="#D3D3D3" d="M94.6 6c4.07 0 7.72 3.08 7.72 7.3s-3.65 7.3-7.72 7.3h5.35c.8 0 4.52.03 5.34-.08 3.62-.5 6.6-3.43 6.6-7.22 0-3.8-2.98-6.73-6.62-7.23-.8-.1-4.52-.07-5.33-.07H94.6z"/>
  </g>
  <g id="reflect">
    <path fill="#F2F2F2" d="M29.23 85.98c.63-.85.48-2.05-.34-2.72-.9-.72-2.2-.56-2.87.35-5.23 7.1-8.06 15.66-8.06 24.46v15.08c0 1.1.9 2 2 2s1.98-.9 1.98-2v-15.08c0-7.95 2.55-15.7 7.28-22.08z"/>
  </g>
</svg>
