<svg xmlns="http://www.w3.org/2000/svg" width="407.34" height="844.92" viewBox="0 0 407.337 844.92">
  <g id="outline">
    <g>
      <path fill="#A5A5A5" d="M133.16 10H273.96c2.68 0 5.3.03 7.95.7 3 .8 5.53 2.04 7.94 3.96 4.5 3.6 7.3 8.88 7.45 14.7.14 5.78-2.37 11.16-6.67 14.95-4.93 4.35-9.98 5.3-16.2 5.3v10.24c0 10.6 2.04 20.1 6.43 29.77 4.86 10.7 10.1 16.17 17.38 25.03 12.95 15.78 25.9 31.57 38.87 47.35l19.44 23.68c6.44 7.85 12.98 15.55 18.45 24.18 11.03 17.43 18.2 37.02 21 57.45 1.4 10.13 1.34 20.24 1.34 30.4v459.86c0 11.1-.28 18.32-4.02 29.03-3.62 10.38-8.9 18.9-16.63 26.75-7.74 7.87-16.18 13.32-26.54 17.12-10.42 3.83-18.05 4.42-28.98 4.42H106.65l-13.7.02c-6.74 0-13.8-.05-16.42-.25-21.1-1.63-40.34-12.4-52.75-29.53-6.3-8.7-10.24-17.72-12.33-28.27-1.95-9.9-1.37-19.67-1.37-29.56V502.14 379.45 318.1v-30.65c0-10.26 1-20.25 3.1-30.3 4.26-20.14 12.78-39.14 25-55.7 3.05-4.15 35.38-43.43 38.64-47.4l38.86-47.34c6.67-8.12 11.5-16.6 14.46-26.78 3.35-11.52 2.86-18.6 2.86-30.3h-1.96c-11.96 0-22.36-9.86-20.78-22.2.75-5.83 4.15-10.87 9.05-14 4.97-3.2 8.87-3.42 13.86-3.42m0-10c-6.03 0-12.05.38-19.25 5-7.5 4.8-12.45 12.5-13.55 21.14-1.08 8.37 1.42 16.5 7.02 22.86 4.15 4.7 9.62 8.02 15.65 9.6-.04 6.47-.42 11.45-2.48 18.53-2.42 8.34-6.42 15.72-12.6 23.23l-19.42 23.68L69.1 147.7l-2 2.44c-23.26 28.28-35 42.7-36.97 45.36-13.16 17.85-22.15 37.9-26.73 59.6C1.17 265.66.08 276.25.08 287.44v459.88c0 1.8-.02 3.62-.04 5.43-.1 8.36-.2 17 1.6 26.06 2.4 12.04 6.85 22.27 14.04 32.2 14.15 19.52 36.04 31.78 60.08 33.64 1.55.12 5.02.28 17.2.28 3.6 0 7.13 0 9.83-.02l3.85-.02H321.18c12.16 0 20.92-.8 32.43-5.02 11.8-4.34 21.4-10.53 30.22-19.5 8.8-8.95 14.82-18.63 18.95-30.48 4.25-12.2 4.57-20.72 4.57-32.34V296.65c0-9.96 0-20.25-1.44-30.7-3.02-22-10.58-42.68-22.46-61.45-5.22-8.26-11.28-15.6-17.14-22.72l-2.03-2.47-19.44-23.67-38.86-47.35c-1.08-1.3-2.1-2.55-3.1-3.74-5.6-6.72-9.32-11.16-12.9-19.07-3.8-8.33-5.55-16.48-5.55-25.63v-1.27c4.2-1.03 8.55-3 12.82-6.76 6.6-5.8 10.27-14.06 10.06-22.68-.2-8.65-4.3-16.77-11.2-22.28-3.5-2.77-7.3-4.67-11.66-5.8C280.48 0 276.87 0 273.97 0H133.17z"/>
    </g>
  </g>
  <g id="bottle">
    <path fill="#EEE" d="M274.42 59.84V49.6H133v10.24c0 16.66-5.78 32.8-16.35 45.68l-73.87 90c-21.14 25.76-32.7 58.05-32.7 91.37v476c0 39.75 32.24 72 72 72h243.26c39.76 0 72-32.25 72-72v-476c0-33.33-11.56-65.62-32.7-91.37l-73.88-90c-10.56-12.9-16.34-29.03-16.34-45.7z"/>
  </g>
  <g id="milk">
    <path fill="#FFF" d="M356.87 203.1c10.32 12.74 17.7 26.25 22.88 41.8 5.62 16.94 6.8 29.95 6.8 47.58v458.24c0 16.8.58 27.98-8.6 43.44-8 13.43-20.8 23.3-35.84 27.58-8.2 2.34-13.5 2.34-21.9 2.34H107.98c-8.9 0-17.82.12-26.73 0-32.25-.44-58.62-25.83-60.3-58.04-.3-6.15-.07-18.02-.07-24.16V716.8v-50.18-100.34-199.8-51.8c0-15.18-.72-34.52 1.82-49.73 2.72-16.3 8-30.87 16.3-45.14 4.06-6.95 8.77-13.34 13.86-19.54l16.44-20.02c10.64-12.97 25.5-21.82 41.96-25 18.36-3.56 35.82-3.6 54.2-.12 8.98 1.7 17.57 4.48 26.18 7.42l25.8 8.8c8.6 2.95 17.18 5.9 25.78 8.82 8.6 2.94 17.1 6.03 26 8.06 18.23 4.18 35.68 4.8 54.17 1.94 12.65-1.96 25.4 2.97 33.47 12.93z"/>
  </g>
  <g id="shade">
    <path opacity=".35" fill="#D3D3D3" d="M274.94 834.9c37.82 0 69.18-29.26 71.82-67 .32-4.6.18-22.03.18-26.62v-27.12-54.23-216.06-108.03-26.98c0-8.97.22-17.93-.1-26.9-.62-18.56-4.45-35.48-11.85-52.5-8.47-19.45-16.5-28.73-29.7-44.8l-34.28-41.8c-5.72-6.95-11.43-13.9-17.14-20.87-2.4-2.95-14.73-17.83-16.9-20.96-5.34-7.64-8.9-15.58-11.03-24.64-2.4-10.1-1.93-16.63-1.93-26.8h50.2c.5 0 .2.5.2.77v9.47c0 9.73 1.75 18.6 5.48 27.58 4.25 10.23 8.45 15.16 15.33 23.55l35.86 43.7 17.9 21.8c5.97 7.27 12.07 14.4 17.85 21.82 11.98 15.34 20.1 31.5 25.3 50.26 5.9 21.42 5.2 34.27 5.2 56V756.96c0 10.4-.05 16.75-3.13 26.88-2.93 9.62-7.36 17.77-13.84 25.46-12.47 14.8-30.3 23.9-49.6 25.38-4.7.36-51.16.2-55.84.2z"/>
  </g>
  <g id="cap">
    <g>
      <path fill="#FFF" d="M131.04 52.1c-12.92 0-23.43-10-23.43-22.3s10.52-22.3 23.44-22.3h145.34c12.92 0 23.43 10 23.43 22.3s-10.5 22.3-23.42 22.3H131.04z"/>
      <path fill="#A5A5A5" d="M276.38 10c11.03 0 20.93 8.36 20.93 19.8s-9.9 19.8-20.92 19.8H131.04c-11.03 0-20.93-8.35-20.93-19.8S120 10 131.05 10h145.34m0-5H131.04c-14.3 0-25.93 11.13-25.93 24.8 0 13.68 11.64 24.8 25.94 24.8h145.34c14.3 0 25.93-11.12 25.93-24.8C302.3 16.14 290.7 5 276.4 5z"/>
    </g>
  </g>
  <g id="cap-shade">
    <path opacity=".35" fill="#D3D3D3" d="M250.37 10c11.03 0 20.93 8.36 20.93 19.8s-9.9 19.8-20.93 19.8h14.5c2.22 0 12.26.1 14.5-.2 9.84-1.34 17.94-9.32 17.94-19.6 0-10.27-8.1-18.25-17.95-19.6-2.22-.3-12.27-.2-14.48-.2h-14.5z"/>
  </g>
  <g id="reflect">
    <path fill="#F2F2F2" d="M73.02 226.98c1.7-2.3 1.3-5.56-.92-7.38-2.4-1.96-5.93-1.52-7.77.96-14.2 19.2-21.85 42.45-21.85 66.33v40.9c0 2.98 2.42 5.4 5.4 5.4 2.98 0 5.4-2.42 5.4-5.4v-40.9c0-21.57 6.92-42.57 19.74-59.92z"/>
  </g>
</svg>
