<svg xmlns="http://www.w3.org/2000/svg" width="1609.841" height="207.119" viewBox="0 0 1609.841 207.119"><g fill="none" stroke="#1EE8E7" stroke-linecap="round" stroke-linejoin="round"><path d="M24.938 164.303c-1.646 1.272-1.906 3.656-.574 5.253 15.456 18.54 36.88 31.043 60.624 35.383 12.166 2.223 24.63 2.24 36.802.046 11.386-2.05 22.33-6 32.405-11.687 10.105-5.708 19.164-13.07 26.815-21.797 8.136-9.28 14.54-19.944 18.905-31.487 4.372-11.56 6.628-23.808 6.663-36.167.032-11.604-1.89-23.114-5.695-34.076-1.857-5.352-4.116-10.465-6.823-15.442-2.838-5.22-6.066-10.104-9.755-14.76-7.67-9.684-17.015-17.907-27.595-24.282C136.03 2.83 111.69-1.972 87.83 1.704c-5.594.862-11.024 2.16-16.4 3.922-5.64 1.848-11.023 4.14-16.264 6.924C44.233 18.358 34.44 26.086 26.25 35.368 10.277 53.464 1.177 76.545.5 100.67c-.07 2.548 2.412 4.39 4.83 3.585l60.335-20.112c1.318-.44 2.772-.097 3.755.886l5.74 5.74c.768.767 1.156 1.835 1.06 2.917-.227 2.572.067 5.164.866 7.62.21.648.236 1.342.075 2.004-1.414 5.8-1.347 11.86.197 17.626.383 1.43-.13 2.947-1.3 3.852l-51.12 39.515zM1362.42 46.377c.884 1.073 2.202 1.694 3.592 1.694h127.778c2.178 0 4.065-1.51 4.542-3.634 2.952-13.142 10.52-24.788 21.33-32.824 5.36-3.985 11.388-6.984 17.8-8.856 6.413-1.872 13.107-2.587 19.77-2.112 13.43.958 26.072 6.7 35.63 16.182 9.563 9.49 15.405 22.094 16.463 35.525.213 2.708-1.926 5.022-4.64 5.022h-.175c-2.387 0-4.388 1.806-4.63 4.18-1.59 15.5-10.772 29.196-24.505 36.553-13.735 7.358-30.228 7.413-44.01.147-1.685-.887-3.74-.66-5.188.572l-95.81 81.496c-.888.756-1.46 1.817-1.604 2.975-.896 7.238-4.725 13.79-10.59 18.123-5.868 4.333-13.257 6.066-20.44 4.793s-13.523-5.44-17.543-11.526c-4.02-6.085-5.362-13.555-3.714-20.66.264-1.136.09-2.33-.483-3.344l-40.127-70.91c-.685-1.21-1.875-2.05-3.244-2.292-10.154-1.79-18.792-8.43-23.13-17.78-4.34-9.355-3.832-20.242 1.363-29.15 5.194-8.908 14.417-14.712 24.695-15.543 10.278-.832 20.312 3.415 26.87 11.372zM469.797 162.82c-1.47.59-2.436 2.016-2.436 3.6v36.322c0 2.14-1.735 3.877-3.876 3.877h-15.508c-2.14 0-3.877-1.737-3.877-3.878v-32.367c0-1.95-1.45-3.598-3.387-3.846-9.993-1.278-19.486-5.12-27.554-11.154-.67-.5-1.486-.772-2.323-.772h-92.383c-2.14 0-3.877-1.736-3.877-3.877V135.22c0-2.142 1.736-3.878 3.877-3.878h70.335c2.622 0 4.488-2.55 3.694-5.05-.82-2.586-1.454-5.198-1.908-7.873-.317-1.865-1.932-3.23-3.822-3.23h-61.82c-2.14 0-3.876-1.735-3.876-3.876V95.806c0-2.14 1.736-3.877 3.877-3.877h64.443c1.647 0 3.114-1.042 3.66-2.596.443-1.266.93-2.513 1.46-3.746.775-1.805.078-3.906-1.624-4.89l-28.85-16.656c-1.855-1.07-2.49-3.442-1.42-5.296l7.754-13.43c1.07-1.854 3.442-2.49 5.296-1.42 10.85 6.264 21.697 12.528 32.546 18.79 1.36.787 3.06.673 4.304-.285 6.623-5.1 14.265-8.718 22.41-10.61 1.756-.407 3-1.973 3-3.776V4.378c0-2.14 1.735-3.877 3.876-3.877h15.508c2.14 0 3.877 1.737 3.877 3.878v61.966c0 1.778 1.21 3.33 2.935 3.76 1.033.26 2.05.565 3.054.918 2.52.886 5.162-.985 5.162-3.658V4.378c0-2.14 1.736-3.877 3.877-3.877h15.508c2.142 0 3.878 1.737 3.878 3.878v42.6c0 2.143 1.736 3.878 3.877 3.878h3.13c2.142 0 3.878 1.736 3.878 3.877v53.905c0 5.99-.922 11.943-2.734 17.652-.794 2.5 1.072 5.05 3.694 5.05h39.86c2.14 0 3.876 1.736 3.876 3.877v15.508c0 2.14-1.736 3.877-3.877 3.877h-47.828c-2.14 0-3.877 1.736-3.877 3.877v44.26c0 2.14-1.736 3.877-3.877 3.877h-15.507c-2.14 0-3.877-1.736-3.877-3.877v-41c-.836.38-1.678.74-2.53 1.08zM731.003 140.698c1.457 0 2.783-.84 3.406-2.156.622-1.317.43-2.875-.493-4-4.636-5.656-8.46-11.93-11.362-18.642-.654-1.512-2.214-2.425-3.853-2.252-1.764.185-3.417-.884-3.973-2.568-7.007-21.25-5.27-44.412 4.83-64.376 10.098-19.966 27.728-35.092 48.997-42.04 10.533-3.44 21.64-4.767 32.687-3.906 5.608.437 11.037 1.41 16.448 2.945 5.296 1.503 10.326 3.477 15.232 5.976 19.938 10.156 35.014 27.83 41.9 49.12 1.06 3.287 2.124 6.572 3.186 9.857.787 2.434-1.028 4.928-3.585 4.928h-45.38c-1.497 0-2.85.884-3.452 2.254-1.04 2.367-2.308 4.545-3.854 6.617-1 1.337-1 3.17 0 4.508.252.338.5.682.738 1.03 5.42-2.228 11.225-3.374 17.086-3.374h30.408c2.332 0 4.104 2.098 3.716 4.397l-1.486 8.793c-.04.24-.083.48-.125.72 7.116 7.453 11.455 17.124 12.292 27.395.835 10.27-1.882 20.517-7.7 29.023-2.887 4.223-6.474 7.92-10.606 10.937-4.13 3.015-8.746 5.302-13.647 6.764-9.875 2.945-20.46 2.41-29.988-1.52-2.48-1.022-5.206.802-5.206 3.485v12.288c0 6.25-2.963 12.13-7.987 15.85-5.024 3.717-11.514 4.833-17.49 3.006l-122.59-37.46c-6.682-2.04-10.864-8.666-9.832-15.577s6.967-12.025 13.955-12.025h57.723zM1090.538 178.327c0-1.862 1.42-3.417 3.274-3.585 27.75-2.518 52.225-19.213 64.695-44.132.61-1.22 1.856-1.99 3.22-1.99h33.236c1.988 0 3.6-1.61 3.6-3.6v-14.4c0-1.987-1.612-3.6-3.6-3.6h-24.812c-2.137 0-3.804-1.85-3.58-3.977.042-.39.08-.783.116-1.175.168-1.855 1.723-3.275 3.585-3.275h24.693c1.988 0 3.6-1.612 3.6-3.6v-14.4c0-1.988-1.612-3.6-3.6-3.6h-24.348c-1.988 0-3.6-1.612-3.6-3.6V44.258c0-8-3.178-15.67-8.835-21.326-5.657-5.656-13.33-8.832-21.33-8.83-11.97.005-23.94.01-35.91.013-1.987 0-3.6-1.61-3.6-3.6V4.103c0-1.988-1.612-3.6-3.6-3.6h-14.4c-1.988 0-3.6 1.612-3.6 3.6v7.66c0 1.75-1.26 3.246-2.983 3.546-33.472 5.818-59.684 32.03-65.503 65.502-.3 1.724-1.796 2.983-3.547 2.983h-7.59c-1.988 0-3.6 1.612-3.6 3.6v14.4c0 1.988 1.612 3.6 3.6 3.6h6.348c1.988 0 3.6 1.61 3.6 3.6v35.92c0 8 3.177 15.668 8.832 21.323 5.655 5.655 13.325 8.833 21.322 8.833h29.118c1.988 0 3.6 1.612 3.6 3.6v24.35c0 1.987 1.612 3.6 3.6 3.6h14.4c1.988 0 3.6-1.613 3.6-3.6v-24.693z"/></g><g fill="none" stroke="#000" stroke-linecap="round" stroke-linejoin="round"><path d="M38.72 168.938c14.718 14.587 33.885 23.768 54.476 26.09 20.592 2.325 41.323-2.353 58.922-13.293 17.6-10.94 30.967-27.46 37.995-46.955 7.028-19.494 7.278-40.746.71-60.4-6.57-19.652-19.546-36.482-36.883-47.832-17.337-11.35-37.953-16.514-58.594-14.674-20.64 1.84-40.017 10.568-55.073 24.806C25.216 50.918 15.42 69.78 12.43 90.285c19.454-6.485 38.907-12.97 58.36-19.453l17.893 17.893M1154.474 110.08c4.71-20.67-.245-42.362-13.466-58.935-13.22-16.573-33.268-26.226-54.468-26.226M1016.865 94.595v50.32c0 5.134 2.04 10.057 5.668 13.687 3.63 3.63 8.553 5.67 13.686 5.67h50.32c26.47 0 50.653-15 62.417-38.71"/><path d="M1109.766 94.595c0-6.168-2.44-12.06-6.802-16.422s-10.254-6.803-16.423-6.803-12.06 2.44-16.42 6.802c-4.363 4.362-6.804 10.254-6.804 16.423s2.44 12.06 6.802 16.422 10.254 6.803 16.423 6.803c6.17 0 12.06-2.44 16.423-6.802 4.362-4.362 6.803-10.254 6.803-16.423z"/><circle cx="456.929" cy="103.495" r="14.001"/><path d="M1156.216 94.595V44.257c0-5.134-2.04-10.058-5.67-13.688-3.632-3.63-8.556-5.67-13.69-5.668-16.78.005-33.56.01-50.338.017-18.477.005-36.195 7.35-49.257 20.418-13.06 13.07-20.398 30.79-20.395 49.27.003 18.476 7.345 36.194 20.41 49.26 13.067 13.064 30.79 20.403 49.266 20.403M111.7 136.29c6.52 0 12.748-2.58 17.358-7.19s7.19-10.836 7.19-17.356c0-6.52-2.58-12.747-7.19-17.357s-10.836-7.19-17.356-7.19c-6.52 0-12.747 2.58-17.357 7.19-4.61 4.61-7.19 10.837-7.19 17.357s2.58 12.747 7.19 17.357c4.61 4.61 10.836 7.19 17.356 7.19zM1542.312 61.003L1563 43.407h30.37c-3.175-9.53-9.637-17.622-18.23-22.824-8.594-5.203-18.76-7.177-28.676-5.57-9.916 1.61-18.937 6.693-25.447 14.343-6.51 7.65-10.086 17.37-10.086 27.415M449.542 61.932c-19.022-.583-36.497 10.428-44.18 27.838-7.686 17.41-4.045 37.74 9.204 51.402 13.25 13.662 33.46 17.923 51.096 10.775s29.178-24.277 29.178-43.308V62.487M1532.4 75.197l-63.244 53.796c-18.307 15.57-36.613 31.143-54.92 46.714 1.546 4.24.71 8.982-2.19 12.44-2.9 3.455-7.427 5.1-11.87 4.31-4.444-.787-8.13-3.887-9.665-8.13s-.69-8.984 2.22-12.434L1334.27 68.59c-.768-1.36-.757-3.026.03-4.375.786-1.35 2.23-2.18 3.792-2.18h173.168M793.86 152.003H673.28c-1.39 0-2.568 1.017-2.773 2.39-.206 1.374.625 2.69 1.954 3.096 40.862 12.485 81.725 24.97 122.588 37.457 2.55.78 5.318.303 7.462-1.283s3.408-4.095 3.408-6.762v-57.33c0-8.924 3.545-17.482 9.855-23.792s14.868-9.855 23.792-9.855h21.49c-4.923 29.126-28.265 51.637-57.55 55.5-29.287 3.864-57.668-11.823-69.976-38.676M819.937 62.278h44.13c-5.92-18.304-18.833-33.526-35.927-42.35-17.095-8.824-36.985-10.533-55.335-4.755s-33.67 18.575-42.625 35.6C721.225 67.8 719.363 87.678 725 106.07"/></g><g fill="none" stroke="#000" stroke-linecap="round" stroke-linejoin="round"><path d="M1059.444 38.903c-24.8 12.066-38.634 39.078-33.93 66.254s26.81 47.968 54.223 50.997v-45.137c0-6.16 2.447-12.067 6.803-16.423 4.355-4.355 10.263-6.802 16.422-6.802h45.137c-2.05-18.555-12.36-35.195-28.063-45.29-15.702-10.098-35.12-12.573-52.852-6.74M52.854 157.002c21.356 20.246 52.715 25.834 79.75 14.21s44.554-38.224 44.554-67.652-17.52-56.03-44.554-67.653-58.394-6.035-79.75 14.21M376.552 57.847l58.064 33.523 21.114 12.19v91.326M483.956 194.988V12.133M326.208 142.973h213.33"/><path d="M432.873 103.56c0 6.072 2.402 11.87 6.694 16.163 4.293 4.293 10.09 6.695 16.162 6.695s11.868-2.402 16.16-6.694c4.294-4.293 6.696-10.09 6.696-16.163 0-6.07-2.402-11.868-6.694-16.16-4.293-4.294-10.09-6.696-16.163-6.696-6.072 0-11.87 2.402-16.163 6.694-4.292 4.293-6.694 10.09-6.694 16.163zM421.89 103.56h-89.202M872.74 123.964c-1.407-8.328-5.877-15.8-12.55-20.977-6.674-5.177-15.022-7.65-23.44-6.944-8.416.706-16.234 4.536-21.952 10.753-5.717 6.217-8.88 14.33-8.88 22.776s3.163 16.558 8.88 22.775c5.717 6.218 13.536 10.048 21.953 10.754 8.418.708 16.766-1.766 23.44-6.943 6.673-5.177 11.144-12.65 12.55-20.977M813.694 50.342c-5.32-8.463-15.597-12.386-25.203-9.618-9.605 2.768-16.22 11.558-16.22 21.555 0 9.995 6.615 18.785 16.22 21.553 9.606 2.768 19.884-1.155 25.204-9.618"/><path d="M775.71 119.077c5.32 8.463 15.597 12.386 25.203 9.618 9.606-2.768 16.22-11.558 16.22-21.554 0-9.996-6.614-18.786-16.22-21.553-9.605-2.768-19.883 1.154-25.203 9.618M1055.573 115.885c0 5.344 4.333 9.677 9.677 9.677h42.58c5.345 0 9.677-4.333 9.677-9.677v-42.58c0-5.345-4.333-9.677-9.677-9.677h-42.58c-5.344 0-9.677 4.333-9.677 9.677v42.58z"/><circle cx="1458.503" cy="91.277" r="6.585"/><path d="M1400.347 132.773h35.67v5.488h-35.67z"/><circle cx="1386.427" cy="94.614" r="16.464"/></g><g fill="none" stroke="#000" stroke-linecap="round" stroke-linejoin="round"><path d="M1119.28 117.82h65.968M1086.54 82.982v-71.68M769.467 62.278h-17.652v44.863h17.652M1427.233 91.277v39.85M1405.282 91.277h43.902M449.542 57.867V12.133M1546.02 88.898c14.02 3.147 28.46-3.16 35.68-15.582s5.55-28.092-4.123-38.715-25.12-13.746-38.16-7.718c-13.043 6.03-20.67 19.817-18.846 34.07M1353.3 57.647c-3.13-5.422-8.91-8.767-15.17-8.78-6.26-.014-12.056 3.307-15.21 8.715-3.153 5.408-3.188 12.086-.094 17.528 3.095 5.442 8.853 8.824 15.113 8.878M1421.41 71.916h74.68c3.45 0 6.534 2.152 7.725 5.39s.236 6.877-2.392 9.112c-17.886 15.214-35.77 30.427-53.657 45.64"/><circle cx="95.337" cy="95.378" r="8.182"/><circle cx="111.701" cy="111.743" r="3.682"/><path d="M1079.738 195.82V171.43M1187.764 87.793h-24.387M1003.316 94.595h71.612"/></g></svg>