<svg xmlns="http://www.w3.org/2000/svg" width="1466.81" height="176.3" viewBox="0 0 1466.807 176.304">
  <g id="major" fill="none" stroke="#455A64" stroke-linecap="round" stroke-linejoin="round">
    <path d="M143.8 123.6c5.73 0 11.2-2.27 15.27-6.32 4.06-4.06 6.33-9.54 6.33-15.28s-2.27-11.2-6.33-15.27c-4.05-4.06-9.53-6.33-15.27-6.33s-11.22 2.27-15.28 6.33-6.32 9.54-6.32 15.27c0 5.74 2.27 11.22 6.32 15.28 4.06 4.05 9.54 6.32 15.28 6.32zM1057.02 81.66v-46.8c0-9.96-8.06-18.02-18-18H992.2c-17.18 0-33.66 6.84-45.8 19C934.23 48 927.4 64.48 927.4 81.66c0 17.2 6.83 33.67 18.98 45.82 12.16 12.14 28.64 18.96 45.82 18.96M731.47 134.43h-115.2c-1.32 0-2.45.97-2.64 2.28-.2 1.32.6 2.58 1.86 2.97l117.1 35.78c2.44.75 5.08.3 7.13-1.22s3.26-3.92 3.26-6.46V113c0-8.52 3.37-16.7 9.4-22.73 6.03-6.03 14.2-9.4 22.73-9.4h20.53c-4.7 27.8-27 49.32-54.98 53-27.98 3.7-55.1-11.3-66.85-36.94"/>
    <path d="M79.58 152.33c12.95 12.84 29.8 20.92 47.93 22.96 18.13 2.04 36.38-2.08 51.86-11.7 15.5-9.63 27.25-24.17 33.44-41.33 6.18-17.15 6.4-35.85.62-53.14-5.78-17.3-17.2-32.1-32.45-42.1-15.26-9.98-33.4-14.53-51.57-12.9-18.16 1.6-35.2 9.3-48.46 21.82-13.25 12.53-21.87 29.12-24.5 47.17 17.12-5.7 34.24-11.4 51.36-17.12l15.74 15.75M927.42 81.66v46.8c0 9.94 8.06 18 18 18h46.8c24.62 0 47.1-13.95 58.05-36M756.38 48.7h42.16c-5.66-17.47-18-32-34.32-40.44C747.88-.17 728.88-1.8 711.35 3.7c-17.52 5.53-32.16 17.76-40.7 34.02-8.57 16.27-10.35 35.26-4.96 52.83M1369.94 71.58c5.46-4.65 10.92-9.3 16.38-13.93h24.04c-5.2-15.6-20.92-25.1-37.13-22.48-16.22 2.63-28.13 16.63-28.13 33.06"/>
    <circle cx="435.89" cy="98.61" r="11.81"/>
    <path d="M1055.4 96.06c4.38-19.22-.23-39.4-12.52-54.8s-30.94-24.4-50.66-24.4M1013.82 81.66c0-5.73-2.27-11.2-6.32-15.27-4.06-4.07-9.54-6.34-15.28-6.34-5.73 0-11.2 2.27-15.27 6.33-4.06 4.05-6.33 9.52-6.33 15.26s2.27 11.22 6.33 15.27c4.06 4.06 9.53 6.33 15.27 6.33s11.22-2.27 15.27-6.32c4.05-4.06 6.32-9.54 6.32-15.28zM1362.1 82.81l-50.07 42.6c-14.5 12.33-29 24.66-43.48 37 1.22 3.34.56 7.1-1.74 9.83s-5.87 4.04-9.38 3.42c-3.52-.63-6.44-3.08-7.66-6.44-1.2-3.35-.54-7.1 1.76-9.83l-46.28-81.8c-.6-1.06-.6-2.38.02-3.45.63-1.07 1.77-1.72 3-1.72h137.1M429.66 63.54c-16.05-.5-30.8 8.8-37.28 23.48s-3.4 31.85 7.77 43.38c11.18 11.52 28.23 15.12 43.1 9.1 14.9-6.04 24.63-20.5 24.63-36.55V64"/>
  </g>
  <g id="mid" fill="none" stroke="#455A64" stroke-linecap="round" stroke-linejoin="round">
    <path d="M368.08 60.1l49 28.27 17.8 10.3v77.06M963.42 101.46c0 4.97 4.03 9 9 9h39.6c4.97 0 9-4.03 9-9v-39.6c0-4.97-4.03-9-9-9h-39.6c-4.97 0-9 4.03-9 9v39.6zM806.82 107.64c-1.34-7.95-5.6-15.1-12-20.04-6.36-4.94-14.34-7.3-22.38-6.63-8.04.68-15.5 4.33-20.97 10.27C746 97.18 743 104.94 743 113c0 8.07 3 15.82 8.47 21.76 5.46 5.94 12.93 9.6 20.97 10.27s16.02-1.7 22.4-6.63c6.37-4.95 10.64-12.1 11.98-20.04M750.4 37.3c-5.07-8.07-14.9-11.82-24.06-9.18s-15.5 11.04-15.5 20.6c0 9.54 6.32 17.94 15.5 20.6 9.17 2.63 19-1.12 24.07-9.2"/>
    <path d="M714.13 102.97c5.08 8.1 14.9 11.84 24.08 9.2s15.5-11.05 15.5-20.6-6.32-17.95-15.5-20.6-19 1.1-24.07 9.2M406.33 98.66h-75.26M415.6 98.66c0 5.12 2.02 10.02 5.65 13.64s8.5 5.65 13.63 5.65c5.13 0 10.02-2.03 13.64-5.65 3.62-3.62 5.65-8.52 5.65-13.64s-2.03-10-5.65-13.64c-3.62-3.62-8.5-5.64-13.64-5.64-5.12 0-10 2.02-13.63 5.64-3.63 3.63-5.65 8.52-5.65 13.64zM325.6 131.9h180M458.7 175.8V21.52M92.02 141.83c18.8 17.8 46.38 22.73 70.17 12.5 23.78-10.22 39.2-33.63 39.2-59.53s-15.42-49.3-39.2-59.53c-23.8-10.23-51.4-5.3-70.18 12.5"/>
    <circle cx="1303.59" cy="95.55" r="5.21"/>
    <path d="M1257.55 128.4h28.24v4.34h-28.25z"/>
    <circle cx="1246.53" cy="98.19" r="13.03"/>
    <path d="M967.02 29.87C943.96 41.1 931.1 66.2 935.47 91.5c4.37 25.26 24.93 44.6 50.43 47.42V96.94c0-5.73 2.27-11.23 6.32-15.28s9.55-6.32 15.28-6.32h41.97c-1.9-17.26-11.5-32.73-26.1-42.12-14.6-9.4-32.66-11.7-49.15-6.27"/>
  </g>
  <g id="minor" fill="none" stroke="#455A64" stroke-linecap="round" stroke-linejoin="round">
    <path d="M914.82 81.66h66.6M1022.67 103.26h61.35M1086.36 75.34h-22.68M985.9 175.8v-22.68"/>
    <circle cx="129.4" cy="87.6" r="7.2"/>
    <circle cx="143.8" cy="102" r="3.24"/>
    <path d="M1220.3 68.92c-2.47-4.3-7.05-6.94-12-6.95-4.96 0-9.55 2.62-12.04 6.9-2.5 4.28-2.53 9.57-.08 13.88s7 6.98 11.96 7.02M1274.23 80.22h59.12c2.73 0 5.17 1.7 6.12 4.27.94 2.55.18 5.43-1.9 7.2-14.16 12.04-28.32 24.1-42.48 36.13M429.66 60.1V21.52M1372.88 93.66c11.1 2.5 22.53-2.5 28.24-12.33 5.72-9.84 4.4-22.24-3.26-30.65-7.66-8.4-19.88-10.9-30.2-6.1-10.33 4.76-16.37 15.68-14.93 26.96M708.16 48.7H691.3v42.87h16.87M1278.84 95.55v31.54M1261.46 95.55h34.76M992.22 70.86V4.2M347.13 107.23h33M333.1 90.1h33"/>
  </g>
  <g id="ground">
    <path fill="none" stroke="#455A64" stroke-linecap="round" stroke-linejoin="round" d="M.5 175.8h1465.8"/>
  </g>
</svg>
