<svg xmlns="http://www.w3.org/2000/svg" width="1515.969" height="190.623" viewBox="0 0 1515.969 190.623">
  <g id="thin" stroke-linecap="round" stroke-linejoin="round">
    <path fill="none" stroke="#455A64" stroke-width="4" d="M1350.374 65.574h70.178c3.243 0 6.142 2.023 7.26 5.065 1.12 3.043.224 6.462-2.247 8.562-16.808 14.297-33.616 28.592-50.424 42.89"/>
    <path fill="none" stroke="#D84532" stroke-width="6" d="M1286.366 52.166c-2.94-5.095-8.372-8.238-14.257-8.25-5.883-.013-11.328 3.107-14.29 8.19-2.964 5.082-3 11.356-.09 16.47 2.907 5.115 8.32 8.294 14.202 8.344"/>
    <path fill="none" stroke="#455A64" stroke-width="6" d="M1467.474 81.534c13.175 2.958 26.747-2.97 33.53-14.643 6.784-11.673 5.217-26.397-3.875-36.38-9.09-9.983-23.606-12.92-35.86-7.254-12.258 5.665-19.425 18.623-17.71 32.016"/>
    <path fill="none" stroke="#455A64" stroke-width="4" d="M1335.216 83.77h41.257"/>
    <circle fill="#4CD8AD" stroke="#4CD8AD" stroke-width="6" cx="102.394" cy="103.338" r="3.612"/>
    <path fill="none" stroke="#73BFBB" stroke-width="6" d="M732.466 55.874h-16.862V98.73h16.862M427.95 53.704V3.93M330.187 105.464h39.09M1034.35 74.733V3.053M951.125 86.346h71.612M1067.088 109.57h65.968"/>
    <path fill="none" stroke="#E54438" stroke-width="6" d="M1135.572 79.543h-24.386M1027.546 187.57v-24.387"/>
    <path fill="none" stroke="#73BFBB" stroke-width="6" d="M313.582 85.158h39.09"/>
    <path fill="#4CD8AD" stroke="#4CD8AD" stroke-width="6" d="M1330.58 122.764h33.52v5.157h-33.52z"/>
    <circle fill="none" stroke="#F27E30" stroke-width="6" cx="1385.231" cy="83.77" r="6.188"/>
    <path fill="none" stroke="#FFC107" stroke-width="6" d="M738.43 110.134c5.082 8.084 14.9 11.832 24.076 9.188 9.177-2.644 15.496-11.04 15.496-20.59s-6.32-17.948-15.496-20.592c-9.176-2.644-18.994 1.103-24.076 9.188"/>
    <path fill="none" stroke="#87A55B" stroke-width="6" d="M774.717 44.47c-5.082-8.084-14.9-11.83-24.076-9.187-9.176 2.644-15.495 11.04-15.495 20.59s6.32 17.947 15.496 20.592c9.177 2.644 18.995-1.103 24.077-9.188"/>
    <path fill="none" stroke="#E54438" stroke-width="8" d="M1007.253 30.654c-24.802 12.066-38.635 39.078-33.93 66.255 4.702 27.175 26.81 47.966 54.223 50.995V102.77c0-6.16 2.446-12.068 6.803-16.424 4.354-4.355 10.262-6.803 16.42-6.803h45.138c-2.05-18.555-12.36-35.194-28.062-45.29s-35.12-12.573-52.852-6.74"/>
    <path fill="none" stroke="#73BFBB" stroke-width="6" d="M304.68 134.703H517.9M462.346 186.69V3.93"/>
    <circle fill="none" stroke="#FFC107" stroke-width="6" cx="1317.498" cy="86.905" r="15.472"/>
    <path fill="none" stroke="#FFC107" stroke-width="6" d="M354.997 49.62l58.034 33.507 21.104 12.184V186.59"/>
    <path fill="none" stroke="#455A64" stroke-width="8" d="M755.77 141.588H640.578c-1.326 0-2.453.97-2.65 2.283-.195 1.313.6 2.57 1.867 2.958l117.11 35.783c2.436.745 5.08.29 7.128-1.226 2.047-1.515 3.256-3.91 3.256-6.46V120.16c0-8.525 3.385-16.7 9.413-22.73 6.027-6.027 14.203-9.414 22.73-9.414h20.528c-4.702 27.825-27 49.33-54.978 53.02-27.977 3.69-55.09-11.296-66.847-36.948"/>
    <path fill="none" stroke="#455A64" stroke-width="10" d="M964.673 86.346v50.32c0 5.134 2.04 10.057 5.668 13.686 3.63 3.63 8.555 5.67 13.688 5.67h50.32c26.47 0 50.652-14.998 62.417-38.71M1102.283 101.83c4.71-20.67-.245-42.36-13.466-58.934-13.22-16.573-33.268-26.226-54.468-26.226"/>
  </g>
  <g id="mid">
    <path fill="none" stroke="#FFC107" stroke-width="12" stroke-linecap="round" stroke-linejoin="round" d="M44.66 147.743c20.95 19.863 51.718 25.346 78.242 13.942s43.712-37.502 43.712-66.374c0-28.87-17.188-54.97-43.712-66.373s-57.29-5.92-78.243 13.943"/>
    <path fill="none" stroke="#E54438" stroke-width="10" stroke-linecap="round" stroke-linejoin="round" d="M411.29 95.31c0 6.07 2.4 11.864 6.69 16.154 4.29 4.29 10.086 6.69 16.154 6.69s11.863-2.398 16.154-6.69 6.69-10.085 6.69-16.153c0-6.067-2.4-11.862-6.69-16.153-4.29-4.29-10.085-6.69-16.154-6.69-6.068 0-11.863 2.4-16.153 6.69-4.29 4.29-6.69 10.086-6.69 16.154z"/>
    <path fill="none" stroke="#455A64" stroke-width="10" stroke-linecap="round" stroke-linejoin="round" d="M30.792 159.454c14.44 14.312 33.244 23.317 53.446 25.598 20.203 2.28 40.542-2.31 57.81-13.042 17.265-10.734 30.38-26.942 37.276-46.067 6.896-19.126 7.14-39.976.695-59.258s-19.177-35.794-36.187-46.93C126.823 8.617 106.598 3.552 86.347 5.357c-20.25 1.805-39.26 10.368-54.033 24.337C17.542 43.664 7.932 62.167 5 82.286L62.256 63.2 79.81 80.757"/>
    <circle fill="#87A55B" cx="435.333" cy="95.245" r="13.993"/>
    <path fill="none" stroke="#455A64" stroke-width="10" stroke-linecap="round" stroke-linejoin="round" d="M427.95 53.704c-19.012-.583-36.477 10.422-44.158 27.823-7.68 17.402-4.042 37.72 9.2 51.376 13.242 13.654 33.442 17.913 51.07 10.77 17.628-7.145 29.163-24.266 29.163-43.285V54.26"/>
    <path fill="none" stroke="#455A64" stroke-width="8" stroke-linecap="round" stroke-linejoin="round" d="M780.68 55.874h42.158c-5.654-17.486-17.992-32.028-34.32-40.457-16.332-8.43-35.333-10.062-52.862-4.542-17.53 5.52-32.165 17.744-40.72 34.01-8.555 16.265-10.334 35.252-4.948 52.824"/>
    <path fill="none" stroke="#455A64" stroke-width="10" stroke-linecap="round" stroke-linejoin="round" d="M1104.025 86.346V36.008c0-5.135-2.04-10.06-5.67-13.688s-8.557-5.668-13.69-5.666c-16.78.005-33.56.01-50.34.017-18.476.007-36.193 7.352-49.255 20.42-13.062 13.068-20.4 30.79-20.396 49.27.003 18.476 7.345 36.194 20.41 49.26 13.066 13.063 30.787 20.402 49.266 20.402"/>
    <path fill="none" stroke="#455A64" stroke-width="8" stroke-linecap="round" stroke-linejoin="round" d="M1454.675 68.657l-59.434 50.556-51.608 43.9c1.452 3.983.667 8.44-2.06 11.687-2.728 3.25-6.98 4.795-11.155 4.055-4.177-.742-7.64-3.655-9.082-7.642-1.443-3.988-.65-8.444 2.084-11.684l-54.936-97.08c-1.558-2.752.43-6.16 3.59-6.16h162.733"/>
  </g>
  <g id="thick" fill="none" stroke-linecap="round" stroke-linejoin="round">
    <path stroke="#E54438" stroke-width="10" d="M831.124 114.802c-1.345-7.956-5.615-15.093-11.99-20.04-6.375-4.945-14.35-7.308-22.392-6.633-8.04.674-15.51 4.332-20.97 10.27-5.464 5.94-8.484 13.69-8.484 21.76 0 8.067 3.02 15.816 8.482 21.756s12.93 9.6 20.972 10.273 16.016-1.69 22.39-6.635c6.377-4.946 10.647-12.083 11.992-20.04"/>
    <path stroke="#FF2151" stroke-width="10" d="M102.394 127.42c6.397 0 12.506-2.53 17.03-7.053 4.522-4.522 7.053-10.633 7.053-17.03s-2.53-12.504-7.053-17.027c-4.523-4.523-10.633-7.054-17.03-7.054-6.396 0-12.505 2.53-17.03 7.053-4.522 4.522-7.053 10.632-7.053 17.028s2.53 12.506 7.054 17.03c4.524 4.523 10.633 7.053 17.03 7.053z"/>
    <path stroke="#FFC107" stroke-width="8" d="M1057.575 86.346c0-6.17-2.44-12.06-6.803-16.423-4.362-4.362-10.254-6.803-16.423-6.803s-12.062 2.44-16.424 6.803c-4.362 4.36-6.803 10.254-6.803 16.423s2.44 12.06 6.802 16.422 10.255 6.803 16.424 6.803c6.167 0 12.06-2.44 16.42-6.8 4.363-4.363 6.805-10.255 6.805-16.424zM1463.99 55.32l19.44-16.536h28.54c-6.16-18.5-24.83-29.803-44.08-26.683-19.248 3.122-33.392 19.742-33.392 39.242"/>
  </g>
</svg>
