<svg xmlns="http://www.w3.org/2000/svg" width="1737.48" height="261.9" viewBox="0 0 1737.483 261.897">
  <g id="offset" fill="none" stroke="#1EE8E7" stroke-linecap="round" stroke-linejoin="round">
    <path d="M261.3 125.63c-.68-16.44-4.45-32.57-11.12-47.6-7.23-16.3-17.72-30.93-30.83-43-13.1-12.1-28.54-21.35-45.37-27.23-15.53-5.43-31.92-7.86-48.35-7.2-16.44.68-32.57 4.45-47.6 11.12-16.3 7.23-30.93 17.72-43 30.83C22.92 55.65 13.67 71.1 7.8 87.92c-5.42 15.53-7.86 31.9-7.2 48.35.68 16.44 4.45 32.57 11.12 47.6 7.23 16.3 17.72 30.93 30.83 43 13.1 12.08 28.54 21.35 45.37 27.23 15.53 5.42 31.9 7.86 48.35 7.2 16.44-.68 32.57-4.45 47.6-11.12 16.3-7.23 30.93-17.72 43-30.83 12.08-13.1 21.35-28.54 27.23-45.37 5.42-15.53 7.86-31.92 7.2-48.35zM598.9 46.05c-10.72-12.5-23.66-22.82-38.2-30.5C544.9 7.26 527.6 2.26 509.84.9c-17.77-1.36-35.63.93-52.48 6.73-15.55 5.37-29.93 13.6-42.42 24.3-12.5 10.7-22.82 23.66-30.5 38.2-8.3 15.77-13.3 33.07-14.67 50.84-1.36 17.77.92 35.63 6.73 52.48 5.36 15.56 13.6 29.93 24.3 42.42 10.7 12.5 23.65 22.83 38.2 30.5 15.77 8.3 33.07 13.3 50.84 14.67 17.77 1.38 35.63-.9 52.48-6.7 15.56-5.37 29.93-13.6 42.42-24.3 12.5-10.7 22.82-23.66 30.5-38.2 8.3-15.78 13.3-33.07 14.67-50.84 1.38-17.77-.9-35.63-6.7-52.5-5.37-15.54-13.6-29.9-24.3-42.4zM1329.86 223.2c11.64-11.62 20.95-25.32 27.5-40.42 7.07-16.35 10.72-33.98 10.73-51.8 0-17.83-3.66-35.46-10.73-51.82-6.53-15.1-15.84-28.8-27.47-40.43-11.63-11.64-25.33-20.95-40.43-27.5C1273.12 4.17 1255.5.5 1237.67.5c-17.83 0-35.46 3.64-51.82 10.72-15.1 6.53-28.8 15.84-40.44 27.47-11.62 11.62-20.93 25.32-27.47 40.4-7.08 16.37-10.74 34-10.74 51.82 0 17.83 3.63 35.46 10.7 51.82 6.54 15.1 15.85 28.8 27.48 40.43 11.63 11.64 25.33 20.95 40.42 27.5 16.36 7.07 34 10.72 51.8 10.73 17.84 0 35.47-3.65 51.83-10.72 15.1-6.53 28.8-15.84 40.43-27.47zM772.13 43.3c-11.05 12.18-19.7 26.32-25.48 41.7-6.28 16.7-9.07 34.48-8.2 52.28.86 17.8 5.37 35.24 13.23 51.23 7.26 14.78 17.23 28 29.4 39.06 12.2 11.05 26.33 19.7 41.72 25.48 16.7 6.28 34.47 9.07 52.28 8.2 17.8-.86 35.23-5.37 51.23-13.23 14.77-7.25 28-17.22 39.05-29.4 11.06-12.18 19.7-26.32 25.48-41.72 6.28-16.68 9.07-34.46 8.2-52.27-.86-17.8-5.36-35.22-13.23-51.22-7.26-14.76-17.22-28-29.4-39.04-12.2-11.06-26.33-19.7-41.72-25.48C898 2.58 880.2-.2 862.4.66 844.6 1.5 827.18 6 811.2 13.88c-14.76 7.25-28 17.2-39.05 29.4zM1497.32 202.28c9 13.77 20.5 25.7 33.92 35.2 14.55 10.28 31.06 17.47 48.5 21.13 17.44 3.68 35.45 3.72 52.9.16 16.13-3.3 31.45-9.6 45.22-18.6 13.78-9 25.7-20.48 35.2-33.9 10.3-14.57 17.48-31.07 21.14-48.5 3.66-17.46 3.7-35.46.14-52.93-3.3-16.1-9.6-31.44-18.6-45.2-8.98-13.78-20.48-25.7-33.9-35.2-14.56-10.3-31.07-17.5-48.5-21.15-17.45-3.66-35.46-3.7-52.92-.14-16.12 3.3-31.44 9.6-45.2 18.6-13.8 8.98-25.7 20.48-35.2 33.9-10.3 14.57-17.5 31.07-21.15 48.5-3.66 17.46-3.7 35.46-.14 52.93 3.3 16.1 9.6 31.43 18.6 45.2z"/>
  </g>
  <g id="design-asset-lines::major" fill="none" stroke="#000" stroke-linecap="round" stroke-linejoin="round">
    <path d="M67.37 195.1c14.44 14.3 33.25 23.3 53.45 25.6 20.2 2.27 40.54-2.32 57.8-13.05 17.27-10.74 30.4-26.95 37.3-46.07 6.88-19.13 7.13-39.98.68-59.26s-19.17-35.8-36.18-46.93c-17-11.15-37.24-16.2-57.5-14.4-20.24 1.8-39.25 10.36-54.02 24.33-14.77 13.97-24.38 32.48-27.32 52.6l57.26-19.1 17.55 17.56"/>
    <path d="M138.98 163.06c6.4 0 12.5-2.53 17.03-7.05 4.53-4.52 7.06-10.63 7.06-17.02 0-6.4-2.53-12.5-7.05-17.03-4.52-4.52-10.63-7.06-17.02-7.06-6.4 0-12.5 2.52-17.03 7.05-4.53 4.52-7.06 10.63-7.06 17.03s2.52 12.5 7.05 17.03c4.52 4.53 10.63 7.06 17.03 7.06z"/>
    <circle cx="522.18" cy="130.89" r="13"/>
    <path d="M515.32 92.3c-17.66-.55-33.9 9.68-41.02 25.84-7.14 16.17-3.76 35.05 8.55 47.73 12.3 12.7 31.06 16.65 47.44 10 16.37-6.63 27.08-22.53 27.08-40.2V92.8M914.9 91.5h42.17c-5.66-17.47-18-32.02-34.32-40.45-16.33-8.42-35.34-10.06-52.86-4.54-17.54 5.53-32.18 17.76-40.73 34.02-8.56 16.27-10.34 35.25-4.95 52.83M890 177.23H774.8c-1.32 0-2.44.97-2.64 2.28-.2 1.32.6 2.58 1.87 2.97l117.1 35.78c2.44.74 5.1.3 7.13-1.23 2.05-1.5 3.26-3.9 3.26-6.46V155.8c0-8.53 3.38-16.7 9.4-22.73 6.04-6.03 14.22-9.42 22.74-9.42h20.53c-4.7 27.83-27 49.33-55 53.02-27.97 3.7-55.08-11.3-66.84-36.94M1298.3 121.98V71.64c0-5.13-2.03-10.05-5.66-13.68-3.63-3.63-8.55-5.67-13.7-5.67h-50.32c-18.48 0-36.2 7.36-49.26 20.43-13.06 13.07-20.4 30.8-20.4 49.27 0 18.47 7.35 36.2 20.4 49.26 13.08 13.06 30.8 20.4 49.28 20.4"/>
    <path d="M1251.86 121.98c0-6.17-2.44-12.06-6.8-16.42-4.36-4.36-10.25-6.8-16.42-6.8s-12.06 2.44-16.42 6.8-6.8 10.25-6.8 16.42 2.43 12.06 6.8 16.43c4.36 4.37 10.25 6.8 16.42 6.8 6.17 0 12.06-2.43 16.42-6.8 4.36-4.36 6.8-10.25 6.8-16.42z"/>
    <path d="M1158.96 121.98v50.32c0 5.14 2.04 10.06 5.67 13.7 3.63 3.62 8.55 5.66 13.7 5.66h50.3c26.48 0 50.66-15 62.42-38.7M1296.57 137.47c4.7-20.67-.24-42.36-13.46-58.94-13.2-16.57-33.26-26.22-54.46-26.22M1664.88 109.02l-48.9 41.6-42.47 36.12c1.2 3.28.55 6.95-1.7 9.62-2.23 2.67-5.73 3.94-9.17 3.34s-6.3-3-7.47-6.3-.54-6.94 1.7-9.6c-15.06-26.64-30.12-53.27-45.2-79.9-1.28-2.26.36-5.06 2.96-5.06h133.9M1672.55 98.04l16-13.6h23.48c-5.07-15.23-20.43-24.53-36.27-21.97-15.84 2.57-27.48 16.25-27.48 32.3"/>
  </g>
  <g id="design-asset-lines::mid" fill="none" stroke="#000" stroke-linecap="round" stroke-linejoin="round">
    <path d="M1562.76 153.54h27.6v4.24h-27.6z"/>
    <circle cx="1607.74" cy="121.45" r="5.09"/>
    <path d="M872.66 145.77c5.08 8.1 14.9 11.83 24.08 9.2 9.17-2.66 15.5-11.05 15.5-20.6s-6.33-17.95-15.5-20.6c-9.18-2.64-19 1.1-24.08 9.2"/>
    <path d="M908.95 80.1c-5.1-8.08-14.9-11.82-24.08-9.18s-15.5 11.04-15.5 20.6c0 9.54 6.32 17.94 15.5 20.58 9.18 2.65 19-1.1 24.08-9.18M965.35 150.44c-1.34-7.96-5.6-15.1-12-20.04-6.36-4.94-14.34-7.3-22.38-6.63s-15.5 4.33-20.97 10.27c-5.46 5.94-8.48 13.7-8.48 21.76 0 8.07 3.02 15.8 8.48 21.75s12.93 9.6 20.97 10.28c8.04.67 16.02-1.7 22.4-6.64s10.64-12.1 11.98-20.05M81.24 183.38c20.95 19.86 51.72 25.35 78.25 13.94s43.7-37.5 43.7-66.37-17.2-54.97-43.7-66.37-57.3-5.93-78.26 13.94M1197.67 143.27c0 5.35 4.33 9.68 9.68 9.68h42.58c5.34 0 9.67-4.33 9.67-9.68V100.7c0-5.35-4.33-9.68-9.67-9.68h-42.58c-5.35 0-9.68 4.33-9.68 9.67v42.57z"/>
    <path d="M1201.54 66.3c-24.8 12.06-38.63 39.07-33.93 66.25s26.82 47.96 54.23 51V138.4c0-6.15 2.45-12.06 6.8-16.42 4.36-4.35 10.27-6.8 16.43-6.8h45.14c-2.05-18.55-12.36-35.2-28.07-45.3-15.7-10.1-35.12-12.56-52.85-6.73M489.65 130.95h-82.83M499.85 130.95c0 5.64 2.23 11.02 6.2 15 4 4 9.38 6.22 15.02 6.22 5.64 0 11.02-2.23 15-6.2 4-4 6.22-9.38 6.22-15.02s-2.24-11.02-6.22-15c-4-4-9.37-6.23-15-6.23-5.65 0-11.03 2.24-15.02 6.22-4 4-6.2 9.37-6.2 15zM400.8 167.54h198.1M547.28 215.84V46.04"/>
    <circle cx="1552" cy="124.03" r="12.73"/>
    <path d="M447.55 88.5l53.9 31.13 19.62 11.32V215.74"/>
  </g>
  <g id="design-asset-lines::minor" fill="none" stroke="#000" stroke-linecap="round" stroke-linejoin="round">
    <path d="M1579.05 106.48h57.75c2.67 0 5.06 1.66 5.98 4.17.92 2.5.18 5.3-1.85 7.04-13.84 11.76-27.67 23.52-41.5 35.3M1526.38 95.44c-2.42-4.2-6.9-6.78-11.73-6.8s-9.32 2.57-11.76 6.75c-2.45 4.17-2.48 9.34-.08 13.55 2.4 4.2 6.84 6.82 11.68 6.86M1675.42 119.6c10.84 2.44 22-2.43 27.6-12.04s4.28-21.72-3.2-29.94c-7.48-8.2-19.43-10.63-29.5-5.97-10.1 4.66-16 15.33-14.58 26.35M1583.56 121.45v30.82M1566.58 121.45h33.95"/>
    <circle cx="138.98" cy="138.98" r="3.61"/>
    <path d="M866.7 91.5h-16.87v42.87h16.87M515.32 88.52V46.05"/>
    <circle cx="122.92" cy="122.92" r="8.03"/>
    <path d="M424.5 140.38h36.3M1228.64 110.37V38.7M1145.4 121.98h71.63M1261.38 145.2h65.97M1329.86 115.18h-24.38M1221.84 223.2v-24.38M409.07 121.52h36.32"/>
  </g>
</svg>
