<svg xmlns="http://www.w3.org/2000/svg" width="1631.469" height="187.516" viewBox="0 0 1631.469 187.516">
  <g id="thin" stroke-width="3" stroke-linecap="round" stroke-linejoin="round">
    <path fill="none" stroke="#455A64" d="M1467.374 64.02h70.178c3.243 0 6.142 2.024 7.26 5.066 1.12 3.044.224 6.463-2.247 8.563-16.808 14.296-33.616 28.59-50.424 42.89"/>
    <path fill="none" stroke="#D84532" d="M1403.366 50.613c-2.94-5.095-8.372-8.238-14.257-8.25-5.883-.013-11.328 3.107-14.29 8.19-2.964 5.082-3 11.356-.09 16.47 2.907 5.115 8.32 8.294 14.202 8.344"/>
    <path fill="none" stroke="#455A64" d="M1584.474 79.98c13.175 2.958 26.747-2.97 33.53-14.643 6.784-11.674 5.217-26.398-3.875-36.382-9.09-9.982-23.606-12.918-35.86-7.253-12.258 5.665-19.425 18.623-17.71 32.016M1452.216 82.216h41.257"/>
    <circle fill="#F74B16" stroke="#F74B16" cx="99.394" cy="101.785" r="3.612"/>
    <path fill="none" stroke="#73BFBB" d="M789.466 54.32h-16.862V97.18h16.862"/>
    <path fill="none" stroke="#455A64" d="M454.95 48.088V2.378"/>
    <circle fill="none" stroke="#455A64" cx="83.338" cy="85.73" r="8.028"/>
    <path fill="none" stroke="#73BFBB" d="M357.187 103.91h39.09M1121.35 73.18V1.5M1038.125 84.793h71.612M1154.088 108.018h65.968"/>
    <path fill="none" stroke="#E54438" d="M1222.572 77.99h-24.386M1114.546 186.016V161.63"/>
    <path fill="none" stroke="#73BFBB" d="M340.582 83.604h39.09"/>
    <path fill="#4CD8AD" stroke="#4CD8AD" d="M1447.58 121.21h33.52v5.158h-33.52z"/>
    <circle fill="none" stroke="#F27E30" cx="1502.231" cy="82.216" r="6.188"/>
    <path fill="none" stroke="#FFC107" d="M795.43 108.58c5.082 8.085 14.9 11.833 24.076 9.19 9.177-2.645 15.496-11.042 15.496-20.592 0-9.55-6.32-17.947-15.496-20.59-9.176-2.645-18.994 1.102-24.076 9.187"/>
    <path fill="none" stroke="#87A55B" d="M831.717 42.918c-5.082-8.085-14.9-11.832-24.076-9.188s-15.495 11.04-15.495 20.59 6.32 17.947 15.496 20.592c9.177 2.644 18.995-1.103 24.077-9.188"/>
    <path fill="none" stroke="#E54438" d="M1094.253 29.1c-24.802 12.067-38.635 39.08-33.93 66.256 4.702 27.176 26.81 47.967 54.223 50.996v-45.136c0-6.16 2.446-12.067 6.803-16.423 4.354-4.355 10.262-6.803 16.42-6.803h45.138c-2.05-18.555-12.36-35.194-28.062-45.29s-35.12-12.573-52.852-6.74"/>
    <path fill="none" stroke="#455A64" d="M331.68 133.15H544.9M489.346 185.138V2.378"/>
    <circle fill="none" stroke="#FFC107" cx="1434.498" cy="85.352" r="15.472"/>
    <path fill="none" stroke="#FFC107" d="M381.997 48.067l58.034 33.507 21.104 12.184v91.277"/>
    <path fill="none" stroke="#455A64" d="M812.77 140.035H697.578c-1.326 0-2.453.97-2.65 2.283-.195 1.312.6 2.57 1.867 2.957l117.11 35.783c2.436.744 5.08.29 7.128-1.227 2.047-1.514 3.256-3.91 3.256-6.458v-54.767c0-8.525 3.385-16.7 9.413-22.73 6.027-6.027 14.203-9.414 22.73-9.414h20.528c-4.702 27.826-27 49.33-54.978 53.02-27.977 3.69-55.09-11.295-66.847-36.947M1051.673 84.793v50.32c0 5.134 2.04 10.057 5.668 13.686 3.63 3.63 8.555 5.668 13.688 5.668h50.32c26.47 0 50.652-14.997 62.417-38.708M1189.283 100.276c4.71-20.67-.245-42.36-13.466-58.934-13.22-16.573-33.268-26.226-54.468-26.226"/>
  </g>
  <g id="mid" stroke-width="4" stroke-linecap="round" stroke-linejoin="round">
    <path fill="none" stroke="#FFC107" d="M41.66 146.19c20.95 19.862 51.718 25.345 78.242 13.94s43.712-37.5 43.712-66.373c0-28.872-17.188-54.97-43.712-66.374s-57.29-5.92-78.243 13.943"/>
    <path fill="none" stroke="#455A64" d="M427.312 93.758h-89.155"/>
    <path fill="none" stroke="#E54438" d="M438.29 93.758c0 6.068 2.4 11.863 6.69 16.153 4.29 4.292 10.086 6.692 16.154 6.692s11.863-2.4 16.154-6.69 6.69-10.086 6.69-16.154-2.4-11.863-6.69-16.154c-4.29-4.29-10.085-6.69-16.154-6.69-6.068 0-11.863 2.4-16.153 6.69-4.29 4.29-6.69 10.086-6.69 16.154z"/>
    <path fill="none" stroke="#455A64" d="M27.792 157.9c14.44 14.312 33.244 23.317 53.446 25.598 20.203 2.28 40.542-2.31 57.81-13.042 17.265-10.734 30.38-26.942 37.276-46.067 6.896-19.127 7.14-39.977.695-59.26s-19.177-35.793-36.187-46.93C123.823 7.065 103.598 2 83.347 3.805 63.097 5.61 44.087 14.172 29.314 28.14 14.542 42.11 4.932 60.615 2 80.734l57.256-19.085L76.81 79.203"/>
    <circle fill="#87A55B" stroke="#87A55B" cx="462.333" cy="93.692" r="13.993"/>
    <path fill="none" stroke="#455A64" d="M454.95 52.15c-19.012-.582-36.477 10.423-44.158 27.824-7.68 17.402-4.042 37.72 9.2 51.376 13.242 13.654 33.442 17.913 51.07 10.77 17.628-7.145 29.163-24.266 29.163-43.285V52.707M837.68 54.32h42.158c-5.654-17.485-17.992-32.027-34.32-40.456-16.332-8.43-35.333-10.062-52.862-4.542-17.53 5.52-32.165 17.744-40.72 34.01-8.555 16.265-10.334 35.252-4.948 52.824M1191.025 84.793V34.455c0-5.135-2.04-10.06-5.67-13.688s-8.557-5.668-13.69-5.666l-50.34.018c-18.476.006-36.193 7.35-49.255 20.42-13.062 13.067-20.4 30.79-20.396 49.268.003 18.477 7.345 36.195 20.41 49.26 13.066 13.064 30.787 20.403 49.266 20.403M1571.675 67.104l-59.434 50.556-51.608 43.9c1.452 3.983.667 8.44-2.06 11.687-2.728 3.25-6.98 4.795-11.155 4.055-4.177-.742-7.64-3.655-9.082-7.642-1.443-3.988-.65-8.444 2.084-11.684l-54.936-97.08c-1.558-2.75.43-6.16 3.59-6.16h162.733"/>
  </g>
  <g id="thick" fill="none" stroke-width="5" stroke-linecap="round" stroke-linejoin="round">
    <path stroke="#E54438" d="M888.125 113.25c-1.345-7.957-5.615-15.094-11.99-20.04s-14.35-7.31-22.392-6.634c-8.04.675-15.51 4.333-20.97 10.272-5.464 5.94-8.484 13.688-8.484 21.758 0 8.068 3.02 15.817 8.48 21.757s12.932 9.6 20.973 10.273 16.016-1.688 22.39-6.634c6.377-4.946 10.647-12.083 11.992-20.04"/>
    <path stroke="#FF2151" d="M99.394 125.868c6.397 0 12.506-2.53 17.03-7.054 4.522-4.522 7.053-10.633 7.053-17.03s-2.53-12.504-7.053-17.027c-4.523-4.523-10.633-7.054-17.03-7.054-6.396 0-12.505 2.53-17.03 7.053-4.522 4.523-7.053 10.633-7.053 17.03s2.53 12.505 7.054 17.028c4.524 4.524 10.633 7.054 17.03 7.054z"/>
    <path stroke="#FFC107" d="M1144.575 84.793c0-6.17-2.44-12.06-6.803-16.423-4.362-4.362-10.254-6.803-16.423-6.803s-12.062 2.44-16.424 6.803c-4.362 4.36-6.803 10.254-6.803 16.423s2.44 12.06 6.802 16.422 10.255 6.803 16.424 6.803c6.167 0 12.06-2.44 16.42-6.802 4.363-4.362 6.805-10.254 6.805-16.423zM1580.99 53.767l19.44-16.536h28.54c-6.16-18.5-24.83-29.802-44.08-26.682-19.248 3.12-33.392 19.74-33.392 39.24"/>
  </g>
</svg>
