<svg xmlns="http://www.w3.org/2000/svg" width="1295.542" height="17.824" viewBox="0 0 1295.542 17.824">
  <g id="trail-outer">
    <path fill="#FF8400" d="M805.02 3.798c0 .557.394 1.037.94 1.145.13.025.258.02.387.02H808.373c.295 0 .492.022.775-.114.252-.122.45-.33.562-.585.12-.277.098-.48.098-.764 0-.558-.395-1.036-.94-1.144-.13-.025-.26-.023-.388-.023h-2.026c-.295 0-.49-.02-.775.117-.25.12-.452.328-.563.584-.12.278-.096.48-.096.764z"/>
    <linearGradient id="SVGID_1_" gradientUnits="userSpaceOnUse" x1="378.102" y1="8.912" x2="524.375" y2="8.912">
      <stop offset="0" stop-color="#00F8FC"/>
      <stop offset=".35" stop-color="#00EBC7"/>
      <stop offset=".85" stop-color="#00EBC7" stop-opacity="0"/>
    </linearGradient>
    <path fill="url(#SVGID_1_)" d="M524.375 0H387.36c-.415 0-.83.004-1.243.045-.463.047-.914.13-1.365.246-3.922 1.03-6.65 4.567-6.65 8.622s2.73 7.592 6.65 8.62c.45.118.902.2 1.365.247.414.04.828.044 1.242.044H524.375V0z"/>
    <linearGradient id="SVGID_2_" gradientUnits="userSpaceOnUse" x1="768.316" y1="8.913" x2="824.928" y2="8.913">
      <stop offset="0" stop-color="#FF227B"/>
      <stop offset=".497" stop-color="#FF8400"/>
      <stop offset=".79" stop-color="#FF8400"/>
    </linearGradient>
    <path fill="url(#SVGID_2_)" d="M802.076 15.49h8.99c.244 0 .48.016.723-.074.245-.09.454-.262.59-.486.067-.11.114-.225.142-.35.027-.12.03-.236.03-.355 0-.277.01-.45-.122-.715-.115-.236-.31-.426-.547-.54-.264-.124-.438-.112-.715-.112H791.69c-.26 0-.48-.05-.7-.197-.216-.144-.378-.358-.46-.608-.037-.115-.055-.23-.057-.352 0-.12-.004-.244.002-.367.014-.252.107-.492.27-.686.166-.2.395-.338.648-.393.117-.025.236-.027.355-.027H823.603c.276 0 .454 0 .71-.137.232-.125.416-.324.52-.566.116-.264.097-.445.097-.72 0-.26-.053-.478-.2-.696-.15-.217-.364-.377-.614-.457-.244-.075-.48-.054-.725-.054h-28.455c-.277 0-.45.012-.715-.115-.236-.114-.428-.306-.543-.542-.127-.264-.115-.438-.115-.715 0-.12.002-.238.03-.355.028-.125.075-.238.144-.35.14-.223.348-.393.596-.482.24-.088.477-.07.723-.07h5.245c.098 0 .64.004.736-.006.525-.057.945-.455 1.03-.977.02-.12.013-.238.013-.36 0-.118.002-.235-.023-.354-.05-.255-.188-.485-.383-.653-.193-.164-.432-.262-.686-.277-.068-.006-.672-.004-.742-.004h-19.504c-.27 0-.45-.01-.707-.104-.116-.04-.224-.1-.333-.156-.12-.064-.242-.125-.365-.182-.25-.117-.506-.22-.77-.31-.543-.187-1.09-.308-1.66-.37-1.143-.125-2.3.008-3.385.385-3.95 1.374-6.096 5.636-4.846 9.628 1.267 4.04 5.542 6.314 9.6 5.11.276-.085.546-.18.813-.294.373-.158.39-.184.752-.367.23-.115.457-.174.713-.186.125-.003.248 0 .37 0h21.158z"/>
    <linearGradient id="SVGID_3_" gradientUnits="userSpaceOnUse" x1="961.092" y1="8.909" x2="1048.767" y2="8.909">
      <stop offset="0" stop-color="#31EEDD"/>
      <stop offset=".497" stop-color="#FFDC00"/>
      <stop offset=".902" stop-color="#FFDC00" stop-opacity="0"/>
    </linearGradient>
    <path fill="url(#SVGID_3_)" d="M967.668 2.33c-.95.126-1.857.32-2.75.69-.48.197-.92.432-1.336.744-.1.074-.197.154-.29.236-.054.047-.106.094-.157.143-.03.027-.06.057-.086.084-.056.053-.097.115-.142.174-.334.446-.64.903-.91 1.39-.31.555-.56 1.117-.725 1.734-.062.23-.11.46-.14.693-.017.127-.028.256-.034.383-.005.074-.007.148-.01.223 0 .148.028.292.052.437.135.88.338 1.72.697 2.54.2.462.44.892.757 1.29.08.104.166.203.256.3l.162.17c.037.036.377.28.42.31.416.297.844.57 1.297.81.533.282 1.076.51 1.668.655.23.06.463.1.7.125.304.03.608.027.915.027h29.495c.12 0 .353-.117.444-.174.152-.09.28-.2.398-.332.115-.128.207-.265.277-.423.03-.072.058-.145.077-.22.008-.026.006-.233.006-.26 0-.02.004-.042-.002-.063l-.015-.055c-.012-.038-.025-.073-.04-.11-.03-.076-.065-.148-.106-.22-.09-.15-.198-.282-.33-.4-.126-.116-.265-.21-.42-.282-.073-.033-.146-.06-.222-.082-.04-.012-.082-.01-.123-.01h-10.69c-.042 0-.083 0-.124-.012-.035-.012-.072-.023-.107-.037-.076-.03-.15-.062-.22-.104-.153-.088-.286-.193-.407-.322-.117-.126-.213-.263-.29-.42-.032-.07-.06-.142-.083-.218-.027-.086-.016-.168-.016-.252 0-.043-.005-.084.007-.125.01-.037.02-.072.035-.11.027-.073.06-.145.1-.218.084-.152.188-.285.312-.406.125-.118.26-.216.416-.292.07-.037.143-.066.217-.09.037-.012.074-.023.115-.023H1047.59c.02 0 .037-.008.055-.014.037-.01.072-.022.11-.036.315-.123.593-.35.782-.63.094-.136.162-.276.21-.435.026-.088.015-.17.015-.254 0-.043.004-.084-.008-.125-.01-.036-.02-.07-.035-.108-.118-.318-.343-.598-.618-.79-.135-.097-.275-.17-.436-.218l-.053-.018c-.02-.004-.04-.004-.062-.004H990.282c-.02 0-.043.004-.064-.002-.018-.004-.035-.01-.055-.016-.035-.01-.072-.023-.107-.037-.158-.062-.3-.145-.43-.252-.26-.21-.465-.496-.56-.818-.01-.04-.01-.08-.01-.123v-.13c0-.042-.003-.083.01-.124.01-.037.022-.072.036-.11.06-.157.14-.296.244-.43.205-.263.492-.472.812-.57.018-.007.037-.01.055-.017.02-.006.043-.002.064-.002h23.282c.042 0 .08.003.122-.01.037-.01.074-.022.11-.034.157-.06.298-.14.43-.244.265-.205.474-.492.573-.812.006-.018.012-.037.016-.055.007-.02.005-.04.005-.062v-.13c0-.124.004-.122-.04-.24-.056-.157-.134-.298-.233-.43-.203-.27-.486-.48-.81-.587-.034-.012-.07-.025-.11-.025h-45.955z"/>
    <linearGradient id="SVGID_4_" gradientUnits="userSpaceOnUse" x1="574.375" y1="8.913" x2="718.316" y2="8.913">
      <stop offset="0" stop-color="#FFDC00"/>
      <stop offset=".5" stop-color="#F50071"/>
      <stop offset="1" stop-color="#F50071" stop-opacity="0"/>
    </linearGradient>
    <path fill="url(#SVGID_4_)" d="M581.098 15.488c45.74.002 91.48.002 137.218.002V6.092v-2.35-1.176-.146-.072c0-.006.002-.012-.006-.012H580.95c-3.66 0-6.614 2.988-6.575 6.648.02 1.758.74 3.434 2.004 4.656.624.604 1.364 1.078 2.173 1.396.834.327 1.655.462 2.545.452z"/>
    <linearGradient id="SVGID_5_" gradientUnits="userSpaceOnUse" x1="1150.851" y1="8.913" x2="1294.792" y2="8.913">
      <stop offset="0" stop-color="#00F8FC"/>
      <stop offset=".35" stop-color="#00EBC7"/>
      <stop offset=".85" stop-color="#00EBC7" stop-opacity="0"/>
    </linearGradient>
    <path fill="url(#SVGID_5_)" d="M1294.792 17.824V.002h-134.867c-.93 0-1.712.086-2.612.342-3.828 1.094-6.463 4.588-6.463 8.568 0 3.982 2.636 7.475 6.464 8.57.9.256 1.682.342 2.613.342H1294.793z"/>
  </g>
  <g id="trail-inner">
    <linearGradient id="SVGID_6_" gradientUnits="userSpaceOnUse" x1="1152.017" y1="8.926" x2="1208.627" y2="8.926">
      <stop offset="0" stop-color="#FF227B"/>
      <stop offset=".497" stop-color="#FF8400"/>
    </linearGradient>
    <path fill="url(#SVGID_6_)" d="M1185.777 15.502h8.989c.244 0 .48.016.72-.072.25-.092.456-.264.593-.488.066-.11.113-.225.143-.35.025-.12.027-.236.027-.355 0-.277.01-.45-.12-.715-.116-.236-.308-.426-.546-.54-.266-.124-.44-.11-.717-.11h-19.48c-.26 0-.478-.05-.698-.197-.22-.146-.38-.36-.46-.61-.038-.116-.058-.23-.058-.35-.002-.124-.006-.247 0-.368.014-.252.11-.492.27-.688.168-.2.395-.337.648-.394.12-.025.236-.025.355-.025h31.853c.275 0 .455 0 .71-.138.233-.125.417-.324.52-.564.116-.266.097-.445.097-.72 0-.26-.053-.478-.2-.698-.147-.217-.364-.377-.614-.455-.242-.078-.48-.055-.725-.055h-28.454c-.277 0-.45.01-.713-.117-.237-.115-.43-.307-.544-.543-.127-.264-.115-.438-.115-.715 0-.12.005-.236.032-.355.03-.125.076-.238.145-.348.137-.225.348-.395.594-.484.243-.086.48-.068.724-.068h5.244c.098 0 .64.004.738-.008.523-.055.945-.455 1.027-.975.02-.12.016-.24.016-.36s0-.237-.024-.356c-.053-.253-.188-.48-.385-.65-.19-.165-.43-.263-.683-.278-.07-.004-.674-.002-.742-.002h-19.507c-.27 0-.45-.012-.708-.104-.117-.043-.225-.1-.332-.158-.12-.064-.242-.125-.365-.182-.252-.117-.508-.22-.77-.31-.542-.185-1.09-.308-1.66-.368-1.144-.125-2.3.006-3.386.383-3.95 1.376-6.095 5.64-4.845 9.63 1.264 4.04 5.54 6.316 9.598 5.11.275-.083.547-.18.812-.294.375-.158.39-.184.752-.365.23-.114.457-.175.715-.185.123-.006.246-.002.37-.002h21.155z"/>
    <path fill="#FF8400" d="M1188.72 3.81c0 .56.395 1.038.94 1.146.13.025.257.023.388.023h2.024c.297 0 .492.02.775-.118.252-.12.45-.328.562-.584.12-.277.097-.48.097-.764 0-.557-.393-1.037-.94-1.145-.13-.026-.257-.022-.388-.022H1190.154c-.297 0-.492-.02-.775.115-.252.12-.45.328-.562.584-.12.277-.098.478-.098.764z"/>
  </g>
  <g id="trail-thin">
    <path fill="none" stroke="#FFDB02" stroke-width="1.5" stroke-linecap="round" stroke-linejoin="round" d="M452.32 4.527h46.235M398.38 13.297h7.708M413.793 13.297h30.823"/>
    <linearGradient id="SVGID_7_" gradientUnits="userSpaceOnUse" x1="1048.426" y1="14.172" x2="1063.561" y2="14.172">
      <stop offset="0" stop-color="#FF227B"/>
      <stop offset=".497" stop-color="#FF8400"/>
      <stop offset=".902" stop-color="#FF8400" stop-opacity="0"/>
    </linearGradient>
    <path fill="none" stroke="url(#SVGID_7_)" stroke-width="1.5" stroke-linecap="round" stroke-miterlimit="10" d="M1049.176 14.172h13.635"/>
    <linearGradient id="SVGID_8_" gradientUnits="userSpaceOnUse" x1="1049.793" y1="3.646" x2="1064.929" y2="3.646">
      <stop offset="0" stop-color="#FF227B"/>
      <stop offset=".497" stop-color="#FF8400"/>
      <stop offset=".902" stop-color="#FF8400" stop-opacity="0"/>
    </linearGradient>
    <path fill="none" stroke="url(#SVGID_8_)" stroke-width="1.5" stroke-linecap="round" stroke-miterlimit="10" d="M1050.543 3.646h13.636"/>
    <linearGradient id="SVGID_9_" gradientUnits="userSpaceOnUse" x1="1019.797" y1="3.646" x2="1048.567" y2="3.646">
      <stop offset="0" stop-color="#FF227B"/>
      <stop offset=".497" stop-color="#FF8400"/>
      <stop offset=".902" stop-color="#FF8400" stop-opacity="0"/>
    </linearGradient>
    <path fill="none" stroke="url(#SVGID_9_)" stroke-width="1.5" stroke-linecap="round" stroke-miterlimit="10" d="M1020.547 3.646h27.27"/>
    <linearGradient id="SVGID_10_" gradientUnits="userSpaceOnUse" x1="1053.743" y1="8.909" x2="1096.148" y2="8.909">
      <stop offset="0" stop-color="#FF227B"/>
      <stop offset=".497" stop-color="#FF8400"/>
      <stop offset=".902" stop-color="#FF8400" stop-opacity="0"/>
    </linearGradient>
    <path fill="none" stroke="url(#SVGID_10_)" stroke-width="1.5" stroke-linecap="round" stroke-miterlimit="10" d="M1054.493 8.91h40.905"/>
    <linearGradient id="SVGID_11_" gradientUnits="userSpaceOnUse" x1="1097.374" y1="8.909" x2="1101.601" y2="8.909">
      <stop offset="0" stop-color="#FF227B"/>
      <stop offset=".497" stop-color="#FF8400"/>
      <stop offset=".902" stop-color="#FF8400" stop-opacity="0"/>
    </linearGradient>
    <path fill="none" stroke="url(#SVGID_11_)" stroke-width="1.5" stroke-linecap="round" stroke-miterlimit="10" d="M1098.125 8.91h2.726"/>
    <linearGradient id="SVGID_12_" gradientUnits="userSpaceOnUse" x1="1039.143" y1="14.172" x2="1046.098" y2="14.172">
      <stop offset="0" stop-color="#FF227B"/>
      <stop offset=".497" stop-color="#FF8400"/>
      <stop offset=".902" stop-color="#FF8400" stop-opacity="0"/>
    </linearGradient>
    <path fill="none" stroke="url(#SVGID_12_)" stroke-width="1.5" stroke-linecap="round" stroke-miterlimit="10" d="M1039.893 14.172h5.455"/>
    <linearGradient id="SVGID_13_" gradientUnits="userSpaceOnUse" x1="1009.147" y1="14.172" x2="1037.917" y2="14.172">
      <stop offset="0" stop-color="#FF227B"/>
      <stop offset=".497" stop-color="#FF8400"/>
      <stop offset=".902" stop-color="#FF8400" stop-opacity="0"/>
    </linearGradient>
    <path fill="none" stroke="url(#SVGID_13_)" stroke-width="1.5" stroke-linecap="round" stroke-miterlimit="10" d="M1009.897 14.172h27.27"/>
    <linearGradient id="SVGID_14_" gradientUnits="userSpaceOnUse" x1="1003.694" y1="14.172" x2="1007.92" y2="14.172">
      <stop offset="0" stop-color="#FF227B"/>
      <stop offset=".497" stop-color="#FF8400"/>
      <stop offset=".902" stop-color="#FF8400" stop-opacity="0"/>
    </linearGradient>
    <path fill="none" stroke="url(#SVGID_14_)" stroke-width="1.5" stroke-linecap="round" stroke-miterlimit="10" d="M1004.444 14.172h2.726"/>
    <linearGradient id="SVGID_15_" gradientUnits="userSpaceOnUse" x1="699.453" y1="4.527" x2="708.658" y2="4.527">
      <stop offset="0" stop-color="#FFDB02"/>
      <stop offset=".497" stop-color="#FFDB02"/>
      <stop offset=".902" stop-color="#FFDB02" stop-opacity="0"/>
    </linearGradient>
    <path fill="none" stroke="url(#SVGID_15_)" stroke-width="1.5" stroke-linecap="round" stroke-linejoin="round" d="M700.203 4.527h7.705"/>
    <linearGradient id="SVGID_16_" gradientUnits="userSpaceOnUse" x1="668.627" y1="13.297" x2="700.953" y2="13.297">
      <stop offset="0" stop-color="#FFDB02"/>
      <stop offset=".497" stop-color="#FFDB02"/>
      <stop offset=".902" stop-color="#FFDB02" stop-opacity="0"/>
    </linearGradient>
    <path fill="none" stroke="url(#SVGID_16_)" stroke-width="1.5" stroke-linecap="round" stroke-linejoin="round" d="M669.377 13.297h30.826"/>
    <linearGradient id="SVGID_17_" gradientUnits="userSpaceOnUse" x1="645.51" y1="13.297" x2="662.422" y2="13.297">
      <stop offset="0" stop-color="#FFDB02"/>
      <stop offset=".497" stop-color="#FFDB02"/>
      <stop offset=".902" stop-color="#FFDB02" stop-opacity="0"/>
    </linearGradient>
    <path fill="none" stroke="url(#SVGID_17_)" stroke-width="1.5" stroke-linecap="round" stroke-linejoin="round" d="M646.26 13.297h15.412"/>
    <linearGradient id="SVGID_18_" gradientUnits="userSpaceOnUse" x1="606.983" y1="13.297" x2="639.305" y2="13.297">
      <stop offset="0" stop-color="#FFDB02"/>
      <stop offset=".497" stop-color="#FFDB02"/>
      <stop offset=".902" stop-color="#FFDB02" stop-opacity="0"/>
    </linearGradient>
    <path fill="none" stroke="url(#SVGID_18_)" stroke-width="1.5" stroke-linecap="round" stroke-linejoin="round" d="M607.733 13.297h30.822"/>
    <linearGradient id="SVGID_19_" gradientUnits="userSpaceOnUse" x1="591.571" y1="13.297" x2="600.778" y2="13.297">
      <stop offset="0" stop-color="#FFDB02"/>
      <stop offset=".497" stop-color="#FFDB02"/>
      <stop offset=".902" stop-color="#FFDB02" stop-opacity="0"/>
    </linearGradient>
    <path fill="none" stroke="url(#SVGID_19_)" stroke-width="1.5" stroke-linecap="round" stroke-linejoin="round" d="M592.32 13.297h7.708"/>
    <linearGradient id="SVGID_20_" gradientUnits="userSpaceOnUse" x1="645.51" y1="4.527" x2="693.246" y2="4.527">
      <stop offset="0" stop-color="#FFDB02"/>
      <stop offset=".497" stop-color="#FFDB02"/>
      <stop offset=".902" stop-color="#FFDB02" stop-opacity="0"/>
    </linearGradient>
    <path fill="none" stroke="url(#SVGID_20_)" stroke-width="1.5" stroke-linecap="round" stroke-linejoin="round" d="M646.26 4.527h46.236"/>
    <linearGradient id="SVGID_21_" gradientUnits="userSpaceOnUse" x1="614.688" y1="4.527" x2="639.305" y2="4.527">
      <stop offset="0" stop-color="#FFDB02"/>
      <stop offset=".497" stop-color="#FFDB02"/>
      <stop offset=".902" stop-color="#FFDB02" stop-opacity="0"/>
    </linearGradient>
    <path fill="none" stroke="url(#SVGID_21_)" stroke-width="1.5" stroke-linecap="round" stroke-linejoin="round" d="M615.438 4.527h23.117"/>
    <linearGradient id="SVGID_22_" gradientUnits="userSpaceOnUse" x1="591.571" y1="4.527" x2="608.483" y2="4.527">
      <stop offset="0" stop-color="#FFDB02"/>
      <stop offset=".497" stop-color="#FFDB02"/>
      <stop offset=".902" stop-color="#FFDB02" stop-opacity="0"/>
    </linearGradient>
    <path fill="none" stroke="url(#SVGID_22_)" stroke-width="1.5" stroke-linecap="round" stroke-linejoin="round" d="M592.32 4.527h15.413"/>
    <linearGradient id="SVGID_23_" gradientUnits="userSpaceOnUse" x1="676.335" y1="8.912" x2="685.54" y2="8.912">
      <stop offset="0" stop-color="#FFDB02"/>
      <stop offset=".497" stop-color="#FFDB02"/>
      <stop offset=".902" stop-color="#FFDB02" stop-opacity="0"/>
    </linearGradient>
    <path fill="none" stroke="url(#SVGID_23_)" stroke-width="1.5" stroke-linecap="round" stroke-linejoin="round" d="M677.085 8.912h7.706"/>
    <linearGradient id="SVGID_24_" gradientUnits="userSpaceOnUse" x1="622.393" y1="8.912" x2="670.127" y2="8.912">
      <stop offset="0" stop-color="#FFDB02"/>
      <stop offset=".497" stop-color="#FFDB02"/>
      <stop offset=".902" stop-color="#FFDB02" stop-opacity="0"/>
    </linearGradient>
    <path fill="none" stroke="url(#SVGID_24_)" stroke-width="1.5" stroke-linecap="round" stroke-linejoin="round" d="M623.143 8.912h46.234"/>
    <linearGradient id="SVGID_25_" gradientUnits="userSpaceOnUse" x1="599.278" y1="8.912" x2="616.188" y2="8.912">
      <stop offset="0" stop-color="#FFDB02"/>
      <stop offset=".497" stop-color="#FFDB02"/>
      <stop offset=".902" stop-color="#FFDB02" stop-opacity="0"/>
    </linearGradient>
    <path fill="none" stroke="url(#SVGID_25_)" stroke-width="1.5" stroke-linecap="round" stroke-linejoin="round" d="M600.028 8.912h15.41"/>
    <linearGradient id="SVGID_26_" gradientUnits="userSpaceOnUse" x1="850.794" y1="8.912" x2="898.53" y2="8.912">
      <stop offset="0" stop-color="#00F8FC"/>
      <stop offset=".497" stop-color="#00EBC7"/>
      <stop offset=".902" stop-color="#00EBC7" stop-opacity="0"/>
    </linearGradient>
    <path fill="none" stroke="url(#SVGID_26_)" stroke-width="1.5" stroke-linecap="round" stroke-linejoin="round" d="M851.544 8.912h46.236"/>
    <linearGradient id="SVGID_27_" gradientUnits="userSpaceOnUse" x1="827.679" y1="8.912" x2="844.589" y2="8.912">
      <stop offset="0" stop-color="#00F8FC"/>
      <stop offset=".497" stop-color="#00EBC7"/>
      <stop offset=".902" stop-color="#00EBC7" stop-opacity="0"/>
    </linearGradient>
    <path fill="none" stroke="url(#SVGID_27_)" stroke-width="1.5" stroke-linecap="round" stroke-linejoin="round" d="M828.43 8.912h15.41"/>
    <linearGradient id="SVGID_28_" gradientUnits="userSpaceOnUse" x1="815.3" y1="14.173" x2="824.507" y2="14.173">
      <stop offset="0" stop-color="#00F8FC"/>
      <stop offset=".497" stop-color="#00EBC7"/>
      <stop offset=".902" stop-color="#00EBC7" stop-opacity="0"/>
    </linearGradient>
    <path fill="none" stroke="url(#SVGID_28_)" stroke-width="1.5" stroke-linecap="round" stroke-linejoin="round" d="M816.05 14.173h7.707"/>
    <linearGradient id="SVGID_29_" gradientUnits="userSpaceOnUse" x1="830.712" y1="14.173" x2="863.035" y2="14.173">
      <stop offset="0" stop-color="#00F8FC"/>
      <stop offset=".497" stop-color="#00EBC7"/>
      <stop offset=".902" stop-color="#00EBC7" stop-opacity="0"/>
    </linearGradient>
    <path fill="none" stroke="url(#SVGID_29_)" stroke-width="1.5" stroke-linecap="round" stroke-linejoin="round" d="M831.462 14.173h30.823"/>
    <linearGradient id="SVGID_30_" gradientUnits="userSpaceOnUse" x1="869.242" y1="14.173" x2="886.153" y2="14.173">
      <stop offset="0" stop-color="#00F8FC"/>
      <stop offset=".497" stop-color="#00EBC7"/>
      <stop offset=".902" stop-color="#00EBC7" stop-opacity="0"/>
    </linearGradient>
    <path fill="none" stroke="url(#SVGID_30_)" stroke-width="1.5" stroke-linecap="round" stroke-linejoin="round" d="M869.992 14.173h15.41"/>
    <linearGradient id="SVGID_31_" gradientUnits="userSpaceOnUse" x1="835.675" y1="3.65" x2="860.293" y2="3.65">
      <stop offset="0" stop-color="#00F8FC"/>
      <stop offset=".497" stop-color="#00EBC7"/>
      <stop offset=".902" stop-color="#00EBC7" stop-opacity="0"/>
    </linearGradient>
    <path fill="none" stroke="url(#SVGID_31_)" stroke-width="1.5" stroke-linecap="round" stroke-linejoin="round" d="M836.425 3.65h23.117"/>
    <linearGradient id="SVGID_32_" gradientUnits="userSpaceOnUse" x1="812.558" y1="3.65" x2="829.47" y2="3.65">
      <stop offset="0" stop-color="#00F8FC"/>
      <stop offset=".497" stop-color="#00EBC7"/>
      <stop offset=".902" stop-color="#00EBC7" stop-opacity="0"/>
    </linearGradient>
    <path fill="none" stroke="url(#SVGID_32_)" stroke-width="1.5" stroke-linecap="round" stroke-linejoin="round" d="M813.308 3.65h15.412"/>
    <linearGradient id="SVGID_33_" gradientUnits="userSpaceOnUse" x1="892.358" y1="14.173" x2="911.842" y2="14.173">
      <stop offset="0" stop-color="#00F8FC"/>
      <stop offset=".497" stop-color="#00EBC7"/>
      <stop offset=".902" stop-color="#00EBC7" stop-opacity="0"/>
    </linearGradient>
    <path fill="none" stroke="url(#SVGID_33_)" stroke-width="1.5" stroke-linecap="round" stroke-linejoin="round" d="M893.108 14.173h17.984"/>
    <linearGradient id="SVGID_34_" gradientUnits="userSpaceOnUse" x1="866.5" y1="3.65" x2="905.264" y2="3.65">
      <stop offset="0" stop-color="#00F8FC"/>
      <stop offset=".497" stop-color="#00EBC7"/>
      <stop offset=".902" stop-color="#00EBC7" stop-opacity="0"/>
    </linearGradient>
    <path fill="none" stroke="url(#SVGID_34_)" stroke-width="1.5" stroke-linecap="round" stroke-linejoin="round" d="M867.25 3.65h37.264"/>
    <linearGradient id="SVGID_35_" gradientUnits="userSpaceOnUse" x1="1067.023" y1="3.646" x2="1095.793" y2="3.646">
      <stop offset="0" stop-color="#FF227B"/>
      <stop offset=".497" stop-color="#FF8400"/>
      <stop offset=".902" stop-color="#FF8400" stop-opacity="0"/>
    </linearGradient>
    <path fill="none" stroke="url(#SVGID_35_)" stroke-width="1.5" stroke-linecap="round" stroke-miterlimit="10" d="M1067.773 3.646h27.27"/>
    <path fill="none" stroke="#00FFBC" stroke-width="1.5" stroke-linecap="round" stroke-linejoin="round" d="M103.71 2.336h15.41"/>
    <path fill="none" stroke="#FFDB02" stroke-width="1.5" stroke-linecap="round" stroke-linejoin="round" d="M96.002 11.105h46.235"/>
    <path fill="none" stroke="#F203FF" stroke-width="1.5" stroke-linecap="round" stroke-linejoin="round" d="M111.415 6.72h15.412"/>
    <path fill="none" stroke="#0F0" stroke-width="1.5" stroke-linecap="round" stroke-linejoin="round" d="M119.12 15.49h15.412"/>
    <path fill="none" stroke="#00FFBC" stroke-width="1.5" stroke-linecap="round" stroke-linejoin="round" d="M88.297 15.49h23.118"/>
    <path fill="none" stroke="#F203FF" stroke-width="1.5" stroke-linecap="round" stroke-linejoin="round" d="M42.062 15.49h38.53"/>
    <path fill="none" stroke="#0F0" stroke-width="1.5" stroke-linecap="round" stroke-linejoin="round" d="M72.885 11.105h15.412"/>
    <path fill="none" stroke="#00EDFF" stroke-width="1.5" stroke-linecap="round" stroke-linejoin="round" d="M26.652 11.105H65.18"/>
    <path fill="none" stroke="#FF3000" stroke-width="1.5" stroke-linecap="round" stroke-linejoin="round" d="M18.945 15.49h15.412"/>
    <path fill="none" stroke="#FFDB02" stroke-width="1.5" stroke-linecap="round" stroke-linejoin="round" d="M80.592 2.336h15.41"/>
    <path fill="none" stroke="#0F0" stroke-width="1.5" stroke-linecap="round" stroke-linejoin="round" d="M42.062 2.336h30.823"/>
    <linearGradient id="SVGID_36_" gradientUnits="userSpaceOnUse" x1="18.195" y1="2.336" x2="35.107" y2="2.336">
      <stop offset=".003" stop-color="#F0F"/>
      <stop offset=".5" stop-color="#FA4DFF"/>
      <stop offset="1" stop-color="#F0F"/>
    </linearGradient>
    <path fill="none" stroke="url(#SVGID_36_)" stroke-width="1.5" stroke-linecap="round" stroke-linejoin="round" d="M18.945 2.336h15.412"/>
    <path fill="none" stroke="#FF3000" stroke-width="1.5" stroke-linecap="round" stroke-linejoin="round" d="M65.18 6.72h38.53"/>
    <path fill="none" stroke="#FFDB02" stroke-width="1.5" stroke-linecap="round" stroke-linejoin="round" d="M34.357 6.72h23.118M217.888 8.912h15.41"/>
    <path fill="none" stroke="#FF3000" stroke-width="1.5" stroke-linecap="round" stroke-linejoin="round" d="M241.003 8.912h46.235"/>
    <path fill="none" stroke="#00EDFF" stroke-width="1.5" stroke-linecap="round" stroke-linejoin="round" d="M294.945 8.912h7.705"/>
    <linearGradient id="SVGID_37_" gradientUnits="userSpaceOnUse" x1="209.431" y1="4.527" x2="226.343" y2="4.527">
      <stop offset=".003" stop-color="#F0F"/>
      <stop offset=".5" stop-color="#FA4DFF"/>
      <stop offset="1" stop-color="#F0F"/>
    </linearGradient>
    <path fill="none" stroke="url(#SVGID_37_)" stroke-width="1.5" stroke-linecap="round" stroke-linejoin="round" d="M210.18 4.527h15.413"/>
    <path fill="none" stroke="#0F0" stroke-width="1.5" stroke-linecap="round" stroke-linejoin="round" d="M233.298 4.527h23.118"/>
    <path fill="none" stroke="#FFDB02" stroke-width="1.5" stroke-linecap="round" stroke-linejoin="round" d="M264.12 4.527h46.235"/>
    <path fill="none" stroke="#0F0" stroke-width="1.5" stroke-linecap="round" stroke-linejoin="round" d="M210.18 13.297h7.708"/>
    <path fill="none" stroke="#00EDFF" stroke-width="1.5" stroke-linecap="round" stroke-linejoin="round" d="M225.593 13.297h30.823"/>
    <path fill="none" stroke="#00FFBC" stroke-width="1.5" stroke-linecap="round" stroke-linejoin="round" d="M264.12 13.297h15.413"/>
    <path fill="none" stroke="#F203FF" stroke-width="1.5" stroke-linecap="round" stroke-linejoin="round" d="M287.238 13.297h30.824"/>
    <path fill="none" stroke="#00FFBC" stroke-width="1.5" stroke-linecap="round" stroke-linejoin="round" d="M318.062 4.527h7.706"/>
    <path fill="none" stroke="#FFDB02" stroke-width="1.5" stroke-linecap="round" stroke-linejoin="round" d="M406.088 8.912h15.41M429.204 8.912h46.234M483.145 8.912h7.705M398.38 4.527h15.413M421.5 4.527h23.116"/>
    <path fill="none" stroke="#FFDB02" stroke-width="1.5" stroke-linecap="round" stroke-miterlimit="10" d="M1220.126 3.662h23.118M1253.69 14.186h15.412M1215.162 14.186h30.824M1199.75 14.186h7.707M1212.128 8.924h15.41M1235.246 8.924h46.235"/>
    <path fill="none" stroke="#FFDB02" stroke-width="1.5" stroke-linecap="round" stroke-linejoin="round" d="M452.32 13.297h15.413M475.438 13.297h30.824M506.262 4.527h7.705"/>
    <path fill="none" stroke="#FFDB02" stroke-width="1.5" stroke-linecap="round" stroke-miterlimit="10" d="M1250.95 3.662h37.265M1276.81 14.186h17.982M1197.01 3.662h15.41"/>
  </g>
  <g id="comet">
    <circle fill="#F50071" stroke="#FFDB02" stroke-width="2" stroke-miterlimit="10" cx="387.012" cy="8.912" r="6.578"/>
    <linearGradient id="SVGID_38_" gradientUnits="userSpaceOnUse" x1="768.724" y1="8.909" x2="783.378" y2="8.909">
      <stop offset=".001" stop-color="#00FFBC"/>
      <stop offset=".5" stop-color="#5FFFD1"/>
      <stop offset="1" stop-color="#00FFBC"/>
    </linearGradient>
    <circle fill="#FFDB02" stroke="url(#SVGID_38_)" stroke-width="1.5" stroke-miterlimit="10" cx="776.05" cy="8.909" r="6.577"/>
    <circle fill="#FFDB02" stroke="#0DFFE1" stroke-width="1.5" stroke-linecap="round" stroke-linejoin="round" cx="580.952" cy="8.913" r="6.577"/>
    <linearGradient id="SVGID_39_" gradientUnits="userSpaceOnUse" x1="1154.158" y1="8.913" x2="1165.367" y2="8.913">
      <stop offset=".001" stop-color="#00FFBC"/>
      <stop offset=".5" stop-color="#5FFFD1"/>
      <stop offset="1" stop-color="#00FFBC"/>
    </linearGradient>
    <circle fill="#FFDB02" stroke="url(#SVGID_39_)" stroke-width="1.5" stroke-miterlimit="10" cx="1159.763" cy="8.913" r="4.854"/>
    <circle fill="#FFDB02" stroke="#0DFFE1" stroke-width="2" stroke-linecap="round" stroke-linejoin="round" cx="7.576" cy="8.913" r="6.577"/>
    <circle fill="#FF1957" stroke="#FFDB02" stroke-width="1.5" stroke-miterlimit="10" cx="198.812" cy="8.913" r="6.577"/>
  </g>
</svg>
