<svg xmlns="http://www.w3.org/2000/svg" width="1170.962" height="17.824" viewBox="0 0 1170.962 17.824">
  <g id="trail-outer">
    <linearGradient id="SVGID_1_" gradientUnits="userSpaceOnUse" x1="505.207" y1="11.075" x2="646.81" y2="11.075">
      <stop offset="0" stop-color="#31EEDD"/>
      <stop offset=".497" stop-color="#FFDC00"/>
      <stop offset=".902" stop-color="#FFDC00" stop-opacity="0"/>
    </linearGradient>
    <path fill="url(#SVGID_1_)" d="M505.21 9.14c.082 1.307.762 2.506 1.846 3.244.54.37 1.156.607 1.803.697.353.05.704.042 1.058.042H646.81l-1.166-1.166H508.537c-.17 0-.34.002-.508-.012-.302-.023-.583-.09-.864-.2-1.133-.438-1.9-1.505-1.96-2.718 0 .037.002.075.004.114z"/>
    <linearGradient id="SVGID_2_" gradientUnits="userSpaceOnUse" x1="853.083" y1="8.912" x2="997.023" y2="8.912">
      <stop offset="0" stop-color="#00F8FC"/>
      <stop offset=".497" stop-color="#00EBC7"/>
      <stop offset=".902" stop-color="#00EBC7" stop-opacity="0"/>
    </linearGradient>
    <path fill="url(#SVGID_2_)" d="M997.023 6.72V15.482c0 .008-.006.006-.012.006H868.81c-.174 0-.344 0-.516.038-.174.035-.334.096-.488.182-.172.094-.316.223-.473.338-.757.568-1.556.99-2.452 1.297-1.818.62-3.79.64-5.62.05-3.68-1.19-6.175-4.614-6.175-8.48 0-3.87 2.494-7.296 6.176-8.483 1.83-.59 3.8-.572 5.618.05.896.308 1.695.73 2.453 1.296.157.117.302.244.474.34.154.086.314.145.488.182.172.037.342.037.516.037h128.204c.007 0 .013-.002.013.006v4.375z"/>
    <linearGradient id="SVGID_3_" gradientUnits="userSpaceOnUse" x1="505.216" y1="12.362" x2="649.144" y2="12.362">
      <stop offset="0" stop-color="#00F8FC"/>
      <stop offset=".497" stop-color="#00EBC7"/>
      <stop offset=".902" stop-color="#00EBC7" stop-opacity="0"/>
    </linearGradient>
    <path fill="url(#SVGID_3_)" d="M505.216 9.27c.19 3.224 2.695 5.833 5.91 6.153.363.037.725.033 1.088.033h136.929l-1.166-1.166H510.728c-.346 0-.688-.02-1.03-.078s-.67-.148-.993-.27c-.66-.25-1.22-.595-1.742-1.07-1.02-.934-1.644-2.223-1.746-3.603z"/>
    <linearGradient id="SVGID_4_" gradientUnits="userSpaceOnUse" x1="331.264" y1="8.912" x2="475.204" y2="8.912">
      <stop offset="0" stop-color="#00F8FC"/>
      <stop offset=".497" stop-color="#00EBC7"/>
      <stop offset=".902" stop-color="#00EBC7" stop-opacity="0"/>
    </linearGradient>
    <path fill="url(#SVGID_4_)" d="M475.204 2.335h-137.31c-.36 0-.714.023-1.07.08-3.202.5-5.56 3.256-5.56 6.498 0 3.24 2.357 5.996 5.56 6.498.356.056.71.08 1.07.08H475.205v-1.167H338.28c-.35 0-.7.006-1.052-.035-2.733-.31-4.8-2.623-4.8-5.375s2.066-5.064 4.8-5.375c.352-.04.7-.035 1.052-.035h136.924V2.335z"/>
    <linearGradient id="SVGID_5_" gradientUnits="userSpaceOnUse" x1="505.216" y1="5.396" x2="649.144" y2="5.396">
      <stop offset="0" stop-color="#00F8FC"/>
      <stop offset=".497" stop-color="#00EBC7"/>
      <stop offset=".902" stop-color="#00EBC7" stop-opacity="0"/>
    </linearGradient>
    <path fill="url(#SVGID_5_)" d="M649.144 2.302H512.215c-.363 0-.725-.004-1.088.033-3.215.32-5.72 2.93-5.91 6.154.102-1.382.727-2.67 1.746-3.603.52-.477 1.082-.822 1.742-1.07.324-.123.652-.213.994-.27s.683-.08 1.028-.08H647.98c.39-.388.777-.777 1.166-1.165z"/>
    <linearGradient id="SVGID_6_" gradientUnits="userSpaceOnUse" x1="174.69" y1="8.912" x2="318.631" y2="8.912">
      <stop offset="0" stop-color="#00F8FC"/>
      <stop offset=".497" stop-color="#00EBC7"/>
      <stop offset=".902" stop-color="#00EBC7" stop-opacity="0"/>
    </linearGradient>
    <path fill="url(#SVGID_6_)" d="M181.267 2.335c-3.66 0-6.617 2.988-6.576 6.648.02 1.758.74 3.434 2.005 4.656.625.603 1.363 1.077 2.174 1.395.833.326 1.653.46 2.544.45 45.738.003 91.48.003 137.218.003v-8.28-4.142-.518-.13-.065c0-.02.002-.02-.02-.02H181.41c-.048.002-.097.002-.146.002z"/>
    <linearGradient id="SVGID_7_" gradientUnits="userSpaceOnUse" x1=".75" y1="8.912" x2="144.69" y2="8.912">
      <stop offset="0" stop-color="#FFDC00"/>
      <stop offset=".5" stop-color="#F50071"/>
      <stop offset="1" stop-color="#F50071" stop-opacity="0"/>
    </linearGradient>
    <path fill="url(#SVGID_7_)" d="M7.326 2.335H144.662c.008 0 .03-.006.03.006V15.477c0 .005 0 .012-.007.012H79.406c-23.98 0-47.955 0-71.934-.002h-.146C3.693 15.49.75 12.545.75 8.913c0-3.633 2.943-6.577 6.576-6.577z"/>
    <linearGradient id="SVGID_8_" gradientUnits="userSpaceOnUse" x1="679.144" y1="8.912" x2="823.083" y2="8.912">
      <stop offset="0" stop-color="#00F8FC"/>
      <stop offset=".497" stop-color="#00EBC7"/>
      <stop offset=".902" stop-color="#00EBC7" stop-opacity="0"/>
    </linearGradient>
    <path fill="url(#SVGID_8_)" d="M823.083 0H688.22c-.932 0-1.713.086-2.613.342-3.828 1.094-6.463 4.586-6.463 8.568s2.635 7.475 6.463 8.568c.9.258 1.682.344 2.613.344h134.863V0z"/>
    <linearGradient id="SVGID_9_" gradientUnits="userSpaceOnUse" x1="1027.023" y1="8.912" x2="1170.962" y2="8.912">
      <stop offset="0" stop-color="#00F8FC"/>
      <stop offset=".497" stop-color="#00EBC7"/>
      <stop offset=".902" stop-color="#00EBC7" stop-opacity="0"/>
    </linearGradient>
    <path fill="url(#SVGID_9_)" d="M1170.962 17.824V0H1036.097c-.93 0-1.712.086-2.612.344-3.828 1.094-6.463 4.586-6.463 8.568s2.635 7.475 6.463 8.568c.9.258 1.682.344 2.613.344h134.864z"/>
  </g>
  <g id="trail-inner">
    <linearGradient id="SVGID_10_" gradientUnits="userSpaceOnUse" x1="505.205" y1="11.585" x2="647.978" y2="11.585">
      <stop offset="0" stop-color="#FF227B"/>
      <stop offset=".497" stop-color="#FF8400"/>
      <stop offset=".902" stop-color="#FF8400" stop-opacity="0"/>
    </linearGradient>
    <path fill="url(#SVGID_10_)" d="M505.205 8.88c0 2.895 2.277 5.275 5.17 5.404.19.008.38.006.568.006H647.98l-1.17-1.168H509.627c-.172 0-.346 0-.518-.014-.163-.012-.32-.035-.48-.066-.644-.125-1.25-.4-1.77-.8-1.044-.804-1.655-2.046-1.655-3.362z"/>
    <linearGradient id="SVGID_11_" gradientUnits="userSpaceOnUse" x1="855.418" y1="8.912" x2="997.023" y2="8.912">
      <stop offset="0" stop-color="#FFDC00"/>
      <stop offset=".25" stop-color="#FFDC00"/>
      <stop offset=".75" stop-color="#FFDC00" stop-opacity="0"/>
    </linearGradient>
    <path fill="url(#SVGID_11_)" d="M997.023 6.72H869.548c-.19 0-.375.003-.564-.034-.193-.04-.37-.107-.54-.207-.173-.103-.317-.224-.446-.374-.12-.143-.205-.305-.297-.465-.183-.32-.39-.62-.626-.905-.506-.615-1.074-1.102-1.762-1.502-1.354-.79-2.943-1.072-4.484-.793-3.133.564-5.41 3.29-5.41 6.473 0 3.182 2.277 5.908 5.41 6.473 1.54.277 3.13-.004 4.484-.793.688-.402 1.256-.887 1.762-1.502.236-.284.443-.585.627-.905.093-.16.177-.322.298-.465.13-.15.273-.27.445-.373s.348-.168.54-.207c.19-.037.376-.035.565-.035H997.023V6.72z"/>
    <linearGradient id="SVGID_12_" gradientUnits="userSpaceOnUse" x1="1029.357" y1="8.913" x2="1117.032" y2="8.913">
      <stop offset="0" stop-color="#FF227B"/>
      <stop offset=".497" stop-color="#FF8400"/>
      <stop offset=".902" stop-color="#FF8400" stop-opacity="0"/>
    </linearGradient>
    <path fill="url(#SVGID_12_)" d="M1035.933 2.336c-.95.123-1.857.32-2.75.688-.48.197-.92.434-1.336.744-.1.076-.195.154-.29.236-.054.047-.106.096-.157.145-.03.026-.06.054-.086.08-.055.056-.096.116-.14.177-.335.443-.64.902-.91 1.39-.31.552-.56 1.116-.726 1.73-.062.23-.11.46-.14.696-.017.127-.028.254-.034.383-.004.074-.006.148-.008.223-.002.147.027.29.05.435.136.88.34 1.717.698 2.537.2.465.44.893.758 1.29.082.105.166.204.256.302.053.057.107.113.162.168.037.04.377.28.42.312.416.297.844.568 1.297.81.533.282 1.076.51 1.668.655.23.056.463.097.7.122.304.033.608.03.915.03h29.495c.12 0 .353-.12.444-.175.15-.092.28-.2.397-.332.115-.13.207-.268.277-.426.03-.07.06-.144.078-.22.008-.025.006-.234.006-.26 0-.02.004-.04-.002-.062l-.016-.055c-.012-.037-.025-.074-.04-.11-.03-.075-.065-.147-.106-.218-.09-.152-.197-.283-.328-.402-.127-.117-.266-.21-.422-.283-.072-.033-.145-.06-.22-.082-.042-.012-.083-.008-.124-.008h-10.689c-.04 0-.082 0-.123-.012-.035-.012-.072-.023-.107-.037-.076-.028-.15-.063-.22-.104-.153-.086-.286-.19-.407-.32-.117-.127-.213-.264-.29-.42-.032-.072-.06-.145-.083-.22-.027-.085-.016-.167-.016-.253 0-.04-.004-.082.008-.125.01-.035.02-.072.035-.107.027-.075.06-.147.1-.218.084-.152.188-.285.312-.406.124-.12.26-.217.415-.295.07-.034.143-.063.217-.09.037-.01.074-.02.115-.02H1115.855c.02 0 .037-.01.055-.014.037-.012.072-.023.11-.04.315-.12.593-.35.782-.628.094-.135.162-.277.21-.436.026-.084.015-.166.015-.252 0-.04.004-.082-.008-.125-.01-.035-.022-.072-.036-.107-.117-.318-.342-.598-.617-.79-.135-.097-.275-.17-.434-.22l-.055-.016c-.02-.006-.04-.004-.062-.004h-57.267c-.02 0-.043.004-.064-.002l-.055-.016c-.035-.012-.072-.023-.107-.037-.157-.062-.298-.146-.43-.252-.26-.208-.464-.497-.558-.817-.012-.04-.012-.082-.012-.123v-.13s-.002-.083.01-.124c.012-.037.023-.074.037-.11.06-.157.14-.298.244-.43.206-.263.493-.472.813-.57.018-.007.037-.013.055-.017.02-.007.043-.003.064-.003h23.282c.043 0 .082.002.125-.01.034-.012.07-.023.106-.037.158-.06.3-.14.432-.244.264-.205.473-.49.572-.812.006-.018.012-.035.016-.053.006-.02.004-.042.004-.06v-.134c0-.12.004-.12-.04-.236-.056-.158-.134-.3-.233-.432-.203-.268-.486-.482-.81-.586-.034-.014-.07-.025-.11-.025h-45.955z"/>
    <linearGradient id="SVGID_13_" gradientUnits="userSpaceOnUse" x1="176.622" y1="8.912" x2="301.264" y2="8.912">
      <stop offset="0" stop-color="#FF227B"/>
      <stop offset=".497" stop-color="#FF8400"/>
      <stop offset=".902" stop-color="#FF8400" stop-opacity="0"/>
    </linearGradient>
    <path fill="url(#SVGID_13_)" d="M181.37 13.556l62.27.002h57.606c.008 0 .02.006.02-.008v-.04-.08-.647-1.29-2.58-2.58V5.04v-.644-.082-.04s-.012-.007-.02-.007H181.27c-2.585 0-4.673 2.11-4.645 4.695.014 1.242.523 2.426 1.416 3.29.907.876 2.08 1.317 3.333 1.304z"/>
  </g>
  <g id="multi-trails">
    <g id="trail-x1">
      <linearGradient id="SVGID_14_" gradientUnits="userSpaceOnUse" x1="505.205" y1="6.173" x2="647.978" y2="6.173">
        <stop offset="0" stop-color="#FF227B"/>
        <stop offset=".497" stop-color="#FF8400"/>
        <stop offset=".902" stop-color="#FF8400" stop-opacity="0"/>
      </linearGradient>
      <path fill="url(#SVGID_14_)" d="M647.978 3.468H510.942c-.19 0-.38-.002-.568.006-2.893.13-5.17 2.512-5.17 5.406 0-1.318.61-2.56 1.654-3.363.52-.4 1.127-.676 1.77-.8.16-.032.318-.054.48-.067.172-.014.346-.014.518-.014H646.81l1.168-1.168z"/>
      <linearGradient id="SVGID_15_" gradientUnits="userSpaceOnUse" x1="332.43" y1="8.913" x2="475.204" y2="8.913">
        <stop offset="0" stop-color="#FF227B"/>
        <stop offset=".497" stop-color="#FF8400"/>
        <stop offset=".902" stop-color="#FF8400" stop-opacity="0"/>
      </linearGradient>
      <path fill="url(#SVGID_15_)" d="M475.204 13.155H338.21c-.18 0-.36.004-.54-.002-.312-.014-.612-.06-.913-.137-.604-.16-1.166-.45-1.645-.854-.96-.807-1.516-1.996-1.516-3.25s.555-2.445 1.516-3.25c.48-.402 1.04-.693 1.645-.854.3-.078.602-.125.913-.137.18-.007.36-.003.54-.003h136.993V3.5H338.28c-.35 0-.7-.005-1.052.036-2.733.31-4.8 2.623-4.8 5.375s2.066 5.065 4.8 5.376c.352.04.7.035 1.052.035h136.924v-1.165z"/>
    </g>
    <g id="trail-x2">
      <linearGradient id="SVGID_16_" gradientUnits="userSpaceOnUse" x1="333.598" y1="8.912" x2="475.204" y2="8.912">
        <stop offset="0" stop-color="#31EEDD"/>
        <stop offset=".497" stop-color="#FFDC00"/>
        <stop offset=".902" stop-color="#FFDC00" stop-opacity="0"/>
      </linearGradient>
      <path fill="url(#SVGID_16_)" d="M475.204 11.99H338.183c-.312 0-.62.003-.932-.058-.283-.057-.547-.146-.806-.277-1.03-.525-1.682-1.584-1.682-2.742s.65-2.217 1.682-2.742c.26-.13.522-.222.807-.276.312-.06.62-.057.933-.057H475.204V4.67H338.21c-.18 0-.36-.005-.54.003-.312.012-.612.06-.913.137-.604.16-1.166.45-1.645.854-.96.805-1.516 1.996-1.516 3.25s.555 2.443 1.516 3.25c.48.402 1.04.693 1.645.854.3.078.602.123.913.137.18.006.36.002.54.002h136.993V11.99z"/>
      <linearGradient id="SVGID_17_" gradientUnits="userSpaceOnUse" x1="505.207" y1="6.683" x2="646.81" y2="6.683">
        <stop offset="0" stop-color="#31EEDD"/>
        <stop offset=".497" stop-color="#FFDC00"/>
        <stop offset=".902" stop-color="#FFDC00" stop-opacity="0"/>
      </linearGradient>
      <path fill="url(#SVGID_17_)" d="M646.81 4.636H509.918c-.354 0-.705-.008-1.06.04-.645.09-1.263.33-1.802.698-1.084.738-1.764 1.938-1.846 3.244-.002.04-.004.076-.004.113.06-1.212.826-2.278 1.96-2.718.28-.11.56-.176.862-.2.168-.013.338-.01.508-.01h137.107l1.167-1.166z"/>
    </g>
    <g id="trail-x3">
      <linearGradient id="SVGID_18_" gradientUnits="userSpaceOnUse" x1="334.764" y1="8.913" x2="475.204" y2="8.913">
        <stop offset="0" stop-color="#FF227B"/>
        <stop offset=".497" stop-color="#FF8400"/>
        <stop offset=".902" stop-color="#FF8400" stop-opacity="0"/>
      </linearGradient>
      <path fill="url(#SVGID_18_)" d="M337.84 10.82c-1.055 0-1.908-.853-1.908-1.907s.854-1.91 1.908-1.91h137.364V5.837H338.183c-.312 0-.62-.004-.932.057-.283.055-.547.146-.806.277-1.03.526-1.682 1.585-1.682 2.743s.65 2.217 1.682 2.742c.26.13.522.22.807.277.312.06.62.057.933.057H475.204v-1.17H337.84z"/>
      <linearGradient id="SVGID_19_" gradientUnits="userSpaceOnUse" x1="505.204" y1="8.879" x2="645.644" y2="8.879">
        <stop offset="0" stop-color="#FF227B"/>
        <stop offset=".497" stop-color="#FF8400"/>
        <stop offset=".902" stop-color="#FF8400" stop-opacity="0"/>
      </linearGradient>
      <path fill="url(#SVGID_19_)" d="M508.28 6.97h137.364V5.804H508.537c-.17 0-.34-.004-.508.01-.302.023-.583.09-.864.2-1.133.438-1.9 1.505-1.96 2.718-.003.098-.003.197 0 .295.06 1.213.827 2.28 1.96 2.72.28.108.562.175.863.198.167.014.337.012.507.012h137.107V10.79H508.28c-1.054 0-1.91-.856-1.91-1.91 0-1.055.856-1.91 1.91-1.91z"/>
    </g>
  </g>
  <g id="comet">
    <circle fill="#FFDC00" cx="181.267" cy="8.912" r="6.577"/>
    <circle fill="#FFDC00" stroke="#F203FF" stroke-width="1.5" stroke-miterlimit="10" cx="688.055" cy="8.912" r="6.577"/>
    <circle fill="#FFDB02" stroke="#0F0" stroke-width="1.5" stroke-linecap="round" stroke-linejoin="round" cx="7.326" cy="8.912" r="6.577"/>
    <circle fill="#F50071" cx="181.267" cy="8.912" r="4.646"/>
    <circle fill="#FFDC00" cx="337.84" cy="8.912" r="1.909"/>
    <circle fill="#0F0" cx="508.281" cy="8.879" r="1.909"/>
  </g>
</svg>
