<svg xmlns="http://www.w3.org/2000/svg" width="533.04" height="349.65" viewBox="0 0 533.04 349.647">
  <g id="_x33_" stroke-width="3" stroke-linecap="round" stroke-linejoin="round">
    <circle fill="#26C6DA" stroke="#26C6DA" cx="331.81" cy="205.69" r="24.42"/>
    <path fill="none" stroke="#FFC107" d="M65.85 53.2c8.54-7.12 11.7-18.82 7.93-29.28C70 13.47 60.08 6.5 48.96 6.5 37.84 6.47 27.9 13.43 24.1 23.9c-3.78 10.44-.63 22.15 7.9 29.28"/>
    <path fill="none" stroke="#00BF00" d="M347.63 52.06c12.02 0 21.78-9.75 21.78-21.78 0-12.03-9.75-21.78-21.78-21.78s-21.77 9.75-21.77 21.78c0 12.03 9.75 21.78 21.77 21.78z"/>
  </g>
  <g id="_x31_.25" stroke="#E54438" stroke-width="1.25" stroke-linecap="round" stroke-linejoin="round">
    <circle fill="#E54438" cx="500.97" cy="179.04" r="3.69"/>
    <path fill="none" d="M81.5 63.7v54.2h8.15l.04-54.2z"/>
  </g>
  <g id="_x2E_5" stroke-linecap="round" stroke-linejoin="round">
    <path fill="#FFC107" stroke="#FFC107" stroke-width=".5" d="M47.06 345.6c-.98.55-1.32 1.8-.77 2.76.55.98 1.8 1.33 2.77.77.98-.55 1.32-1.8.77-2.77-.55-.98-1.8-1.32-2.78-.77zM167 190.85h4.12v4.1h-4.1z"/>
    <circle fill="#F22057" stroke="#F22057" stroke-width=".5" cx="140.22" cy="295.25" r="2.04"/>
    <path fill="#FFC107" stroke="#FFC107" stroke-width=".499985" d="M94.92 318.5l2.03 3.58-3.58 2.02-2.02-3.57z"/>
    <circle fill="#FFC107" stroke="#FFC107" stroke-width=".5" cx="169.08" cy="139.97" r="2.04"/>
    <circle fill="#F22057" stroke="#F22057" stroke-width=".5" cx="169.05" cy="245.84" r="2.03"/>
    <path fill="#E54438" stroke="#E54438" stroke-width=".500015" d="M299.5 305.2l-4.8-1.04 1.03-4.8 4.8 1.02z"/>
    <path fill="#FFC107" stroke="#FFC107" stroke-width=".5" d="M70.84 209.17l-2.05 4.7 2.63 1.2 1.9-4.87z"/>
    <path fill="#E54438" stroke="#E54438" stroke-width=".5" d="M58.6 229.08l-2.04 4.7 2.64 1.2 1.9-4.87z"/>
    <circle fill="#26C6DA" stroke="#26C6DA" stroke-width=".5" cx="269.99" cy="299.23" r="3.39"/>
    <path fill="#FAFAFA" stroke="#FAFAFA" stroke-width=".5" d="M331.95 189.87h4.37v8.2h-4.37z"/>
    <circle fill="#3C59FD" stroke="#3C59FD" stroke-width=".5" cx="317.39" cy="178.72" r="2.03"/>
    <path fill="#26C6DA" stroke="#26C6DA" stroke-width=".5" d="M275.23 56.52l-.03 3.75 5.5.05-.03-3.76z"/>
    <path fill="#E54438" stroke="#E54438" stroke-width=".5" d="M271.5 40.72v3.8l5.5-.04-.06-3.76z"/>
    <path fill="#26C6DA" stroke="#26C6DA" stroke-width=".5" d="M376.7 153.7l.83 1.7 2.45-1.3-.88-1.68z"/>
    <path fill="#E54438" stroke="#E54438" stroke-width=".5" d="M75.47 67.94v11.1h9.07v-11.1z"/>
    <path fill="none" stroke="#3C59FD" stroke-width=".5" d="M356.23 149.47l.02 2.6 3.75.02v-2.62z"/>
    <path fill="#00BF00" stroke="#00BF00" d="M79.94 107.45v5.63h4.6l.03-5.63z"/>
    <circle fill="#E54438" stroke="#E54438" stroke-width=".5" cx="393.24" cy="253.71" r="1.33"/>
    <path fill="none" stroke="#616161" d="M406.77 277.7h34.96M397.17 274.96v-13.7M397.17 241.4V128.45"/>
    <path fill="#00BF00" stroke="#00BF00" stroke-width=".5" d="M504.12 318.12h5.48v5.48h-5.48z"/>
    <circle fill="#E54438" stroke="#E54438" stroke-width=".5" cx="397.17" cy="24.82" r="2.74"/>
    <circle fill="none" stroke="#FFC107" stroke-width=".5" cx="453.24" cy="282.12" r="1.76"/>
    <path fill="none" stroke="#616161" d="M462.3 277.7h34.96"/>
    <path fill="none" stroke="#616161" stroke-width=".75" d="M307.8 84.57V31.83M307.78 160.5v-52.75"/>
  </g>
  <g id="_x31_" stroke-linecap="round" stroke-linejoin="round">
    <circle fill="none" stroke="#26C6DA" cx="216.02" cy="205.66" r="3.05"/>
    <path fill="none" stroke="#616161" stroke-width="2" d="M134.47 205.63l66.08.02M231.5 205.66l65.76.02"/>
    <path fill="none" stroke="#E54438" d="M77.43 210.7l-.02 8.54h4.62l-.02-8.48z"/>
    <path fill="none" stroke="#3C59FD" d="M55.2 224.3c-.35-2.2-2.42-3.75-4.64-3.4-2.22.32-3.76 2.4-3.42 4.62.33 2.22 2.4 3.75 4.63 3.42 2.22-.34 3.75-2.4 3.42-4.63z"/>
    <path fill="#FAFAFA" stroke="#FAFAFA" stroke-width=".5" d="M301.42 184.5h24.27v4.36H301.4zM328.18 173.6l-3.54 5.6 8.15 5.1 3.46-5.62z"/>
    <path fill="none" stroke="#26C6DA" d="M118.34 304.1l3 5.3-5.32 3.02-3-5.3z" stroke-width=".99997"/>
    <path fill="none" stroke="#616161" stroke-width="2" d="M169.04 278.95l-21.73 12.3"/>
    <circle fill="none" stroke="#E54438" cx="169.07" cy="166.44" r="4.07"/>
    <path fill="none" stroke="#26C6DA" d="M166 216.32h6.1v6.1H166z"/>
    <path fill="none" stroke="#616161" stroke-width="2" d="M169.04 278.95v-24.97"/>
    <path fill="none" stroke="#E54438" d="M69.1 330.8c-1.95 1.1-2.64 3.58-1.54 5.54 1.1 1.95 3.6 2.64 5.55 1.54 1.97-1.1 2.65-3.6 1.55-5.55-1.1-1.95-3.6-2.64-5.55-1.54zM263.17 281.12l-.85 9.18 13.25.95.74-9.07z"/>
    <path fill="#FFC107" stroke="#FFC107" d="M291.4 262l1.65 4.98-27.57 9.18-1.66-4.97z" stroke-width="1.00001"/>
    <path fill="none" stroke="#E54438" d="M176.74 80.4c-.25-4.7-3.24-8.8-7.63-10.48-4.38-1.68-9.35-.62-12.67 2.7-3.33 3.33-4.38 8.3-2.7 12.68 1.68 4.4 5.8 7.38 10.48 7.64M249.72 153.35c4.7.25 8.8 3.24 10.48 7.63 1.7 4.4.63 9.36-2.7 12.68-3.32 3.32-8.28 4.38-12.68 2.7-4.38-1.67-7.38-5.78-7.63-10.47"/>
    <path fill="#00BF00" stroke="#00BF00" d="M278.24 47.3l.04 5.08 7.34.02v-5.07z"/>
    <path fill="#26C6DA" stroke="#26C6DA" d="M360.28 142.3l.02 3.84h5.57l-.02-3.83z"/>
    <circle fill="#00BF00" stroke="#00BF00" cx="367.1" cy="154.03" r="5.24"/>
    <circle fill="none" stroke="#26C6DA" cx="506.86" cy="342.44" r="2.74"/>
    <path fill="none" stroke="#26C6DA" d="M494.14 169.98h9.77v2.43h-9.76z"/>
    <path fill="#FFC107" stroke="#FFC107" d="M395.8 111.14h2.74v13.7h-2.74zM506.86 274.96c-1.5 0-2.74 1.23-2.74 2.74 0 1.52 1.22 2.75 2.74 2.74 1.5 0 2.74-1.22 2.74-2.74s-1.23-2.74-2.74-2.74z"/>
    <path fill="none" stroke="#FFC107" d="M388.75 244.14h1.98v7.97h-1.98z"/>
    <path fill="none" stroke="#616161" d="M506.86 234.54v40.42M397.17 111.14V70.72"/>
    <path fill="none" stroke="#26C6DA" d="M394.43.5h5.48v5.48h-5.47z"/>
    <circle fill="#3C59FD" stroke="#3C59FD" cx="397.17" cy="67.98" r="2.74"/>
    <path fill="#3C59FD" stroke="#3C59FD" d="M505.5 220.83h2.73v13.7h-2.74z"/>
    <path fill="#E54438" stroke="#E54438" d="M446.53 276.82l4.37 1.7-1.7 4.35-4.35-1.68z"/>
    <circle fill="#F22057" stroke="#F22057" cx="397.17" cy="277.7" r="2.74"/>
    <path fill="none" stroke="#616161" stroke-width=".75" d="M162.32 83.57l84.24 84.2M167.38 78.52l84.23 84.2"/>
    <circle fill="none" stroke="#00BF00" cx="48.87" cy="139.15" r="2.93"/>
    <path fill="#00BF00" stroke="#00BF00" d="M50.78 121.74c-1.24-1.05-3.1-.9-4.14.33-1.05 1.23-.9 3.08.33 4.14 1.24 1.06 3.1.9 4.14-.33 1.06-1.23.9-3.08-.32-4.13z"/>
    <circle fill="none" stroke="#00BF00" cx="48.89" cy="108.79" r="2.93"/>
    <circle fill="#00BF00" stroke="#00BF00" cx="48.9" cy="93.62" r="2.93"/>
    <path fill="none" stroke="#00BF00" d="M50.8 76.2c-1.22-1.05-3.07-.9-4.13.34-1.05 1.23-.9 3.08.34 4.13 1.24 1.05 3.1.9 4.14-.33 1.05-1.23.9-3.1-.33-4.14zM50.82 61.03c-1.23-1.06-3.08-.9-4.13.32-1.07 1.24-.92 3.1.32 4.15s3.08.9 4.14-.34c1.05-1.23.9-3.08-.34-4.13z"/>
    <circle fill="#00BF00" stroke="#00BF00" cx="48.93" cy="48.08" r="2.94"/>
    <circle fill="none" stroke="#00BF00" cx="48.94" cy="32.91" r="2.94"/>
    <path fill="#00BF00" stroke="#00BF00" d="M307 160.5h1.54v12H307z"/>
    <circle fill="#00BF00" stroke="#00BF00" cx="307.78" cy="106.26" r="1.49"/>
    <circle fill="#26C6DA" stroke="#26C6DA" cx="307.79" cy="86.06" r="1.49"/>
    <path fill="#26C6DA" stroke="#26C6DA" d="M307.03 19.8h1.52v12.03h-1.52z"/>
  </g>
  <g id="_x32_" stroke-linecap="round" stroke-linejoin="round">
    <path fill="none" stroke="#FFC107" stroke-width="2" d="M65.94 223.52l.03 12.2h13.3l.02-12.2z"/>
    <path fill="#00BF00" stroke="#00BF00" stroke-width="2" d="M56.6 200.25l.02 18.6h9.63v-18.6z"/>
    <path fill="none" stroke="#FFC107" stroke-width="1.99998" d="M283.67 307.1l-5-4.98 5-5 4.98 5z"/>
    <circle fill="none" stroke="#FFC107" stroke-width="2" cx="216.02" cy="205.66" r="10.17"/>
    <path fill="none" stroke="#E54438" stroke-width="2" d="M353.58 186.77c1.1-3.3-.68-6.85-3.97-7.94-3.28-1.1-6.84.68-7.94 3.97-1.1 3.3.7 6.85 3.97 7.94 3.3 1.1 6.86-.68 7.95-3.97z"/>
    <path fill="none" stroke="#00BF00" stroke-width="2" d="M305.28 282.2c0-5.43-4.4-9.84-9.83-9.84-5.42 0-9.82 4.4-9.83 9.83 0 5.42 4.4 9.82 9.83 9.82s9.83-4.4 9.83-9.83z"/>
    <path fill="none" stroke="#FFC107" stroke-width="2" d="M141.5 136.98c1.97-8.77-3.52-17.5-12.3-19.47-8.76-1.98-17.48 3.52-19.47 12.28-1.98 8.77 3.52 17.5 12.28 19.48 8.78 2 17.5-3.5 19.5-12.28z"/>
    <circle fill="none" stroke="#E54438" stroke-width="2" cx="376.29" cy="141.23" r="6.85"/>
    <circle fill="none" stroke="#E54438" stroke-width="2" cx="397.17" cy="46.4" r="4.11"/>
    <circle fill="none" stroke="#00BF00" stroke-width="2" cx="400.79" cy="253.71" r="4.8"/>
    <circle fill="none" stroke="#E54438" stroke-width="2" cx="506.86" cy="299.28" r="4.11"/>
    <circle fill="none" stroke="#26C6DA" stroke-width="2" cx="455.27" cy="275.45" r="3.92"/>
    <circle fill="none" stroke="#FFC107" stroke-width="2" cx="510.17" cy="172.36" r="3.92"/>
    <circle fill="none" stroke="#26C6DA" stroke-width="3" cx="504.12" cy="175.59" r="27.42"/>
    <circle fill="#00BF00" stroke="#00BF00" cx="249.08" cy="165.24" r="3.57"/>
    <path fill="#3C59FD" stroke="#3C59FD" d="M167.38 78.52c-1.4-1.4-3.66-1.4-5.06 0-1.4 1.4-1.4 3.65 0 5.05s3.66 1.4 5.06 0c1.4-1.4 1.4-3.66 0-5.05z"/>
    <circle fill="none" stroke="#FFC107" stroke-width="2" cx="266.71" cy="52.14" r="6.17"/>
  </g>
  <g id="superthick" fill="none" stroke-linecap="round" stroke-linejoin="round">
    <path stroke="#F22057" stroke-width="7" d="M11.42 248.03c-16.6-29.35-6.26-66.6 23.1-83.18s66.58-6.27 83.17 23.08 6.25 66.6-23.1 83.2c-29.34 16.58-66.58 6.25-83.18-23.1z"/>
    <path stroke="#26C6DA" stroke-width="4" d="M133.55 135.18c1-4.38-1.76-8.74-6.14-9.73-4.38-1-8.73 1.75-9.73 6.14-1 4.37 1.76 8.73 6.14 9.72 4.4 1 8.76-1.75 9.75-6.14z"/>
  </g>
</svg>
