<svg xmlns="http://www.w3.org/2000/svg" width="353.29" height="533.04" viewBox="0 0 353.286 533.041">
  <g id="_x2E_5" fill="none" stroke="#616161" stroke-width=".5" stroke-linecap="round" stroke-linejoin="round">
    <path d="M349.23 485.98c.56.98 1.8 1.32 2.77.77.98-.56 1.33-1.8.77-2.78-.55-.98-1.8-1.32-2.77-.77-.98.55-1.32 1.8-.77 2.78zM194.5 361.92h4.1v4.1h-4.1z"/>
    <circle cx="298.89" cy="392.82" r="2.04"/>
    <path d="M322.13 438.1l3.58-2 2.03 3.56-3.57 2.03z" stroke-width=".499985"/>
    <circle cx="143.61" cy="363.96" r="2.04"/>
    <circle cx="249.48" cy="363.99" r="2.03"/>
    <path d="M308.82 233.53l-1.02 4.8-4.8-1.02 1.02-4.8z" stroke-width=".500015"/>
    <path d="M212.8 462.2l4.7 2.05 1.2-2.64-4.86-1.9zM232.72 474.43l4.7 2.05 1.2-2.64-4.87-1.9z"/>
    <circle cx="302.86" cy="263.05" r="3.39"/>
    <path d="M193.5 196.7h8.22v4.38h-8.2z"/>
    <circle cx="182.36" cy="215.65" r="2.03"/>
    <path d="M60.16 257.8l3.75.03.05-5.48-3.75.02zM44.35 261.55h3.8l-.03-5.5-3.77.05zM157.34 156.35l1.68-.84-1.3-2.44-1.66.88zM70.83 431.76l7.2 8.45 6.9-5.88-7.2-8.45zM153.1 176.8h2.62v-3.76h-2.6zM99.86 458.93l3.65 4.28 3.5-2.98-3.62-4.3z"/>
    <circle cx="257.35" cy="139.8" r="1.33"/>
    <path d="M281.34 126.27V91.3M278.6 135.87h-13.7M245.04 135.87H132.08M321.76 23.44h5.48v5.48h-5.48z"/>
    <circle cx="28.46" cy="135.87" r="2.74"/>
    <circle cx="285.75" cy="79.8" r="1.76"/>
    <path d="M281.34 70.74V35.78M88.2 225.25H35.48M164.13 225.26H111.4"/>
  </g>
  <g id="_x31_" fill="none" stroke="#616161" stroke-linecap="round" stroke-linejoin="round">
    <circle cx="209.29" cy="317.02" r="3.05"/>
    <path d="M209.27 398.57l.02-66.08M209.3 301.55l.02-65.77M214.35 455.6l8.53.02v-4.6l-8.48.02zM227.95 477.85c-2.23.34-3.76 2.4-3.42 4.63.33 2.22 2.4 3.76 4.63 3.42 2.22-.33 3.75-2.4 3.42-4.63-.34-2.22-2.4-3.75-4.63-3.42zM188.13 207.35h4.37v24.27h-4.37zM177.24 204.85l5.6 3.55 5.1-8.15-5.62-3.47z"/>
    <path d="M307.73 414.7l5.3-3 3.02 5.33-5.3 3z" stroke-width=".99997"/>
    <path d="M282.6 364l12.28 21.73"/>
    <circle cx="170.08" cy="363.97" r="4.07"/>
    <path d="M219.96 360.93h6.1v6.1h-6.1zM282.6 364H257.6M334.43 463.94c1.1 1.95 3.6 2.64 5.54 1.54 1.96-1.1 2.65-3.6 1.55-5.55-1.1-1.96-3.6-2.64-5.55-1.54-1.96 1.1-2.65 3.58-1.54 5.54zM284.76 269.87l9.18.84.95-13.23-9.08-.74z"/>
    <path d="M265.65 241.65l4.97-1.65 9.18 27.57-4.97 1.65z" stroke-width="1.00001"/>
    <path d="M84.03 356.3c-4.7.25-8.8 3.24-10.48 7.63-1.67 4.4-.6 9.36 2.7 12.68 3.34 3.34 8.3 4.4 12.7 2.7 4.38-1.67 7.37-5.78 7.62-10.47M156.98 283.32c.26-4.7 3.25-8.8 7.64-10.48 4.4-1.68 9.35-.63 12.68 2.7 3.32 3.32 4.38 8.28 2.7 12.68-1.68 4.38-5.78 7.38-10.47 7.63M50.95 254.8l5.07-.04v-7.34h-5.05zM145.93 172.76l3.84-.02v-5.57l-3.82.02z"/>
    <circle cx="157.67" cy="165.94" r="5.24"/>
    <circle cx="346.08" cy="26.18" r="2.74"/>
    <path d="M173.62 29.13h2.43v9.77h-2.43zM114.78 134.5h13.7v2.74h-13.7zM278.6 26.18c0 1.5 1.23 2.74 2.74 2.74 1.52 0 2.74-1.22 2.74-2.74 0-1.5-1.22-2.74-2.74-2.74s-2.74 1.22-2.74 2.74zM247.78 142.32h7.97v1.98h-7.97zM238.18 26.18h40.42M114.78 135.87H74.36M4.14 133.13h5.48v5.48H4.14z"/>
    <circle cx="71.62" cy="135.87" r="2.74"/>
    <path d="M224.47 24.8h13.7v2.75h-13.7zM280.46 86.5l1.7-4.36 4.35 1.68-1.68 4.37z"/>
    <circle cx="281.34" cy="135.87" r="2.74"/>
    <path d="M87.2 370.72l84.2-84.23M82.16 365.66l84.2-84.23M96.75 500.28c-1.62 0-2.93 1.3-2.93 2.94 0 1.6 1.3 2.93 2.93 2.93 1.62 0 2.94-1.3 2.94-2.93 0-1.63-1.33-2.94-2.95-2.94zM86.92 488.72c-1.62 0-2.94 1.3-2.94 2.93s1.32 2.94 2.94 2.94c1.62 0 2.94-1.33 2.94-2.95s-1.32-2.93-2.94-2.93z"/>
    <circle cx="77.09" cy="480.09" r="2.94"/>
    <circle cx="67.25" cy="468.53" r="2.94"/>
    <path d="M57.42 454.03c-1.62 0-2.94 1.32-2.94 2.94 0 1.62 1.32 2.93 2.94 2.93s2.93-1.3 2.93-2.93c0-1.62-1.3-2.94-2.93-2.94zM47.59 442.47c-1.64 0-2.95 1.3-2.95 2.93 0 1.63 1.3 2.94 2.94 2.94s2.92-1.3 2.92-2.93c0-1.6-1.3-2.93-2.94-2.93z"/>
    <circle cx="37.75" cy="433.85" r="2.94"/>
    <circle cx="27.92" cy="422.29" r="2.94"/>
    <path d="M164.13 224.5h12.02v1.53h-12.02z"/>
    <circle cx="109.9" cy="225.25" r="1.49"/>
    <circle cx="89.69" cy="225.25" r="1.49"/>
    <path d="M23.45 224.5h12.02v1.5H23.45z"/>
  </g>
  <g id="_x31_.25" fill="none" stroke="#616161" stroke-width="1.25" stroke-linecap="round" stroke-linejoin="round">
    <circle cx="182.68" cy="32.07" r="3.69"/>
    <path d="M72.68 424.62l35.13 41.25 6.22-5.3-35.1-41.26z"/>
  </g>
  <g id="_x32_" fill="none" stroke="#616161" stroke-linecap="round" stroke-linejoin="round">
    <path stroke-width="2" d="M227.16 467.1l12.18-.03.02-13.3-12.2-.02zM203.9 476.43h18.6v-9.64l-18.6-.02z"/>
    <path stroke-width="1.99998" d="M310.74 249.38l-4.98 5-5-5 5-4.98z"/>
    <circle stroke-width="2" cx="209.29" cy="317.02" r="10.17"/>
    <path stroke-width="2" d="M190.4 179.46c-3.28-1.1-6.84.67-7.93 3.97-1.1 3.3.68 6.85 3.97 7.94 3.3 1.1 6.85-.68 7.94-3.97 1.1-3.3-.68-6.84-3.97-7.94zM285.83 227.76c-5.43 0-9.83 4.4-9.83 9.83 0 5.4 4.4 9.8 9.83 9.82 5.43 0 9.83-4.4 9.83-9.83 0-5.44-4.4-9.84-9.83-9.84zM140.62 391.55c-8.77-2-17.5 3.5-19.48 12.28-1.98 8.77 3.5 17.5 12.28 19.48 8.77 2 17.5-3.5 19.48-12.27 1.98-8.77-3.5-17.5-12.28-19.48z"/>
    <circle stroke-width="2" cx="144.87" cy="156.75" r="6.85"/>
    <circle stroke-width="2" cx="50.04" cy="135.87" r="4.11"/>
    <circle stroke-width="2" cx="257.35" cy="132.25" r="4.8"/>
    <circle stroke-width="2" cx="302.92" cy="26.18" r="4.11"/>
    <circle stroke-width="2" cx="279.09" cy="77.77" r="3.92"/>
    <circle stroke-width="2" cx="176" cy="22.86" r="3.92"/>
    <circle stroke-width="3" cx="179.22" cy="28.92" r="27.42"/>
    <circle stroke-width="2" cx="168.88" cy="283.96" r="3.57"/>
    <path stroke-width="2" d="M82.16 365.66c-1.4 1.4-1.4 3.66 0 5.06 1.4 1.4 3.65 1.4 5.05 0s1.4-3.66 0-5.06c-1.4-1.4-3.65-1.4-5.04 0z"/>
    <circle stroke-width="2" cx="55.78" cy="266.33" r="6.17"/>
  </g>
  <g id="_x33_" fill="none" stroke="#616161" stroke-width="3" stroke-linecap="round" stroke-linejoin="round">
    <circle cx="209.33" cy="201.23" r="24.42"/>
    <path d="M53.95 426.77c1.9-10.96-3.3-21.92-12.95-27.43-9.65-5.5-21.73-4.38-30.2 2.83-8.47 7.2-11.52 18.93-7.63 29.35 3.9 10.42 13.88 17.28 25 17.18M55.7 185.4c0-12-9.76-21.77-21.78-21.77-12.03 0-21.78 9.76-21.78 21.78s9.75 21.8 21.78 21.8c12.02 0 21.78-9.76 21.78-21.78z"/>
  </g>
  <g id="superthick" fill="none" stroke="#616161" stroke-linecap="round" stroke-linejoin="round">
    <path stroke-width="7" d="M251.67 521.62c-29.35 16.6-66.6 6.26-83.18-23.1s-6.28-66.58 23.07-83.17 66.6-6.26 83.2 23.08c16.58 29.35 6.25 66.6-23.1 83.2z"/>
    <path stroke-width="4" d="M138.82 399.5c-4.38-1-8.74 1.74-9.74 6.13-1 4.4 1.76 8.74 6.14 9.74 4.4 1 8.75-1.76 9.74-6.14 1-4.4-1.76-8.75-6.14-9.74z"/>
  </g>
</svg>
