<svg xmlns="http://www.w3.org/2000/svg" width="2063.38" height="183.1" viewBox="0 0 2063.377 183.1">
  <g id="major" fill="#FAFAFA" stroke="#455A64" stroke-width="1.75" stroke-linecap="round" stroke-linejoin="round">
    <path d="M1569.3 90.08c.46.47.73 1.1.73 1.78V138c0 2 .8 3.92 2.2 5.34 11.38 11.36 22.74 22.73 34.1 34.1 1.2 1.18 3.1 1.18 4.28 0 1.2-1.18 1.2-3.1 0-4.27l-34.1-34.1c-.27-.28-.43-.67-.43-1.07V91.86c0-2.27-.9-4.44-2.5-6.05l-57.43-57.4c-.3-.3-.44-.68-.44-1.08V3.9c0-1.67-1.36-3.02-3.02-3.02-1.67 0-3.02 1.35-3.02 3.02v23.42c0 2 .8 3.92 2.2 5.34l57.43 57.42zM1814.8 175.96c1.52 1.5 3.57 2.36 5.7 2.36h98.53c1.67 0 3.02-1.35 3.02-3.02s-1.35-3.02-3.02-3.02h-98.53c-.53 0-1.04-.2-1.42-.6l-30.54-30.53c-1.5-1.5-3.56-2.36-5.7-2.36h-59.57c-1.67 0-3.02 1.34-3.02 3 0 1.68 1.35 3.03 3.02 3.03h59.57c.54 0 1.05.2 1.43.6l30.54 30.53zM325.45 125.82c1.88 1.9 4.44 2.95 7.1 2.95h50.83c5.55 0 10.06 4.5 10.06 10.06V169c0 5.57-4.5 10.08-10.06 10.08h-71.66c-2.67 0-5.23-1.06-7.1-2.95-30.8-30.77-61.56-61.55-92.33-92.32-3.94-3.92-3.94-10.3 0-14.22l7.7-7.72c1.9-1.9 4.46-2.95 7.13-2.95h27.24c2.66 0 5.22 1.07 7.1 2.96l63.98 63.96zM593.57 147.67c0 2.67-1.06 5.23-2.95 7.1-7.1 7.13-14.23 14.24-21.34 21.36-3.93 3.93-10.3 3.93-14.23 0l-50.67-50.67c-1.88-1.88-2.94-4.44-2.94-7.1V46.7c0-5.56 4.5-10.07 10.06-10.07h30.18c2.67 0 5.23 1.06 7.12 2.95l41.82 41.83c1.9 1.9 2.95 4.45 2.95 7.12v59.15zM704.52 151.3c-3.93 3.92-3.93 10.3 0 14.22l10.6 10.6c1.9 1.9 4.45 2.95 7.12 2.95h46.65c5.55 0 10.05-4.5 10.05-10.06v-39.66c0-5.56-4.5-10.06-10.06-10.06h-28.2c-2.67 0-5.23 1.06-7.12 2.94l-29.06 29.07zM1393.43 178.4c4.16 0 7.54-3.4 7.54-7.56V90c0-1.68-1.35-3.03-3.02-3.03-1.66 0-3 1.35-3 3.02v80.84c0 .84-.7 1.5-1.52 1.5h-43.2c-.4 0-.78-.15-1.06-.43-23.23-23.2-46.45-46.44-69.68-69.66-1.2-1.18-3.1-1.18-4.28 0s-1.18 3.1 0 4.27l69.68 69.68c1.4 1.4 3.33 2.2 5.33 2.2h43.2zM81.08 177.8l16.1-22.7c2.7-3.84 4.16-8.43 4.16-13.12 0-7.25-3.45-14.05-9.3-18.33-5.85-4.27-13.38-5.5-20.28-3.3s-12.34 7.55-14.64 14.4c-2.3 6.88-1.2 14.43 3 20.34l16.1 22.72c1.18 1.68 3.67 1.68 4.86 0zM1054.84 161.25c2.67 0 5.23-1.06 7.1-2.94 8.42-8.4 16.83-16.8 25.23-25.22 1.9-1.9 4.45-2.95 7.12-2.95h61.22c5.56 0 10.06-4.5 10.06-10.06V89.9c0-5.57-4.5-10.07-10.06-10.07h-121.96c-2.67 0-5.23 1.06-7.1 2.94l-29.7 29.68c-1.88 1.9-4.44 2.95-7.1 2.95H968.5c-2.67 0-5.23-1.06-7.12-2.95l-35.93-35.93c-3.93-3.93-10.3-3.93-14.23 0-7.1 7.12-14.23 14.23-21.34 21.35-3.93 3.93-3.93 10.3 0 14.22 21.34 21.34 42.7 42.68 64.03 64.03 1.9 1.88 4.45 2.94 7.12 2.94H1037c2.68 0 5.24-1.06 7.13-2.94l7.56-7.57c.7-.72.93-1.8.54-2.74-.4-.94-1.3-1.55-2.33-1.55h-78.17c-.84 0-1.5-.68-1.5-1.5s.66-1.52 1.5-1.52h83.1z"/>
  </g>
  <g id="mid" stroke="#455A64" stroke-linecap="round" stroke-linejoin="round">
    <path fill="none" stroke-width="1.25" d="M1076.76 110h63.67c2.78 0 5.03-2.24 5.03-5.02 0-2.78-2.25-5.03-5.03-5.03h-98.53c-2.67 0-5.23 1.06-7.12 2.95l-31.9 31.9c-.46.46-1.1.72-1.77.72h-44.04c-.67 0-1.3-.26-1.78-.73l-29.8-29.82c-1.9-1.9-4.45-2.95-7.12-2.95h-23c-1.02 0-1.93-.6-2.32-1.55-.4-.94-.18-2.02.54-2.74l19.44-19.44c2.95-2.95 7.73-2.95 10.67 0l35.92 35.93c2.36 2.36 5.56 3.68 8.9 3.68h21.13c3.34 0 6.54-1.3 8.9-3.67 9.9-9.9 19.78-19.8 29.68-29.68 1.4-1.4 3.33-2.2 5.33-2.2h121.96c4.17 0 7.55 3.37 7.55 7.54v30.17c0 4.17-3.38 7.55-7.55 7.55h-61.23c-3.35 0-6.54 1.32-8.9 3.68l-25.23 25.23c-1.4 1.4-3.33 2.2-5.33 2.2h-83.1c-2.23 0-4.04 1.8-4.04 4.03 0 2.22 1.8 4.02 4.03 4.02h75.75c.9 0 1.35 1.1.72 1.72l-5.85 5.85c-1.4 1.4-3.33 2.2-5.34 2.2h-75.95c-2 0-3.92-.8-5.34-2.2-19.3-19.32-38.63-38.64-57.95-57.96-.72-.73-.93-1.8-.54-2.75.4-.94 1.3-1.56 2.33-1.56h17.8c.65 0 1.3.26 1.77.73l29.8 29.8c1.9 1.9 4.45 2.95 7.12 2.95h98.53c2.78 0 5.03-2.25 5.03-5.03 0-2.78-2.25-5.03-5.03-5.03h-1.75c-1.34 0-2-1.62-1.06-2.58l21.46-21.46c.94-.94 2.22-1.47 3.56-1.47zM254.47 82.14c-.1-3.1-2.05-5.84-4.93-6.98-2.9-1.14-6.18-.45-8.37 1.74s-2.88 5.5-1.75 8.38c1.14 2.88 3.88 4.82 6.98 4.93.64.03 1.24.3 1.7.75l64.7 64.7c1.8 1.8 4.22 2.8 6.75 2.8h43.2c5.28 0 9.56-4.28 9.56-9.56v-15.1c0-1.4 1.13-2.52 2.52-2.52h8.56c4.16 0 7.54 3.38 7.54 7.55V169c0 4.18-3.38 7.56-7.54 7.56h-71.66c-2 0-3.92-.8-5.33-2.2-30.8-30.78-61.56-61.56-92.33-92.33-2.95-2.95-2.95-7.73 0-10.67l7.72-7.73c1.4-1.4 3.33-2.2 5.33-2.2h27.24c2 0 3.92.8 5.33 2.2l63.97 63.97c2.36 2.36 5.56 3.68 8.9 3.68h27.16c1.4 0 2.5 1.13 2.5 2.52v12.07c0 1.4-1.1 2.52-2.5 2.52H320.8c-.66 0-1.3-.28-1.77-.75L255.2 83.83c-.44-.45-.7-1.05-.73-1.7zM773.92 147.23c1.4 0 2.52-1.12 2.52-2.5v-15.4c0-4.16-3.38-7.54-7.55-7.54h-28.2c-2 0-3.93.8-5.34 2.2l-29.06 29.06c-2.95 2.95-2.95 7.73 0 10.68l10.6 10.6c1.42 1.42 3.34 2.22 5.34 2.22h22.5c1.4 0 2.52-1.13 2.52-2.52v-21.27c0-3.06 2.47-5.54 5.53-5.54h21.12zM764.36 174.04c0 1.4 1.13 2.52 2.52 2.52h2c4.18 0 7.55-3.38 7.55-7.55v-8.18c0-1.4-1.12-2.52-2.5-2.52h-7.05c-1.4 0-2.52 1.13-2.52 2.52v13.22zM556.26 147.66l-30.9-30.9c-1.8-1.78-2.8-4.2-2.8-6.75V63.88c0-.15-.04-.25-.14-.36-4.72-4.7-9.45-9.43-14.17-14.16-.72-.72-1.8-.93-2.75-.54s-1.55 1.3-1.55 2.32v67.23c0 2 .8 3.92 2.2 5.33l50.68 50.67c2.94 2.95 7.72 2.95 10.67 0 7.12-7.1 14.23-14.23 21.34-21.34 1.42-1.4 2.2-3.33 2.2-5.33V88.52c0-2-.78-3.92-2.2-5.34l-41.82-41.82c-1.42-1.42-3.33-2.2-5.34-2.2h-23.32c-1.02 0-1.94.6-2.33 1.54s-.17 2.02.55 2.74c4.3 4.32 8.63 8.64 12.95 12.96 2 1.98 3.1 4.67 3.1 7.47v44.9c0 .66.26 1.3.74 1.77l30 30c.34.35.7.56 1.17.67 2.2.56 3.94 2.25 4.54 4.43.6 2.2 0 4.53-1.6 6.13s-3.95 2.22-6.14 1.6c-2.18-.6-3.87-2.33-4.42-4.53-.12-.46-.32-.83-.66-1.17z"/>
    <path fill="#FAFBFB" stroke-width=".75" d="M1723.27 140.56h59.57c1.67 0 3.27.66 4.45 1.84l30.53 30.54c.7.7 1.67 1.1 2.67 1.1h46.14c1 0 1.96-.4 2.67-1.1l32.64-32.63c1.17-1.17 2.77-1.83 4.44-1.83h98.54c.7 0 1.25.56 1.25 1.26s-.56 1.26-1.25 1.26h-98.54c-1 0-1.96.38-2.67 1.1l-32.6 32.62c-1.2 1.18-2.8 1.84-4.46 1.84h-46.14c-1.67 0-3.27-.66-4.45-1.84l-30.54-30.54c-.7-.7-1.66-1.1-2.66-1.1h-59.57c-.7 0-1.26-.57-1.26-1.27 0-.68.57-1.25 1.27-1.25z"/>
  </g>
  <g id="minor" fill="none" stroke="#455A64" stroke-width=".75" stroke-linecap="round" stroke-linejoin="round">
    <circle cx="1904.46" cy="140.11" r="1.26"/>
    <path d="M1043.38 133.58c2.66 0 5.22-1.06 7.1-2.94 5.72-5.7 11.42-11.42 17.13-17.12.57-.56 1.14-1.1 1.73-1.62.8-.7 1.06-1.8.7-2.78-.38-.98-1.32-1.62-2.36-1.62h-22.65c-2.67 0-5.23 1.06-7.1 2.94l-21.6 21.58-.7.7c-.33.3-.1.86.34.86h27.4zM1277.36 104.37l69.67 69.67c.85.85 2 1.33 3.2 1.33h43.2c2.5 0 4.52-2.03 4.52-4.53V90"/>
    <circle cx="1396.63" cy="174.04" r="1.26"/>
    <circle cx="1348.5" cy="175.03" r="1.26"/>
    <circle cx="1312.93" cy="139.94" r="1.26"/>
    <circle cx="1277.36" cy="104.37" r="1.26"/>
    <circle cx="1397.95" cy="89.99" r="1.26"/>
    <circle cx="1512.68" cy="3.89" r="1.26"/>
    <circle cx="1572.63" cy="89.74" r="1.26"/>
    <circle cx="1573.39" cy="139.73" r="1.26"/>
    <circle cx="1608.47" cy="175.3" r="1.26"/>
    <path d="M1608.47 175.3l-34.1-34.1c-.84-.85-1.32-2-1.32-3.2V91.86c0-1.47-.58-2.88-1.62-3.9L1514 30.5c-.85-.85-1.32-2-1.32-3.2V3.9"/>
    <circle cx="1723.27" cy="141.81" r="1.26"/>
    <circle cx="2004.92" cy="139.73" r="1.26"/>
    <circle cx="1954.61" cy="139.73" r="1.26"/>
    <circle cx="1866.64" cy="175.3" r="1.26"/>
    <circle cx="1919.03" cy="175.3" r="1.26"/>
    <circle cx="78.64" cy="141.98" r="7.02"/>
    <circle cx="1818.58" cy="174.92" r="1.26"/>
    <circle cx="1784.77" cy="142.19" r="1.26"/>
    <path d="M2004.92 139.73h-98.54c-1.33 0-2.6.53-3.55 1.47l-32.63 32.63c-.94.94-2.22 1.47-3.56 1.47"/>
    <path d="M1919.03 175.3h-98.53c-1.33 0-2.6-.53-3.56-1.47-7.48-7.5-14.97-14.98-22.46-22.47l-8.08-8.07c-.94-.96-2.22-1.5-3.56-1.5h-59.57"/>
  </g>
  <g id="ground">
    <path fill="#FAFAFA" stroke="#455A64" stroke-width="5" stroke-linejoin="round" d="M0 180.6h2063.38"/>
  </g>
</svg>
