<svg xmlns="http://www.w3.org/2000/svg" width="397.56" height="355.2" viewBox="0 0 397.561 355.2">
  <g id="ring-back">
    <path fill="none" stroke="#42F9DA" stroke-width="4" stroke-linecap="round" stroke-miterlimit="10" d="M36 109.1c26.9-3.04 61.97.53 88.28 4.5 28.8 4.33 58.6 10.8 86.72 18.32 28.12 7.52 57.14 16.8 84.26 27.42 24.8 9.7 56.98 24.14 78.75 40.2"/>
  </g>
  <g id="base">
    <linearGradient id="SVGID_1_" gradientUnits="userSpaceOnUse" x1="73.91" y1="52.73" x2="323.66" y2="302.48">
      <stop offset=".1" stop-color="#FFF528"/>
      <stop offset="1" stop-color="#FF00B7"/>
    </linearGradient>
    <path fill="url(#SVGID_1_)" d="M323.66 302.48c15.74-15.75 28.35-34.3 37.2-54.74 9.58-22.14 14.52-46 14.52-70.14 0-24.13-4.94-48-14.53-70.14-8.84-20.44-21.45-39-37.2-54.74-15.74-15.74-34.3-28.35-54.72-37.2C246.78 5.95 222.9 1 198.78 1c-24.13 0-48 4.94-70.14 14.53-20.44 8.84-39 21.45-54.73 37.2-15.74 15.74-28.35 34.3-37.2 54.73-9.58 22.14-14.52 46-14.52 70.14 0 24.13 4.94 48 14.53 70.14 8.85 20.44 21.46 39 37.2 54.73 15.75 15.75 34.3 28.36 54.74 37.2 22.14 9.6 46 14.53 70.14 14.53 24.13 0 48-4.94 70.14-14.53 20.44-8.84 39-21.45 54.74-37.2z"/>
  </g>
  <g id="reflect" fill="none" stroke="#FFF" stroke-width="3" stroke-linecap="round" stroke-linejoin="round">
    <path opacity=".4" d="M341.8 139.65c-9.5-35.77-32.04-66.68-63.2-86.64M346.75 177.6c0-6.75-.46-13.42-1.38-20.1"/>
  </g>
  <g id="shade">
    <path opacity=".2" d="M311.68 41.8c28.14 33.86 42.63 77 40.6 121-2 43.98-20.4 85.63-51.53 116.77-31.14 31.13-72.78 49.5-116.77 51.54-43.98 2.03-87.14-12.46-121-40.6 23.2 27.92 54.47 48 89.5 57.53 35.05 9.5 72.17 8 106.32-4.34 34.15-12.35 63.67-34.92 84.54-64.65 20.85-29.72 32.04-65.14 32.04-101.45 0-52.48-23.34-102.25-63.7-135.8z"/>
    <path opacity=".2" fill="none" stroke="#000" stroke-width="3" stroke-miterlimit="10" d="M351.26 266.7c-26.6 2.16-59.75-1.32-85.8-5.35-28.03-4.32-56.92-10.62-84.3-17.95-27.35-7.32-55.5-16.3-81.94-26.52-24.6-9.53-55.07-23.08-77.04-38.24"/>
  </g>
  <g id="lighten_1_">
    <path opacity=".2" fill="#FFF" d="M334.58 64.7c-23.2-27.92-54.47-48-89.5-57.52-35.05-9.52-72.17-8-106.3 4.33-34.17 12.35-63.7 34.93-84.55 64.65-20.86 29.72-32.05 65.14-32.05 101.45 0 52.5 23.35 102.25 63.7 135.8-28.14-33.86-42.62-77-40.6-121 2.02-43.98 20.4-85.63 51.54-116.77 31.13-31.13 72.77-49.5 116.76-51.54 44-2.03 87.14 12.46 121 40.6z"/>
  </g>
  <g id="orbitals" stroke-linecap="round" stroke-linejoin="round">
    <circle fill="#FF3000" stroke="#BF1F00" cx="36.01" cy="299.34" r="6.84"/>
    <circle fill="#00FFBC" stroke="#00D397" cx="325.82" cy="28.39" r="4.05"/>
  </g>
  <g id="ring" fill="none" stroke="#42F9DA" stroke-width="4" stroke-miterlimit="10">
    <path d="M12.53 146.4c-2.28-2.23-4.4-4.56-6.23-7.17-1.42-2.03-2.62-4.1-3.43-6.45-1.23-3.55-1.3-7.16.7-10.54 1-1.73 2.42-3.17 4-4.38 2.05-1.6 4.28-2.75 6.66-3.74 3.08-1.3 6.24-2.22 9.48-2.97 4.07-.94 8.17-1.57 12.3-2.04M374 199.55c3.37 2.47 6.6 5.07 9.64 7.9 2.44 2.28 4.7 4.66 6.74 7.32 1.56 2.05 2.9 4.17 3.9 6.58.76 1.83 1.27 3.78 1.28 5.8.02 3.9-1.83 7-4.67 9.47-1.9 1.63-3.96 2.82-6.2 3.86-2.9 1.35-5.9 2.32-9 3.1"/>
  </g>
  <g id="outline">
    <linearGradient id="SVGID_2_" gradientUnits="userSpaceOnUse" x1="1624.9" y1="-3693.86" x2="1980.11" y2="-3693.86" gradientTransform="rotate(45 -3672.648 -3693.93)">
      <stop offset="0" stop-color="#00F3FF"/>
      <stop offset="1" stop-color="#FF00B7"/>
    </linearGradient>
    <path fill="none" stroke="url(#SVGID_2_)" stroke-width="2" stroke-linecap="round" stroke-linejoin="round" d="M323.66 302.48c15.74-15.75 28.35-34.3 37.2-54.74 9.58-22.14 14.52-46 14.52-70.14 0-24.13-4.94-48-14.53-70.14-8.84-20.44-21.45-39-37.2-54.74-15.74-15.74-34.3-28.35-54.72-37.2C246.78 5.95 222.9 1 198.78 1c-24.13 0-48 4.94-70.14 14.53-20.44 8.84-39 21.45-54.73 37.2-15.74 15.74-28.35 34.3-37.2 54.73-9.58 22.14-14.52 46-14.52 70.14 0 24.13 4.94 48 14.53 70.14 8.85 20.44 21.46 39 37.2 54.73 15.75 15.75 34.3 28.36 54.74 37.2 22.14 9.6 46 14.53 70.14 14.53 24.13 0 48-4.94 70.14-14.53 20.44-8.84 39-21.45 54.74-37.2z"/>
  </g>
  <g id="outline-dark">
    <path opacity=".1" fill="none" stroke="#000" stroke-width="2" stroke-linecap="round" stroke-linejoin="round" d="M323.66 302.48c15.74-15.75 28.35-34.3 37.2-54.74 9.58-22.14 14.52-46 14.52-70.14 0-24.13-4.94-48-14.53-70.14-8.84-20.44-21.45-39-37.2-54.74-15.74-15.74-34.3-28.35-54.72-37.2C246.78 5.95 222.9 1 198.78 1c-24.13 0-48 4.94-70.14 14.53-20.44 8.84-39 21.45-54.73 37.2-15.74 15.74-28.35 34.3-37.2 54.73-9.58 22.14-14.52 46-14.52 70.14 0 24.13 4.94 48 14.53 70.14 8.85 20.44 21.46 39 37.2 54.73 15.75 15.75 34.3 28.36 54.74 37.2 22.14 9.6 46 14.53 70.14 14.53 24.13 0 48-4.94 70.14-14.53 20.44-8.84 39-21.45 54.74-37.2z"/>
  </g>
  <g id="ring_out">
    <path fill="none" stroke="#42F9DA" stroke-width="4" stroke-linecap="round" stroke-miterlimit="10" d="M375.7 243.6c-3.95 1.02-7.94 1.7-11.98 2.23-4.9.64-9.84 1-14.78 1.2-12.2.5-24.7.02-36.83-.9-40.74-3.16-86.22-12.32-125.54-22.85-39.32-10.52-83.3-25.3-120.17-42.9-11-5.26-22.08-11.1-32.4-17.6-4.18-2.66-8.26-5.44-12.2-8.44-3.24-2.48-6.35-5.07-9.27-7.93"/>
  </g>
</svg>
