<?xml version="1.0" encoding="utf-8"?>
<!-- Generator: Adobe Illustrator 16.0.0, SVG Export Plug-In . SVG Version: 6.00 Build 0)  -->
<!DOCTYPE svg PUBLIC "-//W3C//DTD SVG 1.1//EN" "http://www.w3.org/Graphics/SVG/1.1/DTD/svg11.dtd">
<svg version="1.1" id="Layer_1" xmlns="http://www.w3.org/2000/svg" xmlns:xlink="http://www.w3.org/1999/xlink" x="0px" y="0px"
	 width="950px" height="580px" viewBox="-237.1 -145.595 950 580" enable-background="new -237.1 -145.595 950 580"
	 xml:space="preserve">
	<g id="superthin">
		<path fill="none" stroke="#455A64" stroke-width="0.5" stroke-linecap="round" stroke-linejoin="round" d="M241.68,182.96h5.22
			 M142.15,201.12v14.33"/>
		<path fill="none" stroke="#455A64" stroke-width="0.5" stroke-linecap="round" stroke-linejoin="round" d="M139.55,201.12v14.33
			 M170.94,124.12v63.1 M168.34,124.12v63.1 M243.86,164.57L323.281,97 M247.24,168.54l79.42-67.56 M148,249.54l61.4-52.24
			 M95.63,203.53l15.76,27.85 M47.26,118.05l33.3,58.86 M273.3,84.78H164.87 M134.3,84.78H66.65 M160.35,93.469H278.6
			c5.46,0,10.34,3.4,12.229,8.53c1.9,5.13,0.371,10.9-3.799,14.431c-28.301,24.1-56.631,48.17-84.951,72.26 M107.64,125.64l-0.87,2
			l1.13,0.5l0.8-2.061L107.64,125.64z M394.64,66l-33.1,28.16 M396.33,68l-33.1,28.15"/>

			<circle fill="none" stroke="#455A64" stroke-width="0.5" stroke-linecap="round" stroke-linejoin="round" cx="190.96" cy="158.44" r="1.45"/>
	</g>
	<g id="thin">
		<path fill="none" stroke="#455A64" stroke-width="0.75" stroke-linecap="round" stroke-linejoin="round" d="M395.371,71.35
			c1.699,0.04,3.299-0.92,4.029-2.471c0.74-1.55,0.5-3.38-0.6-4.699c-1.121-1.301-2.9-1.82-4.541-1.341
			c-1.639,0.48-2.85,1.9-3.08,3.58"/>
		<path fill="none" stroke="#455A64" stroke-width="0.75" stroke-linecap="round" stroke-linejoin="round" d="M366.701,95.74
			c-0.23,1.7-1.441,3.1-3.102,3.6c-1.629,0.471-3.398-0.06-4.52-1.37c-1.1-1.3-1.35-3.14-0.6-4.699c0.73-1.53,2.301-2.5,4.029-2.46"
			/>
		<path fill="none" stroke="#455A64" stroke-width="0.75" stroke-linecap="round" stroke-linejoin="round" d="M377.74,13.67
			c-27.1-4.2-53.279,11.65-62.119,37.601"/>
		<path fill="none" stroke="#455A64" stroke-width="0.75" stroke-linecap="round" stroke-linejoin="round" d="M238.93,172.18
			l92.659-78.801"/>
		<path fill="none" stroke="#455A64" stroke-width="0.75" stroke-linecap="round" stroke-linejoin="round" d="M380.019,124.9
			c26.9-5.32,46.102-29.17,45.521-56.58"/>
		<path fill="none" stroke="#455A64" stroke-width="0.75" stroke-linecap="round" stroke-linejoin="round" d="M134.82,124.12h28.2"/>
		<path fill="none" stroke="#455A64" stroke-width="0.75" stroke-linecap="round" stroke-linejoin="round" d="M176.25,124.12h28.08"
			/>
		<path fill="none" stroke="#455A64" stroke-width="0.75" stroke-linecap="round" stroke-linejoin="round" d="M149.6,155.43
			l-9.3,5.25"/>
		<path fill="none" stroke="#455A64" stroke-width="0.75" stroke-linecap="round" stroke-linejoin="round" d="M149.6,155.43V144.76"
			/>
		<path fill="none" stroke="#455A64" stroke-width="0.75" stroke-linecap="round" stroke-linejoin="round" d="M359.33,50.6
			c3.24,0.54,6.5-1,8.121-3.851c1.619-2.85,1.299-6.43-0.84-8.939c-2.121-2.5-5.602-3.4-8.682-2.25c-3.08,1.149-5.1,4.1-5.08,7.399"
			/>
	</g>
	<g id="thick">
		<path fill="none" stroke="#455A64" stroke-width="3" stroke-linecap="round" stroke-linejoin="round" d="M357.66,120.36
			c22.201,4.979,45.061-5,56.5-24.68c11.42-19.671,8.781-44.48-6.539-61.301c-15.301-16.819-39.771-21.76-60.42-12.22
			c-20.65,9.55-32.73,31.38-29.84,53.95"/>
		<path fill="none" stroke="#455A64" stroke-width="2" stroke-linecap="round" stroke-linejoin="round" d="M114.94,251.77
			c-4.6,5.46-5.94,12.97-3.5,19.68c2.42,6.72,8.25,11.63,15.3,12.88c7.03,1.25,14.2-1.359,18.8-6.83c4.58-5.47,5.9-12.979,3.46-19.7"
			/>
		<path fill="none" stroke="#455A64" stroke-width="2.5" stroke-linecap="round" stroke-linejoin="round" d="M52.5,70.87
			c-4.95-8.58-14.1-13.88-24-13.9C18.58,56.95,9.4,62.21,4.4,70.77c-4.98,8.56-5.04,19.14-0.14,27.75
			c4.9,8.62,14.02,13.979,23.93,14.06"/>

			<circle fill="#009CCC" stroke="#455A64" stroke-width="2" stroke-linecap="round" stroke-linejoin="round" cx="28.43" cy="84.78" r="6.95"/>

			<circle fill="#009CCC" stroke="#455A64" stroke-width="2" stroke-linecap="round" stroke-linejoin="round" cx="130.22" cy="264.65" r="6.95"/>

			<circle fill="#009CCC" stroke="#455A64" stroke-width="2" stroke-linecap="round" stroke-linejoin="round" cx="341.691" cy="84.78" r="6.95"/>
		<path fill="none" stroke="#455A64" stroke-width="2" stroke-linecap="round" stroke-linejoin="round" d="M28.43,77.83h274.2
			 M114.94,251.77L22.38,88.2 M235.95,183.84L149,257.8 M235.95,178.62v5.22"/>
	</g>
	<g id="orange">

			<circle fill="#F27E30" stroke="#455A64" stroke-width="0.5" stroke-linecap="round" stroke-linejoin="round" cx="362.39" cy="95.16" r="1.3"/>

			<circle fill="#F27E30" stroke="#455A64" stroke-width="0.5" stroke-linecap="round" stroke-linejoin="round" cx="395.48" cy="67.01" r="1.3"/>

			<circle fill="#F27E30" stroke="#455A64" stroke-width="0.75" stroke-linecap="round" stroke-linejoin="round" cx="140.85" cy="215.45" r="3.48"/>
		<path fill="#F27E30" stroke="#455A64" stroke-width="0.5" stroke-linecap="round" stroke-linejoin="round" d="M48.17,70.87h8.7
			v1.74h-8.7V70.87z"/>
		<path fill="#F27E30" stroke="#455A64" stroke-width="0.5" stroke-linecap="round" stroke-linejoin="round" d="M27.57,107.94
			l4.27,7.56l-1.5,0.86l-4.3-7.57L27.57,107.94z"/>
		<path fill="#F27E30" stroke="#455A64" stroke-width="0.5" stroke-linecap="round" stroke-linejoin="round" d="M188.05,150.7
			l-0.36,3.93l5.64,0.4l0.32-3.87L188.05,150.7z"/>
	</g>
	<g id="orange-circle">

			<circle fill="none" stroke="#F27E30" stroke-width="2.25" stroke-linecap="round" stroke-linejoin="round" cx="219.09" cy="124.12" r="10.43"/>
	</g>
	<g id="pure-red">
		<path fill="#FF8080" stroke="#FF8080" stroke-width="0.35" stroke-linecap="round" stroke-linejoin="round" d="M392.839,33.13v1.62
			h2.352l-0.031-1.62H392.839z"/>
		<path fill="#FF8080" stroke="#FF8080" stroke-width="0.35" stroke-linecap="round" stroke-linejoin="round" d="M110.46,126.3v3.641
			h1.96v-3.62L110.46,126.3z"/>

			<circle fill="#FF8080" stroke="#FF8080" stroke-width="0.35" stroke-linecap="round" stroke-linejoin="round" cx="340.121" cy="60.35" r="0.87"/>

			<circle fill="#FF8080" stroke="#FF8080" stroke-width="0.35" stroke-linecap="round" stroke-linejoin="round" cx="357.24" cy="45.79" r="0.87"/>
	</g>
	<g id="teal">
		<path fill="#4CD8AD" stroke="#455A64" stroke-width="0.5" stroke-linecap="round" stroke-linejoin="round" d="M117.48,243.9
			l-6.84-12.101l1.5-0.85l6.86,12.1L117.48,243.9z"/>
		<path fill="#4CD8AD" stroke="#455A64" stroke-width="0.5" stroke-linecap="round" stroke-linejoin="round" d="M273.3,83.9h13.9
			v1.75h-13.9V83.9z"/>

			<circle fill="#4CD8AD" stroke="#455A64" stroke-width="0.75" stroke-linecap="round" stroke-linejoin="round" cx="229.51" cy="124.12" r="2.68"/>
	</g>
	<g id="pure-teal">
		<path fill="#4CD8AD" stroke="#4CD8AD" stroke-width="0.75" stroke-linecap="round" stroke-linejoin="round" d="M101.57,121.83v7.95
			h4.12v-7.95H101.57z"/>

			<circle fill="#4CD8AD" stroke="#4CD8AD" stroke-width="0.75" stroke-linecap="round" stroke-linejoin="round" cx="201.83" cy="151.17" r="4.2"/>

			<circle fill="#4CD8AD" stroke="#4CD8AD" stroke-width="0.5" stroke-linecap="round" stroke-linejoin="round" cx="390.8" cy="38.01" r="2.63"/>
		<path fill="#4CD8AD" stroke="#4CD8AD" stroke-width="1.25" stroke-linecap="round" stroke-linejoin="round" d="M127,189.82h56.48
			v8.7H127V189.82z"/>

			<circle fill="#4CD8AD" stroke="#4CD8AD" stroke-width="0.35" stroke-linecap="round" stroke-linejoin="round" cx="360.66" cy="42.88" r="0.87"/>

			<circle fill="#4CD8AD" stroke="#4CD8AD" stroke-width="0.35" stroke-linecap="round" stroke-linejoin="round" cx="350.39" cy="51.61" r="0.87"/>
	</g>
	<g id="light-blue">

			<circle fill="#81D4FA" stroke="#455A64" stroke-width="0.5" stroke-linecap="round" stroke-linejoin="round" cx="127" cy="198.51" r="1.3"/>
		<path fill="#81D4FA" stroke="#455A64" stroke-width="0.5" stroke-linecap="round" stroke-linejoin="round" d="M80.7,179.82
			l-1.28-2.271l2.28-1.3l1.28,2.28L80.7,179.82z"/>
		<path fill="#81D4FA" stroke="#455A64" stroke-width="0.5" stroke-linecap="round" stroke-linejoin="round" d="M134.3,83.469h2.6
			v2.601h-2.6V83.469z"/>

			<circle fill="#81D4FA" stroke="#455A64" stroke-width="0.5" stroke-linecap="round" stroke-linejoin="round" cx="355.97" cy="119.95" r="1.74"/>

			<circle fill="#81D4FA" stroke="#455A64" stroke-width="0.5" stroke-linecap="round" stroke-linejoin="round" cx="317.611" cy="77.83" r="1.74"/>
		<path fill="#81D4FA" stroke="#455A64" stroke-width="0.5" stroke-linecap="round" stroke-linejoin="round" d="M162.27,83.469h2.6
			v2.601h-2.6V83.469z"/>
		<path fill="#81D4FA" stroke="#455A64" stroke-width="0.5" stroke-linecap="round" stroke-linejoin="round" d="M94.5,204.17
			l-1.3-2.27l2.27-1.3l1.3,2.279L94.5,204.17z"/>
		<path fill="#81D4FA" stroke="#455A64" stroke-width="0.5" stroke-linecap="round" stroke-linejoin="round" d="M182.18,188.52h2.6
			v2.6h-2.6V188.52z"/>

			<circle fill="#81D4FA" stroke="#455A64" stroke-width="0.5" stroke-linecap="round" stroke-linejoin="round" cx="205.74" cy="193" r="5.65"/>
		<path fill="#81D4FA" stroke="#455A64" stroke-width="0.5" stroke-linecap="round" stroke-linejoin="round" d="M238.93,178.62h1.739
			v8.7h-1.739V178.62z"/>

			<circle fill="#81D4FA" stroke="#455A64" stroke-width="0.75" stroke-linecap="round" stroke-linejoin="round" cx="169.64" cy="124.12" r="4.34"/>
	</g>
	<g id="pure-light-blue">

			<circle fill="#81D4FA" stroke="#81D4FA" stroke-width="0.5" stroke-linecap="round" stroke-linejoin="round" cx="251.05" cy="182.96" r="3.14"/>

			<circle fill="#81D4FA" stroke="#81D4FA" stroke-width="0.5" stroke-linecap="round" stroke-linejoin="round" cx="99.24" cy="132.37" r="1.74"/>

			<circle fill="#81D4FA" stroke="#81D4FA" stroke-width="0.5" stroke-linecap="round" stroke-linejoin="round" cx="235.95" cy="174.71" r="2.17"/>
		<path fill="#81D4FA" stroke="#81D4FA" stroke-width="0.5" stroke-linecap="round" stroke-linejoin="round" d="M359.97,56.13
			l-12.201,10.4l1.551,1.84l12.221-10.4L359.97,56.13z M395.72,35.95l0.02,2.16l3.141,0.02v-2.16L395.72,35.95z M385.099,89.12v1.64
			h2.371v-1.64H385.099z"/>
		<path fill="#81D4FA" stroke="#81D4FA" stroke-width="0.75" stroke-linecap="round" stroke-linejoin="round" d="M105.56,131.77
			v5.199h5.7v-5.199H105.56z"/>

			<circle fill="#81D4FA" stroke="#81D4FA" stroke-width="0.35" stroke-linecap="round" stroke-linejoin="round" cx="336.701" cy="63.26" r="0.87"/>

			<circle fill="#81D4FA" stroke="#81D4FA" stroke-width="0.35" stroke-linecap="round" stroke-linejoin="round" cx="343.55" cy="57.44" r="0.87"/>

			<circle fill="#81D4FA" stroke="#81D4FA" stroke-width="0.35" stroke-linecap="round" stroke-linejoin="round" cx="353.81" cy="48.7" r="0.87"/>
	</g>
	<g id="yellow">
		<path fill="#FFC107" stroke="#455A64" stroke-width="0.5" stroke-linecap="round" stroke-linejoin="round" d="M52.76,83.9h13.9
			v1.75h-13.9V83.9z"/>
		<path fill="#FFC107" stroke="#455A64" stroke-width="0.5" stroke-linecap="round" stroke-linejoin="round" d="M46.5,118.48
			l-6.84-12.101l1.5-0.85l6.86,12.1L46.5,118.48z"/>

			<circle fill="#FFC107" stroke="#455A64" stroke-width="0.5" stroke-linecap="round" stroke-linejoin="round" cx="251.05" cy="182.96" r="1.57"/>

			<circle fill="#FFC107" stroke="#455A64" stroke-width="0.5" stroke-linecap="round" stroke-linejoin="round" cx="169.64" cy="124.12" r="1.3"/>
		<path fill="#FFC107" stroke="#455A64" stroke-width="0.75" stroke-linecap="round" stroke-linejoin="round" d="M157.02,93.469h3.34
			v3.341h-3.34V93.469z"/>
		<path fill="#FFC107" stroke="#455A64" stroke-width="0.75" stroke-linecap="round" stroke-linejoin="round" d="M148,249.53
			l-2.55,2.17l-2.17-2.55l2.55-2.16L148,249.53z"/>
	</g>
	<g id="pure-yellow">
		<path fill="#FFC107" stroke="#FFC107" stroke-width="0.35" stroke-linecap="round" stroke-linejoin="round" d="M355.361,57.719
			l2.5-2.119l1.738,2.05l-2.5,2.12L355.361,57.719z"/>
		<path fill="#FFC107" stroke="#FFC107" stroke-width="0.35" stroke-linecap="round" stroke-linejoin="round" d="M102.43,134.15
			l-0.88,2l1.13,0.5l0.8-2.061L102.43,134.15z"/>
		<path fill="#FFC107" stroke="#FFC107" stroke-width="0.5" stroke-linecap="round" stroke-linejoin="round" d="M219.1,124.12
			l-1.5,2.4l3.48,2.17l1.48-2.4L219.1,124.12z"/>

			<circle fill="#FFC107" stroke="#FFC107" stroke-width="0.35" stroke-linecap="round" stroke-linejoin="round" cx="346.97" cy="54.52" r="0.87"/>
		<path fill="#FFC107" stroke="#FFC107" stroke-width="0.75" stroke-linecap="round" stroke-linejoin="round" d="M196.8,161.8
			l-2.1-2.13l2.1-2.12l2.14,2.12L196.8,161.8z"/>

			<circle fill="#FFC107" stroke="#FFC107" stroke-width="0.75" stroke-linecap="round" stroke-linejoin="round" cx="391.919" cy="88.66" r="2.92"/>
	</g>
	<g id="gradient-v">
		<g id="v-shapes">

				<linearGradient id="SVGID_1_" gradientUnits="userSpaceOnUse" x1="-124.4097" y1="465.571" x2="-124.4097" y2="357.5407" gradientTransform="matrix(1 0 0 -1 274 499.3101)">
				<stop  offset="0" style="stop-color:#FA649B"/>
				<stop  offset="1" style="stop-color:#FFD73C"/>
			</linearGradient>

				<linearGradient id="SVGID_2_" gradientUnits="userSpaceOnUse" x1="-124.4097" y1="465.5691" x2="-124.4097" y2="357.5426" gradientTransform="matrix(1 0 0 -1 274 499.3101)">
				<stop  offset="0" style="stop-color:#FA649B"/>
				<stop  offset="1" style="stop-color:#FFD73C"/>
			</linearGradient>

				<circle fill="url(#SVGID_1_)" stroke="url(#SVGID_2_)" stroke-width="0.5" stroke-miterlimit="10" cx="149.59" cy="107.38" r="1.74"/>

				<linearGradient id="SVGID_3_" gradientUnits="userSpaceOnUse" x1="-124.4199" y1="465.5496" x2="-124.4199" y2="357.5496" gradientTransform="matrix(1 0 0 -1 274 499.3101)">
				<stop  offset="0" style="stop-color:#FA649B"/>
				<stop  offset="1" style="stop-color:#FFD73C"/>
			</linearGradient>

				<linearGradient id="SVGID_4_" gradientUnits="userSpaceOnUse" x1="-124.4199" y1="465.5496" x2="-124.4199" y2="357.5496" gradientTransform="matrix(1 0 0 -1 274 499.3101)">
				<stop  offset="0" style="stop-color:#FA649B"/>
				<stop  offset="1" style="stop-color:#FFD73C"/>
			</linearGradient>
			<path fill="url(#SVGID_3_)" stroke="url(#SVGID_4_)" stroke-width="0.5" stroke-miterlimit="10" d="M148.28,128.68h2.6v2.6h-2.6
				V128.68z"/>

				<linearGradient id="SVGID_5_" gradientUnits="userSpaceOnUse" x1="-124.4102" y1="465.5496" x2="-124.4102" y2="357.5496" gradientTransform="matrix(1 0 0 -1 274 499.3101)">
				<stop  offset="0" style="stop-color:#FA649B"/>
				<stop  offset="1" style="stop-color:#FFD73C"/>
			</linearGradient>

				<linearGradient id="SVGID_6_" gradientUnits="userSpaceOnUse" x1="-124.4102" y1="465.5496" x2="-124.4102" y2="357.5496" gradientTransform="matrix(1 0 0 -1 274 499.3101)">
				<stop  offset="0" style="stop-color:#FA649B"/>
				<stop  offset="1" style="stop-color:#FFD73C"/>
			</linearGradient>

				<circle fill="url(#SVGID_5_)" stroke="url(#SVGID_6_)" stroke-width="0.5" stroke-miterlimit="10" cx="149.59" cy="84.78" r="2.17"/>

				<linearGradient id="SVGID_7_" gradientUnits="userSpaceOnUse" x1="-124.4097" y1="465.5496" x2="-124.4097" y2="357.5496" gradientTransform="matrix(1 0 0 -1 274 499.3101)">
				<stop  offset="0" style="stop-color:#FA649B"/>
				<stop  offset="1" style="stop-color:#FFD73C"/>
			</linearGradient>

				<linearGradient id="SVGID_8_" gradientUnits="userSpaceOnUse" x1="-124.4097" y1="465.5496" x2="-124.4097" y2="357.5496" gradientTransform="matrix(1 0 0 -1 274 499.3101)">
				<stop  offset="0" style="stop-color:#FA649B"/>
				<stop  offset="1" style="stop-color:#FFD73C"/>
			</linearGradient>

				<circle fill="url(#SVGID_7_)" stroke="url(#SVGID_8_)" stroke-width="0.5" stroke-miterlimit="10" cx="149.59" cy="96.08" r="0.87"/>

				<linearGradient id="SVGID_9_" gradientUnits="userSpaceOnUse" x1="-124.4097" y1="465.5515" x2="-124.4097" y2="357.5515" gradientTransform="matrix(1 0 0 -1 274 499.3101)">
				<stop  offset="0" style="stop-color:#FA649B"/>
				<stop  offset="1" style="stop-color:#FFD73C"/>
			</linearGradient>

				<linearGradient id="SVGID_10_" gradientUnits="userSpaceOnUse" x1="-124.4097" y1="465.5515" x2="-124.4097" y2="357.5515" gradientTransform="matrix(1 0 0 -1 274 499.3101)">
				<stop  offset="0" style="stop-color:#FA649B"/>
				<stop  offset="1" style="stop-color:#FFD73C"/>
			</linearGradient>

				<circle fill="url(#SVGID_9_)" stroke="url(#SVGID_10_)" stroke-width="0.5" stroke-miterlimit="10" cx="149.59" cy="141.29" r="0.87"/>

				<linearGradient id="SVGID_11_" gradientUnits="userSpaceOnUse" x1="-124.4199" y1="465.5027" x2="-124.4199" y2="357.5626" gradientTransform="matrix(1 0 0 -1 274 499.3101)">
				<stop  offset="0" style="stop-color:#FA649B"/>
				<stop  offset="1" style="stop-color:#FFD73C"/>
			</linearGradient>

				<linearGradient id="SVGID_12_" gradientUnits="userSpaceOnUse" x1="-124.4209" y1="465.5134" x2="-124.4209" y2="357.5601" gradientTransform="matrix(1 0 0 -1 274 499.3101)">
				<stop  offset="0" style="stop-color:#FA649B"/>
				<stop  offset="1" style="stop-color:#FFD73C"/>
			</linearGradient>
			<path fill="url(#SVGID_11_)" stroke="url(#SVGID_12_)" stroke-width="0.5" stroke-miterlimit="10" d="M148.7,117.8h1.76v1.761
				h-1.75L148.7,117.8z"/>
		</g>
	</g>
	<g id="gradient-h">
		<g id="h-shapes">

				<linearGradient id="SVGID_13_" gradientUnits="userSpaceOnUse" x1="-231.0796" y1="283.3279" x2="-135.4196" y2="337.6579" gradientTransform="matrix(1 0 0 -1 274 499.3101)">
				<stop  offset="0" style="stop-color:#FA649B"/>
				<stop  offset="1" style="stop-color:#FFD73C"/>
			</linearGradient>

				<linearGradient id="SVGID_14_" gradientUnits="userSpaceOnUse" x1="-231.0796" y1="283.3279" x2="-135.4196" y2="337.6579" gradientTransform="matrix(1 0 0 -1 274 499.3101)">
				<stop  offset="0" style="stop-color:#FA649B"/>
				<stop  offset="1" style="stop-color:#FFD73C"/>
			</linearGradient>

				<circle fill="url(#SVGID_13_)" stroke="url(#SVGID_14_)" stroke-width="0.5" stroke-miterlimit="10" cx="137.28" cy="162.39" r="0.87"/>

				<linearGradient id="SVGID_15_" gradientUnits="userSpaceOnUse" x1="-231.0889" y1="283.3435" x2="-135.4289" y2="337.6735" gradientTransform="matrix(1 0 0 -1 274 499.3101)">
				<stop  offset="0" style="stop-color:#FA649B"/>
				<stop  offset="1" style="stop-color:#FFD73C"/>
			</linearGradient>

				<linearGradient id="SVGID_16_" gradientUnits="userSpaceOnUse" x1="-231.0889" y1="283.3435" x2="-135.4289" y2="337.6735" gradientTransform="matrix(1 0 0 -1 274 499.3101)">
				<stop  offset="0" style="stop-color:#FA649B"/>
				<stop  offset="1" style="stop-color:#FFD73C"/>
			</linearGradient>
			<path fill="url(#SVGID_15_)" stroke="url(#SVGID_16_)" stroke-width="0.5" stroke-miterlimit="10" d="M129.22,168.45l-1.28-2.27
				l-2.27,1.279l1.28,2.271L129.22,168.45z"/>

				<linearGradient id="SVGID_17_" gradientUnits="userSpaceOnUse" x1="-231.1235" y1="283.363" x2="-135.4367" y2="337.7083" gradientTransform="matrix(1 0 0 -1 274 499.3101)">
				<stop  offset="0" style="stop-color:#FA649B"/>
				<stop  offset="1" style="stop-color:#FFD73C"/>
			</linearGradient>

				<linearGradient id="SVGID_18_" gradientUnits="userSpaceOnUse" x1="-231.1216" y1="283.365" x2="-135.4381" y2="337.7083" gradientTransform="matrix(1 0 0 -1 274 499.3101)">
				<stop  offset="0" style="stop-color:#FA649B"/>
				<stop  offset="1" style="stop-color:#FFD73C"/>
			</linearGradient>

				<circle fill="url(#SVGID_17_)" stroke="url(#SVGID_18_)" stroke-width="0.5" stroke-miterlimit="10" cx="107.77" cy="179.09" r="1.74"/>

				<linearGradient id="SVGID_19_" gradientUnits="userSpaceOnUse" x1="-231.1333" y1="283.3992" x2="-135.4518" y2="337.7414" gradientTransform="matrix(1 0 0 -1 274 499.3101)">
				<stop  offset="0" style="stop-color:#FA649B"/>
				<stop  offset="1" style="stop-color:#FFD73C"/>
			</linearGradient>

				<linearGradient id="SVGID_20_" gradientUnits="userSpaceOnUse" x1="-231.1323" y1="283.4001" x2="-135.453" y2="337.7411" gradientTransform="matrix(1 0 0 -1 274 499.3101)">
				<stop  offset="0" style="stop-color:#FA649B"/>
				<stop  offset="1" style="stop-color:#FFD73C"/>
			</linearGradient>

				<circle fill="url(#SVGID_19_)" stroke="url(#SVGID_20_)" stroke-width="0.5" stroke-miterlimit="10" cx="88.1" cy="190.22" r="2.17"/>

				<linearGradient id="SVGID_21_" gradientUnits="userSpaceOnUse" x1="-231.0977" y1="283.3591" x2="-135.4377" y2="337.6891" gradientTransform="matrix(1 0 0 -1 274 499.3101)">
				<stop  offset="0" style="stop-color:#FA649B"/>
				<stop  offset="1" style="stop-color:#FFD73C"/>
			</linearGradient>

				<linearGradient id="SVGID_22_" gradientUnits="userSpaceOnUse" x1="-231.1309" y1="283.3406" x2="-135.4293" y2="337.6942" gradientTransform="matrix(1 0 0 -1 274 499.3101)">
				<stop  offset="0" style="stop-color:#FA649B"/>
				<stop  offset="1" style="stop-color:#FFD73C"/>
			</linearGradient>
			<path fill="url(#SVGID_21_)" stroke="url(#SVGID_22_)" stroke-width="0.5" stroke-miterlimit="10" d="M118.8,173.85l-0.86-1.521
				l-1.52,0.86l0.86,1.52L118.8,173.85z"/>

				<linearGradient id="SVGID_23_" gradientUnits="userSpaceOnUse" x1="-231.147" y1="283.3728" x2="-135.4333" y2="337.7333" gradientTransform="matrix(1 0 0 -1 274 499.3101)">
				<stop  offset="0" style="stop-color:#FA649B"/>
				<stop  offset="1" style="stop-color:#FFD73C"/>
			</linearGradient>

				<linearGradient id="SVGID_24_" gradientUnits="userSpaceOnUse" x1="-231.1401" y1="283.3767" x2="-135.4384" y2="337.7304" gradientTransform="matrix(1 0 0 -1 274 499.3101)">
				<stop  offset="0" style="stop-color:#FA649B"/>
				<stop  offset="1" style="stop-color:#FFD73C"/>
			</linearGradient>

				<circle fill="url(#SVGID_23_)" stroke="url(#SVGID_24_)" stroke-width="0.5" stroke-miterlimit="10" cx="97.94" cy="184.65" r="0.87"/>
		</g>
	</g>
	<g id="superthick">
		<path fill="none" stroke="#FFC107" stroke-width="5" stroke-linecap="round" stroke-linejoin="round" d="M351.781,76.2
			c10.92-9.3,21.84-18.6,32.76-27.87h48.08C422.25,17.15,390.8-1.9,358.371,3.37C325.929,8.63,302.1,36.63,302.1,69.5"/>

			<circle fill="none" stroke="#FFC107" stroke-width="5" stroke-linecap="round" stroke-linejoin="round" cx="104.96" cy="129.41" r="26.07"/>
	</g>
	<g id="category-pointers">
		<path id="sandbox-pointer" fill="none" stroke="#FFCC5A" stroke-width="1.5" stroke-linecap="round" stroke-linejoin="round" d="
			M26.7,81.6L8.2,48.93H-17"/>
		<path id="scenes-pointer" fill="none" stroke="#FFCC5A" stroke-width="1.5" stroke-linecap="round" stroke-linejoin="round" d="
			M131.9,267.53l11.68,20.63h28.8"/>
		<path id="litmus-pointer" fill="none" stroke="#FFCC5A" stroke-width="1.5" stroke-linecap="round" stroke-linejoin="round" d="
			M344.3,82.37l40.199-34.2H457.8"/>
	</g>
	<g>
		<path fill="#D8564C" stroke="#D8564C" stroke-width="0.5" d="M-208,40.5h126c2.761,0,5,2.239,5,5v89c0,2.762-2.239,5-5,5h-126
			c-2.761,0-5-2.238-5-5v-89C-213,42.739-210.761,40.5-208,40.5z"/>
		<path fill="#D8564C" stroke="#D8564C" stroke-width="0.5" d="M227,279h169c2.762,0,5,2.239,5,5v30.5c0,2.762-2.238,5-5,5H227
			c-2.761,0-5-2.238-5-5V284C222,281.239,224.239,279,227,279z"/>
		<path fill="#D8564C" stroke="#D8564C" stroke-width="0.5" d="M510,38.5h170c2.762,0,5,2.239,5,5v107c0,2.762-2.238,5-5,5H510
			c-2.762,0-5-2.238-5-5v-107C505,40.739,507.238,38.5,510,38.5z"/>
	</g>
	<g id="pulse-surround">

			<circle fill="#FAFAFA" stroke="#455A64" stroke-width="2" stroke-linecap="round" stroke-linejoin="round" cx="28.43" cy="84.78" r="6.95"/>

			<circle fill="#FAFAFA" stroke="#455A64" stroke-width="2" stroke-linecap="round" stroke-linejoin="round" cx="130.22" cy="264.65" r="6.95"/>

			<circle fill="#FAFAFA" stroke="#455A64" stroke-width="2" stroke-linecap="round" stroke-linejoin="round" cx="341.691" cy="84.78" r="6.95"/>
	</g>
	<g id="pulse-sandbox">

			<circle fill="#D84532" fill-opacity="0" stroke="#D84532" stroke-width="2" stroke-linecap="round" stroke-linejoin="round" cx="28.43" cy="84.78" r="3.48"/>

			<circle fill="#D84532" fill-opacity="0" stroke="#004266" stroke-linecap="round" stroke-linejoin="round" cx="28.43" cy="84.78" r="3.48"/>

			<circle fill="#D84532" fill-opacity="0" stroke="#D84532" stroke-width="1.5" stroke-linecap="round" stroke-linejoin="round" cx="28.43" cy="84.78" r="3.48"/>
	</g>
	<g id="pulse-scenes">

			<circle fill="#D84532" fill-opacity="0" stroke="#D84532" stroke-width="2" stroke-linecap="round" stroke-linejoin="round" cx="130.22" cy="264.65" r="3.48"/>

			<circle fill="#D84532" fill-opacity="0" stroke="#004266" stroke-linecap="round" stroke-linejoin="round" cx="130.22" cy="264.65" r="3.48"/>

			<circle fill="#D84532" fill-opacity="0" stroke="#D84532" stroke-linecap="round" stroke-linejoin="round" cx="130.22" cy="264.65" r="3.48"/>
	</g>
	<g id="pulse-litmus">

			<circle fill="#D84532" fill-opacity="0" stroke="#D84532" stroke-width="2" stroke-linecap="round" stroke-linejoin="round" cx="341.691" cy="84.78" r="3.48"/>

			<circle fill="#D84532" fill-opacity="0" stroke="#004266" stroke-linecap="round" stroke-linejoin="round" cx="341.691" cy="84.78" r="3.48"/>

			<circle fill="#D84532" fill-opacity="0" stroke="#D84532" stroke-width="1.5" stroke-linecap="round" stroke-linejoin="round" cx="341.691" cy="84.78" r="3.48"/>
	</g>
</svg>

<svg xmlns:xlink="http://www.w3.org/1999/xlink" class="splash-lines dev-lines" viewBox="-237.1 -145.595 950 580">
	<g id="superthin" fill="none" stroke="#455A64" stroke-width="0.5" stroke-linecap="round" stroke-linejoin="round">
		<path d="M241.68,182.96h5.22
			 M142.15,201.12v14.33"/>
		<path d="M139.55,201.12v14.33
			 M170.94,124.12v63.1 M168.34,124.12v63.1 M243.86,164.57L323.281,97 M247.24,168.54l79.42-67.56 M148,249.54l61.4-52.24
			 M95.63,203.53l15.76,27.85 M47.26,118.05l33.3,58.86 M273.3,84.78H164.87 M134.3,84.78H66.65 M160.35,93.469H278.6
			c5.46,0,10.34,3.4,12.229,8.53c1.9,5.13,0.371,10.9-3.799,14.431c-28.301,24.1-56.631,48.17-84.951,72.26 M107.64,125.64l-0.87,2
			l1.13,0.5l0.8-2.061L107.64,125.64z M394.64,66l-33.1,28.16 M396.33,68l-33.1,28.15"/>
		<circle cx="190.96" cy="158.44" r="1.45"/>
	</g>
	<g id="thin" fill="none" stroke="#455A64" stroke-width="0.75" stroke-linecap="round" stroke-linejoin="round">
		<path d="M395.371,71.35
			c1.699,0.04,3.299-0.92,4.029-2.471c0.74-1.55,0.5-3.38-0.6-4.699c-1.121-1.301-2.9-1.82-4.541-1.341
			c-1.639,0.48-2.85,1.9-3.08,3.58"/>
		<path d="M366.701,95.74
			c-0.23,1.7-1.441,3.1-3.102,3.6c-1.629,0.471-3.398-0.06-4.52-1.37c-1.1-1.3-1.35-3.14-0.6-4.699c0.73-1.53,2.301-2.5,4.029-2.46"
			/>
		<path d="M377.74,13.67
			c-27.1-4.2-53.279,11.65-62.119,37.601"/>
		<path d="M238.93,172.18
			l92.659-78.801"/>
		<path d="M380.019,124.9
			c26.9-5.32,46.102-29.17,45.521-56.58"/>
		<path d="M134.82,124.12h28.2"/>
		<path d="M176.25,124.12h28.08"
			/>
		<path d="M149.6,155.43
			l-9.3,5.25"/>
		<path d="M149.6,155.43V144.76"
			/>
		<path d="M359.33,50.6
			c3.24,0.54,6.5-1,8.121-3.851c1.619-2.85,1.299-6.43-0.84-8.939c-2.121-2.5-5.602-3.4-8.682-2.25c-3.08,1.149-5.1,4.1-5.08,7.399"
			/>
	</g>
	<g id="thick" fill="none" stroke="#455A64" stroke-width="2" stroke-linecap="round" stroke-linejoin="round">
		<path stroke-width="3" d="M357.66,120.36
			c22.201,4.979,45.061-5,56.5-24.68c11.42-19.671,8.781-44.48-6.539-61.301c-15.301-16.819-39.771-21.76-60.42-12.22
			c-20.65,9.55-32.73,31.38-29.84,53.95"/>
		<path d="M114.94,251.77
			c-4.6,5.46-5.94,12.97-3.5,19.68c2.42,6.72,8.25,11.63,15.3,12.88c7.03,1.25,14.2-1.359,18.8-6.83c4.58-5.47,5.9-12.979,3.46-19.7"
			/>
		<path stroke-width="2.5" d="M52.5,70.87
			c-4.95-8.58-14.1-13.88-24-13.9C18.58,56.95,9.4,62.21,4.4,70.77c-4.98,8.56-5.04,19.14-0.14,27.75
			c4.9,8.62,14.02,13.979,23.93,14.06"/>
		<circle fill="#009CCC" cx="28.43" cy="84.78" r="6.95"/>
		<circle fill="#009CCC" cx="130.22" cy="264.65" r="6.95"/>
		<circle fill="#009CCC" cx="341.691" cy="84.78" r="6.95"/>
		<path d="M28.43,77.83h274.2
			 M114.94,251.77L22.38,88.2 M235.95,183.84L149,257.8 M235.95,178.62v5.22"/>
	</g>
	<g id="orange" fill="#F27E30" stroke="#455A64" stroke-width="0.5" stroke-linecap="round" stroke-linejoin="round">
		<circle cx="362.39" cy="95.16" r="1.3"/>
		<circle cx="395.48" cy="67.01" r="1.3"/>
		<circle fill="#F27E30" stroke="#455A64" stroke-width="0.75" stroke-linecap="round" stroke-linejoin="round" cx="140.85" cy="215.45" r="3.48"/>
		<path d="M48.17,70.87h8.7
			v1.74h-8.7V70.87z"/>
		<path d="M27.57,107.94
			l4.27,7.56l-1.5,0.86l-4.3-7.57L27.57,107.94z"/>
		<path d="M188.05,150.7
			l-0.36,3.93l5.64,0.4l0.32-3.87L188.05,150.7z"/>
	</g>
	<g id="orange-circle" fill="none" stroke="#F27E30" stroke-width="2.25" stroke-linecap="round" stroke-linejoin="round">
			<circle cx="219.09" cy="124.12" r="10.43"/>
	</g>
	<g id="pure-red" fill="#FF8080" stroke="#FF8080" stroke-width="0.35" stroke-linecap="round" stroke-linejoin="round">
		<path d="M392.839,33.13v1.62
			h2.352l-0.031-1.62H392.839z"/>
		<path d="M110.46,126.3v3.641
			h1.96v-3.62L110.46,126.3z"/>
		<circle cx="340.121" cy="60.35" r="0.87"/>
		<circle cx="357.24" cy="45.79" r="0.87"/>
	</g>
	<g id="teal">
		<path fill="#4CD8AD" stroke="#455A64" stroke-width="0.5" stroke-linecap="round" stroke-linejoin="round" d="M117.48,243.9
			l-6.84-12.101l1.5-0.85l6.86,12.1L117.48,243.9z"/>
		<path fill="#4CD8AD" stroke="#455A64" stroke-width="0.5" stroke-linecap="round" stroke-linejoin="round" d="M273.3,83.9h13.9
			v1.75h-13.9V83.9z"/>

			<circle fill="#4CD8AD" stroke="#455A64" stroke-width="0.75" stroke-linecap="round" stroke-linejoin="round" cx="229.51" cy="124.12" r="2.68"/>
	</g>
	<g id="pure-teal">
		<path fill="#4CD8AD" stroke="#4CD8AD" stroke-width="0.75" stroke-linecap="round" stroke-linejoin="round" d="M101.57,121.83v7.95
			h4.12v-7.95H101.57z"/>

			<circle fill="#4CD8AD" stroke="#4CD8AD" stroke-width="0.75" stroke-linecap="round" stroke-linejoin="round" cx="201.83" cy="151.17" r="4.2"/>

			<circle fill="#4CD8AD" stroke="#4CD8AD" stroke-width="0.5" stroke-linecap="round" stroke-linejoin="round" cx="390.8" cy="38.01" r="2.63"/>
		<path fill="#4CD8AD" stroke="#4CD8AD" stroke-width="1.25" stroke-linecap="round" stroke-linejoin="round" d="M127,189.82h56.48
			v8.7H127V189.82z"/>

			<circle fill="#4CD8AD" stroke="#4CD8AD" stroke-width="0.35" stroke-linecap="round" stroke-linejoin="round" cx="360.66" cy="42.88" r="0.87"/>

			<circle fill="#4CD8AD" stroke="#4CD8AD" stroke-width="0.35" stroke-linecap="round" stroke-linejoin="round" cx="350.39" cy="51.61" r="0.87"/>
	</g>
	<g id="light-blue">

			<circle fill="#81D4FA" stroke="#455A64" stroke-width="0.5" stroke-linecap="round" stroke-linejoin="round" cx="127" cy="198.51" r="1.3"/>
		<path fill="#81D4FA" stroke="#455A64" stroke-width="0.5" stroke-linecap="round" stroke-linejoin="round" d="M80.7,179.82
			l-1.28-2.271l2.28-1.3l1.28,2.28L80.7,179.82z"/>
		<path fill="#81D4FA" stroke="#455A64" stroke-width="0.5" stroke-linecap="round" stroke-linejoin="round" d="M134.3,83.469h2.6
			v2.601h-2.6V83.469z"/>

			<circle fill="#81D4FA" stroke="#455A64" stroke-width="0.5" stroke-linecap="round" stroke-linejoin="round" cx="355.97" cy="119.95" r="1.74"/>

			<circle fill="#81D4FA" stroke="#455A64" stroke-width="0.5" stroke-linecap="round" stroke-linejoin="round" cx="317.611" cy="77.83" r="1.74"/>
		<path fill="#81D4FA" stroke="#455A64" stroke-width="0.5" stroke-linecap="round" stroke-linejoin="round" d="M162.27,83.469h2.6
			v2.601h-2.6V83.469z"/>
		<path fill="#81D4FA" stroke="#455A64" stroke-width="0.5" stroke-linecap="round" stroke-linejoin="round" d="M94.5,204.17
			l-1.3-2.27l2.27-1.3l1.3,2.279L94.5,204.17z"/>
		<path fill="#81D4FA" stroke="#455A64" stroke-width="0.5" stroke-linecap="round" stroke-linejoin="round" d="M182.18,188.52h2.6
			v2.6h-2.6V188.52z"/>

			<circle fill="#81D4FA" stroke="#455A64" stroke-width="0.5" stroke-linecap="round" stroke-linejoin="round" cx="205.74" cy="193" r="5.65"/>
		<path fill="#81D4FA" stroke="#455A64" stroke-width="0.5" stroke-linecap="round" stroke-linejoin="round" d="M238.93,178.62h1.739
			v8.7h-1.739V178.62z"/>

			<circle fill="#81D4FA" stroke="#455A64" stroke-width="0.75" stroke-linecap="round" stroke-linejoin="round" cx="169.64" cy="124.12" r="4.34"/>
	</g>
	<g id="pure-light-blue">

			<circle fill="#81D4FA" stroke="#81D4FA" stroke-width="0.5" stroke-linecap="round" stroke-linejoin="round" cx="251.05" cy="182.96" r="3.14"/>

			<circle fill="#81D4FA" stroke="#81D4FA" stroke-width="0.5" stroke-linecap="round" stroke-linejoin="round" cx="99.24" cy="132.37" r="1.74"/>

			<circle fill="#81D4FA" stroke="#81D4FA" stroke-width="0.5" stroke-linecap="round" stroke-linejoin="round" cx="235.95" cy="174.71" r="2.17"/>
		<path fill="#81D4FA" stroke="#81D4FA" stroke-width="0.5" stroke-linecap="round" stroke-linejoin="round" d="M359.97,56.13
			l-12.201,10.4l1.551,1.84l12.221-10.4L359.97,56.13z M395.72,35.95l0.02,2.16l3.141,0.02v-2.16L395.72,35.95z M385.099,89.12v1.64
			h2.371v-1.64H385.099z"/>
		<path fill="#81D4FA" stroke="#81D4FA" stroke-width="0.75" stroke-linecap="round" stroke-linejoin="round" d="M105.56,131.77
			v5.199h5.7v-5.199H105.56z"/>

			<circle fill="#81D4FA" stroke="#81D4FA" stroke-width="0.35" stroke-linecap="round" stroke-linejoin="round" cx="336.701" cy="63.26" r="0.87"/>

			<circle fill="#81D4FA" stroke="#81D4FA" stroke-width="0.35" stroke-linecap="round" stroke-linejoin="round" cx="343.55" cy="57.44" r="0.87"/>

			<circle fill="#81D4FA" stroke="#81D4FA" stroke-width="0.35" stroke-linecap="round" stroke-linejoin="round" cx="353.81" cy="48.7" r="0.87"/>
	</g>
	<g id="yellow">
		<path fill="#FFC107" stroke="#455A64" stroke-width="0.5" stroke-linecap="round" stroke-linejoin="round" d="M52.76,83.9h13.9
			v1.75h-13.9V83.9z"/>
		<path fill="#FFC107" stroke="#455A64" stroke-width="0.5" stroke-linecap="round" stroke-linejoin="round" d="M46.5,118.48
			l-6.84-12.101l1.5-0.85l6.86,12.1L46.5,118.48z"/>

			<circle fill="#FFC107" stroke="#455A64" stroke-width="0.5" stroke-linecap="round" stroke-linejoin="round" cx="251.05" cy="182.96" r="1.57"/>

			<circle fill="#FFC107" stroke="#455A64" stroke-width="0.5" stroke-linecap="round" stroke-linejoin="round" cx="169.64" cy="124.12" r="1.3"/>
		<path fill="#FFC107" stroke="#455A64" stroke-width="0.75" stroke-linecap="round" stroke-linejoin="round" d="M157.02,93.469h3.34
			v3.341h-3.34V93.469z"/>
		<path fill="#FFC107" stroke="#455A64" stroke-width="0.75" stroke-linecap="round" stroke-linejoin="round" d="M148,249.53
			l-2.55,2.17l-2.17-2.55l2.55-2.16L148,249.53z"/>
	</g>
	<g id="pure-yellow">
		<path fill="#FFC107" stroke="#FFC107" stroke-width="0.35" stroke-linecap="round" stroke-linejoin="round" d="M355.361,57.719
			l2.5-2.119l1.738,2.05l-2.5,2.12L355.361,57.719z"/>
		<path fill="#FFC107" stroke="#FFC107" stroke-width="0.35" stroke-linecap="round" stroke-linejoin="round" d="M102.43,134.15
			l-0.88,2l1.13,0.5l0.8-2.061L102.43,134.15z"/>
		<path fill="#FFC107" stroke="#FFC107" stroke-width="0.5" stroke-linecap="round" stroke-linejoin="round" d="M219.1,124.12
			l-1.5,2.4l3.48,2.17l1.48-2.4L219.1,124.12z"/>

			<circle fill="#FFC107" stroke="#FFC107" stroke-width="0.35" stroke-linecap="round" stroke-linejoin="round" cx="346.97" cy="54.52" r="0.87"/>
		<path fill="#FFC107" stroke="#FFC107" stroke-width="0.75" stroke-linecap="round" stroke-linejoin="round" d="M196.8,161.8
			l-2.1-2.13l2.1-2.12l2.14,2.12L196.8,161.8z"/>

			<circle fill="#FFC107" stroke="#FFC107" stroke-width="0.75" stroke-linecap="round" stroke-linejoin="round" cx="391.919" cy="88.66" r="2.92"/>
	</g>
	<g id="gradient-v">
		<g id="v-shapes">

				<linearGradient id="SVGID_1_" gradientUnits="userSpaceOnUse" x1="-124.4097" y1="465.571" x2="-124.4097" y2="357.5407" gradientTransform="matrix(1 0 0 -1 274 499.3101)">
				<stop  offset="0" style="stop-color:#FA649B"/>
				<stop  offset="1" style="stop-color:#FFD73C"/>
			</linearGradient>

				<linearGradient id="SVGID_2_" gradientUnits="userSpaceOnUse" x1="-124.4097" y1="465.5691" x2="-124.4097" y2="357.5426" gradientTransform="matrix(1 0 0 -1 274 499.3101)">
				<stop  offset="0" style="stop-color:#FA649B"/>
				<stop  offset="1" style="stop-color:#FFD73C"/>
			</linearGradient>

				<circle fill="url(#SVGID_1_)" stroke="url(#SVGID_2_)" stroke-width="0.5" stroke-miterlimit="10" cx="149.59" cy="107.38" r="1.74"/>

				<linearGradient id="SVGID_3_" gradientUnits="userSpaceOnUse" x1="-124.4199" y1="465.5496" x2="-124.4199" y2="357.5496" gradientTransform="matrix(1 0 0 -1 274 499.3101)">
				<stop  offset="0" style="stop-color:#FA649B"/>
				<stop  offset="1" style="stop-color:#FFD73C"/>
			</linearGradient>

				<linearGradient id="SVGID_4_" gradientUnits="userSpaceOnUse" x1="-124.4199" y1="465.5496" x2="-124.4199" y2="357.5496" gradientTransform="matrix(1 0 0 -1 274 499.3101)">
				<stop  offset="0" style="stop-color:#FA649B"/>
				<stop  offset="1" style="stop-color:#FFD73C"/>
			</linearGradient>
			<path fill="url(#SVGID_3_)" stroke="url(#SVGID_4_)" stroke-width="0.5" stroke-miterlimit="10" d="M148.28,128.68h2.6v2.6h-2.6
				V128.68z"/>

				<linearGradient id="SVGID_5_" gradientUnits="userSpaceOnUse" x1="-124.4102" y1="465.5496" x2="-124.4102" y2="357.5496" gradientTransform="matrix(1 0 0 -1 274 499.3101)">
				<stop  offset="0" style="stop-color:#FA649B"/>
				<stop  offset="1" style="stop-color:#FFD73C"/>
			</linearGradient>

				<linearGradient id="SVGID_6_" gradientUnits="userSpaceOnUse" x1="-124.4102" y1="465.5496" x2="-124.4102" y2="357.5496" gradientTransform="matrix(1 0 0 -1 274 499.3101)">
				<stop  offset="0" style="stop-color:#FA649B"/>
				<stop  offset="1" style="stop-color:#FFD73C"/>
			</linearGradient>

				<circle fill="url(#SVGID_5_)" stroke="url(#SVGID_6_)" stroke-width="0.5" stroke-miterlimit="10" cx="149.59" cy="84.78" r="2.17"/>

				<linearGradient id="SVGID_7_" gradientUnits="userSpaceOnUse" x1="-124.4097" y1="465.5496" x2="-124.4097" y2="357.5496" gradientTransform="matrix(1 0 0 -1 274 499.3101)">
				<stop  offset="0" style="stop-color:#FA649B"/>
				<stop  offset="1" style="stop-color:#FFD73C"/>
			</linearGradient>

				<linearGradient id="SVGID_8_" gradientUnits="userSpaceOnUse" x1="-124.4097" y1="465.5496" x2="-124.4097" y2="357.5496" gradientTransform="matrix(1 0 0 -1 274 499.3101)">
				<stop  offset="0" style="stop-color:#FA649B"/>
				<stop  offset="1" style="stop-color:#FFD73C"/>
			</linearGradient>

				<circle fill="url(#SVGID_7_)" stroke="url(#SVGID_8_)" stroke-width="0.5" stroke-miterlimit="10" cx="149.59" cy="96.08" r="0.87"/>

				<linearGradient id="SVGID_9_" gradientUnits="userSpaceOnUse" x1="-124.4097" y1="465.5515" x2="-124.4097" y2="357.5515" gradientTransform="matrix(1 0 0 -1 274 499.3101)">
				<stop  offset="0" style="stop-color:#FA649B"/>
				<stop  offset="1" style="stop-color:#FFD73C"/>
			</linearGradient>

				<linearGradient id="SVGID_10_" gradientUnits="userSpaceOnUse" x1="-124.4097" y1="465.5515" x2="-124.4097" y2="357.5515" gradientTransform="matrix(1 0 0 -1 274 499.3101)">
				<stop  offset="0" style="stop-color:#FA649B"/>
				<stop  offset="1" style="stop-color:#FFD73C"/>
			</linearGradient>

				<circle fill="url(#SVGID_9_)" stroke="url(#SVGID_10_)" stroke-width="0.5" stroke-miterlimit="10" cx="149.59" cy="141.29" r="0.87"/>

				<linearGradient id="SVGID_11_" gradientUnits="userSpaceOnUse" x1="-124.4199" y1="465.5027" x2="-124.4199" y2="357.5626" gradientTransform="matrix(1 0 0 -1 274 499.3101)">
				<stop  offset="0" style="stop-color:#FA649B"/>
				<stop  offset="1" style="stop-color:#FFD73C"/>
			</linearGradient>

				<linearGradient id="SVGID_12_" gradientUnits="userSpaceOnUse" x1="-124.4209" y1="465.5134" x2="-124.4209" y2="357.5601" gradientTransform="matrix(1 0 0 -1 274 499.3101)">
				<stop  offset="0" style="stop-color:#FA649B"/>
				<stop  offset="1" style="stop-color:#FFD73C"/>
			</linearGradient>
			<path fill="url(#SVGID_11_)" stroke="url(#SVGID_12_)" stroke-width="0.5" stroke-miterlimit="10" d="M148.7,117.8h1.76v1.761
				h-1.75L148.7,117.8z"/>
		</g>
	</g>
	<g id="gradient-h">
		<g id="h-shapes">

				<linearGradient id="SVGID_13_" gradientUnits="userSpaceOnUse" x1="-231.0796" y1="283.3279" x2="-135.4196" y2="337.6579" gradientTransform="matrix(1 0 0 -1 274 499.3101)">
				<stop  offset="0" style="stop-color:#FA649B"/>
				<stop  offset="1" style="stop-color:#FFD73C"/>
			</linearGradient>

				<linearGradient id="SVGID_14_" gradientUnits="userSpaceOnUse" x1="-231.0796" y1="283.3279" x2="-135.4196" y2="337.6579" gradientTransform="matrix(1 0 0 -1 274 499.3101)">
				<stop  offset="0" style="stop-color:#FA649B"/>
				<stop  offset="1" style="stop-color:#FFD73C"/>
			</linearGradient>

				<circle fill="url(#SVGID_13_)" stroke="url(#SVGID_14_)" stroke-width="0.5" stroke-miterlimit="10" cx="137.28" cy="162.39" r="0.87"/>

				<linearGradient id="SVGID_15_" gradientUnits="userSpaceOnUse" x1="-231.0889" y1="283.3435" x2="-135.4289" y2="337.6735" gradientTransform="matrix(1 0 0 -1 274 499.3101)">
				<stop  offset="0" style="stop-color:#FA649B"/>
				<stop  offset="1" style="stop-color:#FFD73C"/>
			</linearGradient>

				<linearGradient id="SVGID_16_" gradientUnits="userSpaceOnUse" x1="-231.0889" y1="283.3435" x2="-135.4289" y2="337.6735" gradientTransform="matrix(1 0 0 -1 274 499.3101)">
				<stop  offset="0" style="stop-color:#FA649B"/>
				<stop  offset="1" style="stop-color:#FFD73C"/>
			</linearGradient>
			<path fill="url(#SVGID_15_)" stroke="url(#SVGID_16_)" stroke-width="0.5" stroke-miterlimit="10" d="M129.22,168.45l-1.28-2.27
				l-2.27,1.279l1.28,2.271L129.22,168.45z"/>

				<linearGradient id="SVGID_17_" gradientUnits="userSpaceOnUse" x1="-231.1235" y1="283.363" x2="-135.4367" y2="337.7083" gradientTransform="matrix(1 0 0 -1 274 499.3101)">
				<stop  offset="0" style="stop-color:#FA649B"/>
				<stop  offset="1" style="stop-color:#FFD73C"/>
			</linearGradient>

				<linearGradient id="SVGID_18_" gradientUnits="userSpaceOnUse" x1="-231.1216" y1="283.365" x2="-135.4381" y2="337.7083" gradientTransform="matrix(1 0 0 -1 274 499.3101)">
				<stop  offset="0" style="stop-color:#FA649B"/>
				<stop  offset="1" style="stop-color:#FFD73C"/>
			</linearGradient>

				<circle fill="url(#SVGID_17_)" stroke="url(#SVGID_18_)" stroke-width="0.5" stroke-miterlimit="10" cx="107.77" cy="179.09" r="1.74"/>

				<linearGradient id="SVGID_19_" gradientUnits="userSpaceOnUse" x1="-231.1333" y1="283.3992" x2="-135.4518" y2="337.7414" gradientTransform="matrix(1 0 0 -1 274 499.3101)">
				<stop  offset="0" style="stop-color:#FA649B"/>
				<stop  offset="1" style="stop-color:#FFD73C"/>
			</linearGradient>

				<linearGradient id="SVGID_20_" gradientUnits="userSpaceOnUse" x1="-231.1323" y1="283.4001" x2="-135.453" y2="337.7411" gradientTransform="matrix(1 0 0 -1 274 499.3101)">
				<stop  offset="0" style="stop-color:#FA649B"/>
				<stop  offset="1" style="stop-color:#FFD73C"/>
			</linearGradient>

				<circle fill="url(#SVGID_19_)" stroke="url(#SVGID_20_)" stroke-width="0.5" stroke-miterlimit="10" cx="88.1" cy="190.22" r="2.17"/>

				<linearGradient id="SVGID_21_" gradientUnits="userSpaceOnUse" x1="-231.0977" y1="283.3591" x2="-135.4377" y2="337.6891" gradientTransform="matrix(1 0 0 -1 274 499.3101)">
				<stop  offset="0" style="stop-color:#FA649B"/>
				<stop  offset="1" style="stop-color:#FFD73C"/>
			</linearGradient>

				<linearGradient id="SVGID_22_" gradientUnits="userSpaceOnUse" x1="-231.1309" y1="283.3406" x2="-135.4293" y2="337.6942" gradientTransform="matrix(1 0 0 -1 274 499.3101)">
				<stop  offset="0" style="stop-color:#FA649B"/>
				<stop  offset="1" style="stop-color:#FFD73C"/>
			</linearGradient>
			<path fill="url(#SVGID_21_)" stroke="url(#SVGID_22_)" stroke-width="0.5" stroke-miterlimit="10" d="M118.8,173.85l-0.86-1.521
				l-1.52,0.86l0.86,1.52L118.8,173.85z"/>

				<linearGradient id="SVGID_23_" gradientUnits="userSpaceOnUse" x1="-231.147" y1="283.3728" x2="-135.4333" y2="337.7333" gradientTransform="matrix(1 0 0 -1 274 499.3101)">
				<stop  offset="0" style="stop-color:#FA649B"/>
				<stop  offset="1" style="stop-color:#FFD73C"/>
			</linearGradient>

				<linearGradient id="SVGID_24_" gradientUnits="userSpaceOnUse" x1="-231.1401" y1="283.3767" x2="-135.4384" y2="337.7304" gradientTransform="matrix(1 0 0 -1 274 499.3101)">
				<stop  offset="0" style="stop-color:#FA649B"/>
				<stop  offset="1" style="stop-color:#FFD73C"/>
			</linearGradient>

				<circle fill="url(#SVGID_23_)" stroke="url(#SVGID_24_)" stroke-width="0.5" stroke-miterlimit="10" cx="97.94" cy="184.65" r="0.87"/>
		</g>
	</g>
	<g id="superthick">
		<path fill="none" stroke="#FFC107" stroke-width="5" stroke-linecap="round" stroke-linejoin="round" d="M351.781,76.2
			c10.92-9.3,21.84-18.6,32.76-27.87h48.08C422.25,17.15,390.8-1.9,358.371,3.37C325.929,8.63,302.1,36.63,302.1,69.5"/>

			<circle fill="none" stroke="#FFC107" stroke-width="5" stroke-linecap="round" stroke-linejoin="round" cx="104.96" cy="129.41" r="26.07"/>
	</g>
	<g id="category-pointers">
		<path id="sandbox-pointer" fill="none" stroke="#FFCC5A" stroke-width="1.5" stroke-linecap="round" stroke-linejoin="round" d="
			M26.7,81.6L8.2,48.93H-17"/>
		<path id="scenes-pointer" fill="none" stroke="#FFCC5A" stroke-width="1.5" stroke-linecap="round" stroke-linejoin="round" d="
			M131.9,267.53l11.68,20.63h28.8"/>
		<path id="litmus-pointer" fill="none" stroke="#FFCC5A" stroke-width="1.5" stroke-linecap="round" stroke-linejoin="round" d="
			M344.3,82.37l40.199-34.2H457.8"/>
	</g>
	<g class="description-box" fill="#D8564C" stroke="#D8564C" stroke-width="0.5">
		<path class="sandbox-text-box transition" visibility="hidden" opacity="0" d="M-208,40.5h126c2.761,0,5,2.239,5,5v89c0,2.762-2.239,5-5,5h-126
			c-2.761,0-5-2.238-5-5v-89C-213,42.739-210.761,40.5-208,40.5z"/>
		<path class="scenes-text-box transition" visibility="hidden" opacity="0" d="M227,279h169c2.762,0,5,2.239,5,5v30.5c0,2.762-2.238,5-5,5H227
			c-2.761,0-5-2.238-5-5V284C222,281.239,224.239,279,227,279z"/>
		<path class="litmus-text-box transition" visibility="hidden" opacity="0" d="M510,38.5h170c2.762,0,5,2.239,5,5v107c0,2.762-2.238,5-5,5H510
			c-2.762,0-5-2.238-5-5v-107C505,40.739,507.238,38.5,510,38.5z"/>
	</g>
	<g id="pulse-surround">

			<circle fill="#FAFAFA" stroke="#455A64" stroke-width="2" stroke-linecap="round" stroke-linejoin="round" cx="28.43" cy="84.78" r="6.95"/>

			<circle fill="#FAFAFA" stroke="#455A64" stroke-width="2" stroke-linecap="round" stroke-linejoin="round" cx="130.22" cy="264.65" r="6.95"/>

			<circle fill="#FAFAFA" stroke="#455A64" stroke-width="2" stroke-linecap="round" stroke-linejoin="round" cx="341.691" cy="84.78" r="6.95"/>
	</g>
	<g id="pulse-sandbox">

			<circle fill="#D84532" fill-opacity="0" stroke="#D84532" stroke-width="2" stroke-linecap="round" stroke-linejoin="round" cx="28.43" cy="84.78" r="3.48"/>

			<circle fill="#D84532" fill-opacity="0" stroke="#004266" stroke-linecap="round" stroke-linejoin="round" cx="28.43" cy="84.78" r="3.48"/>

			<circle fill="#D84532" fill-opacity="0" stroke="#D84532" stroke-width="1.5" stroke-linecap="round" stroke-linejoin="round" cx="28.43" cy="84.78" r="3.48"/>
	</g>
	<g id="pulse-scenes">

			<circle fill="#D84532" fill-opacity="0" stroke="#D84532" stroke-width="2" stroke-linecap="round" stroke-linejoin="round" cx="130.22" cy="264.65" r="3.48"/>

			<circle fill="#D84532" fill-opacity="0" stroke="#004266" stroke-linecap="round" stroke-linejoin="round" cx="130.22" cy="264.65" r="3.48"/>

			<circle fill="#D84532" fill-opacity="0" stroke="#D84532" stroke-linecap="round" stroke-linejoin="round" cx="130.22" cy="264.65" r="3.48"/>
	</g>
	<g id="pulse-litmus">

			<circle fill="#D84532" fill-opacity="0" stroke="#D84532" stroke-width="2" stroke-linecap="round" stroke-linejoin="round" cx="341.691" cy="84.78" r="3.48"/>

			<circle fill="#D84532" fill-opacity="0" stroke="#004266" stroke-linecap="round" stroke-linejoin="round" cx="341.691" cy="84.78" r="3.48"/>

			<circle fill="#D84532" fill-opacity="0" stroke="#D84532" stroke-width="1.5" stroke-linecap="round" stroke-linejoin="round" cx="341.691" cy="84.78" r="3.48"/>
	</g>
</svg>
