<svg xmlns="http://www.w3.org/2000/svg" width="2235.25" height="165.75" viewBox="0 0 2235.25 165.75">
  <g id="major" fill="#FAFAFA" stroke="#455A64" stroke-linejoin="round">
    <path stroke-width="2.5" stroke-linecap="round" d="M856.3 39.42c4.28 1.02 7.56 3.68 8.1 8.33.13 1.06.14 2.05-.2 3.1-.32 1-.93 1.84-1.75 2.52-1.53 1.27-3.85 1.96-5.77 2.1V77.15s6.46 26.63 5.2 32.06c-.86 3.83-2.83 6.25-5.2 7.45v7.03c0 5.54-1.02 11.05-3.84 15.96-1.27 2.23-2.8 4.15-4.67 5.9-.1.12-.22.22-.34.33l-.17.15s-.03 0-.02.04v.03c.02 0 .03.03.04.05l.2.5c.16.35.3.7.45 1.07.3.78.58 1.58.83 2.4 1 3.28 1.58 7.34.15 10.75-.26.62-.6 1.1-1.14 1.5-.6.44-1.2.64-1.9.76-1.76.3-3.76-.04-5.42-.46-4.3-1.1-9.13-3.52-12.78-5.96-.63-.4-1.25-.85-1.85-1.3l-.85-.67-.1-.08h-.03-.04c-.02 0-.05 0-.07.02l-.62.13-1.26.25c-.84.16-1.68.3-2.53.44-1.7.27-3.4.5-5.12.68-3.43.38-6.86.56-10.32.56-3.45 0-6.88-.2-10.3-.56-1.72-.18-3.4-.4-5.1-.7-.85-.13-1.7-.28-2.53-.44l-1.26-.24c-.2-.05-.42-.1-.62-.13-.03 0-.06 0-.08-.02h-.08l-.1.1c-.3.2-.57.43-.86.65-.6.45-1.22.9-1.85 1.3-3.66 2.44-8.5 4.87-12.8 5.97-1.65.42-3.65.77-5.4.46-.7-.12-1.32-.32-1.9-.75-.56-.4-.9-.9-1.16-1.5-1.43-3.43-.83-7.5.16-10.77.24-.8.52-1.6.82-2.4l.44-1.06.22-.5c0-.02 0-.04.02-.06.02-.04.02-.04-.02-.06l-.17-.16c-.1-.1-.2-.2-.33-.3-1.86-1.77-3.4-3.7-4.67-5.93-2.8-4.9-3.83-10.42-3.83-15.95v-.23-.45-.9-1.82-3.63c-2.37-1.2-4.34-3.62-5.2-7.45-1.26-5.43 5.2-32.06 5.2-32.06v-.02-.02-.04-.1-.15-.33-.68-1.37-2.7-5.42-10.83c-1.92-.14-4.23-.83-5.77-2.1-.8-.68-1.42-1.5-1.75-2.53-.34-1.04-.33-2.03-.2-3.1.54-4.64 3.82-7.3 8.1-8.32.9-5.32 3.26-10.36 6.28-14.75 3.04-4.43 6.88-8.36 11.12-11.64 8.53-6.6 18.9-10.73 29.68-11.6 2.95-.25 5.2-.24 8.16.02 2.65.23 5.27.65 7.87 1.27 5.25 1.25 10.3 3.26 14.97 5.94 4.66 2.66 9 6 12.7 9.9 3.68 3.86 6.87 8.38 9 13.32 1.04 2.44 1.8 4.9 2.25 7.54zM2085.6 72.37l19.7 48.5 9.83 24.24 4.93 12.14 1.23 3.03.6 1.5c.1.26.2.5.38.72.2.2.4.38.65.5.56.3 1 .25 1.6.25h.8c.28 0 .54 0 .8-.06 1.13-.28 1.8-1.42 1.52-2.54l-23.1-88.3H2171.97c.47 0 .94.03 1.4-.05.5-.06.94-.2 1.4-.42 1.84-.88 2.97-2.78 2.92-4.82-.06-2.05-1.32-3.9-3.24-4.65-1.04-.4-1.72-.35-2.8-.35h-649.67c-.47 0-.92.05-1.37.17-1 .26-1.87.8-2.54 1.58-1.3 1.5-1.63 3.63-.85 5.46.8 1.88 2.63 3.1 4.7 3.1h68l-23.1 88.3c-.28 1.12.4 2.26 1.52 2.53.26.06.53.05.8.05h.82c.6 0 1.03.06 1.6-.24.25-.12.45-.3.63-.5.18-.23.3-.47.4-.72l.6-1.5c.4-1.02.82-2.03 1.23-3.04l4.92-12.13 9.85-24.23 19.68-48.5h476.78zM1388.25 32.22c.54 0 .87 0 1.4-.16.5-.16.92-.38 1.3-.73.73-.63 1.14-1.53 1.12-2.5-.02-.96-.5-1.85-1.24-2.44-.4-.34-.83-.54-1.33-.67-.53-.14-.86-.12-1.4-.12h-22.98c-.46 0-.92-.02-1.4.06-.5.08-.93.25-1.35.52-.82.52-1.38 1.36-1.5 2.33-.13.96.18 1.88.82 2.58.67.74 1.64 1.14 2.63 1.14h.33c0 1.95.08 3.13-.48 5.06-.24.83-.57 1.6-.98 2.37-.44.82-.85 1.38-1.44 2.1l-6.48 7.9-3.24 3.94-1.62 1.97c-.54.65-1.08 1.3-1.6 1.98-2.03 2.77-3.45 5.94-4.16 9.3-.35 1.67-.52 3.34-.52 5.05V151.2c0 .8.08 1.58.23 2.37.34 1.7 1.04 3.3 2.06 4.7 2.07 2.87 5.28 4.67 8.8 4.94.72.07 1.76.05 2.47.05h38.36c.93 0 1.48 0 2.4-.13.84-.12 1.64-.32 2.43-.6 1.66-.62 3.17-1.6 4.42-2.87 1.24-1.26 2.2-2.8 2.77-4.46.27-.8.46-1.6.57-2.43.1-.92.1-1.5.1-2.43v-40.9-20.48-10.23-5.12c0-1.94.04-3.1-.23-5.06-.47-3.4-1.66-6.68-3.5-9.6-1.02-1.6-1.9-2.57-3.1-4.02l-3.23-3.95c-2.15-2.64-4.3-5.27-6.47-7.9-.26-.3-1.37-1.66-1.6-1.98-.52-.7-.95-1.43-1.3-2.2-.7-1.57-1.08-3.26-1.08-4.98v-1.7zM1204 106.2h30.08c1.14 0 2.06.92 2.06 2.06V155c0 4.55-3.7 8.25-8.26 8.25h-17.7c-4.55 0-8.25-3.7-8.25-8.26v-46.74c0-1.14.92-2.06 2.06-2.06zM980.43 113.9h-3.17c-.38 0-.76-.02-1.14.02-1.46.12-2.73 1.05-3.3 2.42-.33.77-.32 1.27-.32 2.08V135.75c0 .33.02.68.1 1.02.07.36.2.7.36 1.02.7 1.3 2.04 2.12 3.52 2.12h3.97v18.84c0 .58-.02.94.13 1.52.14.54.37 1 .72 1.45.66.84 1.62 1.38 2.7 1.5.24.03.5.02.76.02H1082.2c2.1-.1 3.78-1.85 3.78-3.98v-13.14-6.2h3.97c1.48 0 2.83-.83 3.52-2.14.17-.34.3-.67.37-1.03.07-.35.1-.7.1-1.03v-2.2-8.62-4.3-2.2c0-.8 0-1.3-.33-2.1-.56-1.35-1.84-2.28-3.3-2.4-.4-.03-.76-.02-1.14-.02h-3.18v-6.2c-.9-12.6-6.82-24.1-16.1-32.5-9.26-8.4-21.28-13.18-33.7-13.84-13.42-.72-26.87 3.4-37.4 11.9-10.52 8.5-17.36 20.8-18.35 34.43v6.2zM550.06 156.8c6.85 3.43 14.27 5.54 21.9 6.2 8.26.74 16.6-.22 24.47-2.84 7.88-2.6 15.14-6.8 21.33-12.33 5.72-5.1 10.4-11.23 13.85-18.07 3.45-6.85 5.56-14.27 6.23-21.9.73-8.27-.23-16.6-2.85-24.47-2.6-7.9-6.8-15.15-12.33-21.35-5.1-5.7-11.22-10.4-18.07-13.84-6.85-3.43-14.27-5.54-21.9-6.2-8.27-.75-16.6.22-24.47 2.83-7.87 2.62-15.13 6.8-21.33 12.34-5.7 5.1-10.4 11.22-13.84 18.07-3.44 6.85-5.55 14.27-6.22 21.9-.73 8.27.24 16.6 2.85 24.47 2.62 7.9 6.8 15.15 12.34 21.34 5.1 5.72 11.2 10.4 18.06 13.85zM320.56 156.8c6.85 3.43 14.27 5.54 21.9 6.2 8.27.74 16.6-.22 24.47-2.84 7.88-2.6 15.14-6.8 21.33-12.33 5.72-5.1 10.4-11.23 13.85-18.07 3.45-6.85 5.56-14.27 6.23-21.9.74-8.27-.23-16.6-2.85-24.47-2.6-7.9-6.8-15.15-12.33-21.35-5.1-5.7-11.22-10.4-18.07-13.84-6.85-3.43-14.27-5.54-21.9-6.2-8.27-.75-16.6.22-24.47 2.83-7.87 2.62-15.13 6.8-21.33 12.34-5.7 5.1-10.4 11.22-13.84 18.07-3.44 6.85-5.55 14.27-6.22 21.9-.73 8.27.24 16.6 2.85 24.47 2.62 7.9 6.8 15.15 12.34 21.34 5.1 5.72 11.2 10.4 18.06 13.85zM91.06 156.8c6.85 3.43 14.27 5.54 21.9 6.2 8.27.74 16.6-.22 24.47-2.84 7.88-2.6 15.14-6.8 21.33-12.33 5.72-5.1 10.4-11.23 13.85-18.07 3.45-6.85 5.56-14.27 6.23-21.9.73-8.27-.23-16.6-2.85-24.47-2.6-7.9-6.8-15.15-12.33-21.35-5.1-5.7-11.23-10.4-18.07-13.84-6.85-3.43-14.27-5.54-21.9-6.2-8.27-.75-16.6.22-24.47 2.83-7.87 2.62-15.13 6.8-21.33 12.34-5.7 5.1-10.4 11.22-13.84 18.07-3.44 6.85-5.55 14.27-6.22 21.9-.73 8.27.24 16.6 2.85 24.47 2.62 7.9 6.8 15.15 12.34 21.34 5.1 5.72 11.2 10.4 18.06 13.85z"/>
    <path stroke-width="4" stroke-linecap="round" d="M89.74 84.54c8-12.73 23.47-18.64 37.92-14.47 14.46 4.16 24.4 17.4 24.4 32.43s-9.94 28.26-24.4 32.43c-14.45 4.17-29.9-1.74-37.92-14.47M577.32 68.75c-13.65 0-25.96 8.22-31.18 20.83s-2.34 27.13 7.3 36.78c9.67 9.66 24.18 12.54 36.8 7.32 12.6-5.23 20.83-17.53 20.83-31.18V68.75M378.08 116.66L351.7 139.1c-2.7 2.3-6.83 1.57-8.58-1.52l-31.8-56.2c-1-1.75-.98-3.9.03-5.63 1-1.74 2.87-2.8 4.88-2.8h61.85"/>
    <path stroke-width="5" d="M0 163.25h2235.25"/>
  </g>
  <g id="minor" fill="none" stroke="#455A64" stroke-width="1.75" stroke-linecap="round" stroke-linejoin="round">
    <path d="M1082.8 107.7h3.18v38.43h-3.18zM983.62 107.7h99.18v38.43h-99.18zM976.46 139.92h3.97V113.9h-3.97c-2.2 0-3.98 1.78-3.98 3.98v18.06c0 2.2 1.78 3.98 3.98 3.98z"/>
    <path d="M983.62 107.7h99.18v5.95h-99.18zM799.54 69.2c3.7-1.4 7.77-1.4 11.47 0M805.28 64.22v3.93M753.88 77.15s-6.47 26.62-5.22 32.05c2.88 12.57 17.48 10 19.92-1.17M856.68 77.15s6.46 26.62 5.22 32.05c-2.88 12.57-17.5 10-19.92-1.17"/>
    <circle cx="768.78" cy="47.75" r="7.75"/>
    <circle cx="841.78" cy="47.75" r="7.75"/>
    <path d="M854.03 31.88c1.72 4 2.65 8.08 2.65 12.04v33.23s6.46 26.62 5.22 32.05c-.88 3.83-2.85 6.25-5.22 7.45v7.04c0 10.44-3.66 17.54-9.05 22.35 1.68 3.74 3.8 10.12 1.6 15.03-2.5 5.54-16.84-.62-24-6.44-13.15 2.8-26.76 2.8-39.92 0-7.14 5.82-21.47 11.98-23.96 6.44-2.2-4.9-.1-11.3 1.58-15.03-5.38-4.8-9.04-11.9-9.04-22.36v-7.04c-2.38-1.2-4.35-3.63-5.22-7.46-1.25-5.43 5.2-32.05 5.2-32.05V48.27v-4.35c0-3.96.94-8.04 2.66-12.04C763.34 16 782.57 1.42 805.27 1.24c22.7.18 41.94 14.75 48.76 30.62z"/>
    <path d="M805.28 53.54c3.06.1 6.1.84 8.75 2.1 1.34.66 1.83 2.33.95 3.54-3 4.08-7.9 4.88-9.7 5.03-1.8-.14-6.7-.94-9.7-5.02-.9-1.2-.4-2.88.95-3.53 2.64-1.27 5.68-2 8.75-2.1zM778.7 153c17.37 5 35.8 5 53.14 0M856.3 39.42c3 .72 7.97 2.88 8.18 9.35.17 5.3-5.6 6.54-7.8 6.7v-8.03-2s0-1.35 0-2.02c-.03-1.35-.16-2.67-.4-4zM753.88 55.47c-2.2-.16-7.98-1.4-7.8-6.7.2-6.48 5.17-8.63 8.18-9.35-.22 1.33-.35 2.65-.38 4V55.47zM1521.87 72.37h650.7c2.85 0 5.1-2.33 5.1-5.16 0-2.82-2.25-5.15-5.1-5.15h-650.7c-2.85 0-5.1 2.33-5.1 5.16s2.25 5.17 5.1 5.17zM1388.25 32.22c0 1.96-.08 3.15.5 5.08.23.84.56 1.63.97 2.4.46.82.86 1.36 1.46 2.1 2.17 2.63 4.34 5.28 6.5 7.93 1.1 1.32 2.2 2.65 3.27 3.97.55.66 1.1 1.32 1.63 1.98.54.66 1.1 1.3 1.6 2 2.02 2.8 3.42 6 4.1 9.38.37 1.77.48 3.27.48 5.08v77.13c0 .6.02 1.9 0 2.5-.05.83-.17 1.63-.37 2.42-.45 1.7-1.25 3.3-2.37 4.66-2.23 2.72-5.52 4.32-9.04 4.4h-41.07c-3.53-.08-6.82-1.68-9.05-4.4-1.12-1.36-1.93-2.95-2.36-4.66-.2-.8-.32-1.6-.36-2.4-.03-.6 0-1.93 0-2.52v-41.13-20.57-10.3-5.14c0-1.8.1-3.3.46-5.08.68-3.4 2.1-6.6 4.12-9.38.5-.7 1.04-1.34 1.58-2 .55-.66 1.1-1.32 1.63-1.98 1.1-1.32 2.18-2.65 3.26-3.97 2.2-2.65 4.36-5.3 6.53-7.94.6-.74 1-1.28 1.45-2.1.42-.78.75-1.56 1-2.4.56-1.93.48-3.12.48-5.08h23.6z"/>
    <path d="M2127.65 160.66l-23.1-88.3h-18.94l36.37 89.6c.32.78 1.08 1.3 1.92 1.3h1.75c1.36 0 2.34-1.3 2-2.6zM1566.8 160.66l23.1-88.3h18.93l-36.36 89.6c-.32.78-1.07 1.3-1.9 1.3h-1.78c-1.36 0-2.35-1.3-2-2.6zM1345.95 71.8v79.44M1233 118.6l-3.37-.63c-1.32-.24-2.06-.4-3.4-.47-2.3-.15-4.6.1-6.82.7-1.1.3-2.18.7-3.28 1-1.12.3-2.24.52-3.38.63-2.34.24-4.56.1-6.84-.43-1.3-.3-2.53.68-2.53 2v34c.14 2.08 1.2 4 2.93 5.18.82.57 1.75.96 2.73 1.13.48.1.96.1 1.44.1h16.18c1.12 0 1.96.06 3.07-.25.98-.27 1.9-.77 2.67-1.45.77-.7 1.4-1.56 1.8-2.53.18-.46.3-.93.4-1.42.08-.5.1-.97.1-1.46v-7.3-26.76c0-1-.7-1.85-1.7-2.04zM1364.33 32.22h24.25c1.84 0 3.5-1.4 3.5-3.3 0-1.92-1.66-3.3-3.5-3.3h-24.25c-1.84 0-3.5 1.38-3.5 3.3 0 1.9 1.66 3.3 3.5 3.3zM1402 57.83c1.7 2.08 3 4.44 3.83 6.98.42 1.3.73 2.58.9 3.92.23 1.53.23 2.48.23 4.02v78.58c0 .57-.06 1.14-.16 1.7-.22 1.24-.63 2.34-1.27 3.43-1.34 2.24-3.47 3.88-5.98 4.6-.58.16-1.16.27-1.76.34-.64.06-1.28.05-1.9.05H1356.02c-5.4-.07-9.8-4.3-10.07-9.7v-.88-1.04-2.1-4.18-8.37-16.75V85.1v-8.65-4.32c0-1.43.06-2.57.3-3.98.43-2.65 1.36-5.2 2.7-7.53.75-1.27 1.4-2.13 2.32-3.26l2.75-3.34c1.77-2.17 4.25-3.64 7-4.18 2.98-.58 6.05-.58 9.04 0 1.74.32 2.7.65 4.37 1.22 1.43.5 2.87.98 4.3 1.47l4.3 1.47 2.16.74c.72.24 1.45.44 2.2.6 2.95.7 6.02.8 9.02.33 2.12-.33 4.24.5 5.6 2.16zM1089.95 139.92h-3.97V113.9h3.97c2.2 0 3.98 1.78 3.98 3.98v18.06c0 2.2-1.78 3.98-3.98 3.98z"/>
    <path d="M1085.98 159.28v-13.15-38.44c-.95-13.1-7.3-25.02-17.2-33.5-9.9-8.44-22.63-12.93-35.57-12.93s-25.67 4.48-35.56 12.94c-9.9 8.48-16.26 20.4-17.2 33.5v51.58c0 2.2 1.77 3.97 3.97 3.97h97.6c2.2 0 3.98-1.78 3.98-3.97z"/>
    <path d="M980.43 107.7v38.43h3.2V107.7z"/>
  </g>
  <g id="reflections" opacity=".1" fill="#231F20">
    <path opacity=".5" d="M1206.34 140.85c.5 0 .9-.4.9-.9v-11.83c0-.5-.4-.9-.9-.9s-.9.4-.9.9v11.83c0 .5.4.9.9.9zM989.9 139.3c.26 0 .5-.16.66-.38.17-.23.23-.46.23-.75V123.4c0-.27-.07-.5-.24-.74-.16-.2-.4-.37-.67-.37-.3 0-.53.15-.68.36-.17.24-.23.47-.23.75v14.77c0 .3.05.52.22.75.15.22.4.38.67.38zM1012.8 71.87c.17.4 0 .9-.4 1.1-1.2.56-2.38 1.17-3.52 1.84-2.54 1.5-4.93 3.2-7.14 5.16-2.17 1.9-4.16 4.02-5.9 6.32-.42.54-.82 1.08-1.2 1.64-.26.37-.76.47-1.14.22-.38-.26-.48-.78-.22-1.16.4-.58.8-1.14 1.24-1.7 1.8-2.4 3.87-4.6 6.13-6.57 2.28-2 4.77-3.78 7.4-5.32 1.18-.7 2.4-1.33 3.63-1.9.42-.2.9-.03 1.1.4M1354.65 61.8c.28-.37.2-.9-.16-1.22-.4-.32-1-.25-1.3.16-2.37 3.2-3.65 7.1-3.65 11.07v6.84c0 .5.4.9.9.9s.9-.4.9-.9V71.8c0-3.6 1.16-7.1 3.3-10z"/>
  </g>
  <g id="shadows">
    <path opacity=".2" d="M1388.34 163.25c6.3 0 11.54-4.88 11.98-11.18.05-.72.03-1.45.03-2.18v-2.27-4.52-9.04V98 79.98v-4.5-4.5c-.1-3-.8-5.98-2-8.75-.6-1.4-1.32-2.7-2.17-3.96-.42-.6-.87-1.2-1.34-1.78l-1.43-1.75c-1.9-2.32-3.8-4.65-5.72-6.97l-2.86-3.48c-.47-.6-.95-1.17-1.42-1.75-.48-.57-.97-1.14-1.4-1.75-.87-1.24-1.5-2.64-1.84-4.1-.17-.75-.27-1.48-.3-2.24-.02-.37-.02-1.87-.02-2.24h8.41v1.71c0 1.58.3 3.14.92 4.6.3.73.67 1.42 1.1 2.08.45.66.96 1.25 1.45 1.86l6 7.3 2.98 3.63c.27.33 2.7 3.28 2.97 3.63 1.95 2.5 3.38 5.34 4.22 8.4.42 1.52.68 3.05.8 4.64.05.78.06 1.55.06 2.33v77.84c0 .75 0 1.5-.07 2.25-.1.76-.24 1.5-.46 2.24-.47 1.55-1.26 3-2.3 4.24-2.1 2.47-5.07 4-8.28 4.24-.76.05-1.5.03-2.27.03H1388.33zM1085.98 159.28v-13.15h-8.41v13.23c0 .4-.07.78-.2 1.16-.52 1.57-1.95 2.65-3.6 2.73h8.18c.3 0 .58-.02.87-.08.63-.13 1.15-.37 1.64-.76.97-.74 1.54-1.9 1.54-3.13zM1085.98 107.7c-1-13.86-8.04-26.32-18.84-34.82-10.78-8.5-24.52-12.47-38.14-11.45 12.2.92 23.92 5.82 32.93 14.18 9.02 8.4 14.74 19.73 15.64 32.1h8.41zM1222.1 163.25c2.68 0 5.18-1.3 6.73-3.47.78-1.1 1.28-2.35 1.46-3.68.07-.63.06-1.26.06-1.9v-1.97-15.74-15.74-7.87-3.95c0-.2 0-.76-.02-.96-.04-.35-.15-.64-.35-.92-.4-.55-1.03-.88-1.7-.88H1234.1c.42 0 .76.1 1.1.33.34.22.6.54.77.9.18.42.18.7.18 1.12v46.56c-.06 3.2-1.94 6.06-4.85 7.4-.7.3-1.44.53-2.22.64-.76.1-1.5.1-2.26.1h-4.72zM113.93 41.9c15.3 1.12 29.63 7.98 40.1 19.22 10.44 11.24 16.26 26.03 16.26 41.38 0 15.35-5.83 30.13-16.28 41.37-10.46 11.24-24.78 18.1-40.1 19.22 16.84 1.2 33.42-4.63 45.78-16.12 12.35-11.5 19.37-27.6 19.37-44.48 0-16.88-7.02-33-19.38-44.48-12.36-11.5-28.94-17.33-45.77-16.1zM1603.9 84.53l4.93-12.16h-18.94l-3.2 12.16zM2090.54 84.53l-4.93-12.16h18.96l3.18 12.16zM343.43 41.9c15.3 1.12 29.63 7.98 40.1 19.22 10.44 11.24 16.26 26.03 16.26 41.38 0 15.35-5.82 30.13-16.28 41.37-10.46 11.24-24.78 18.1-40.1 19.22 16.84 1.2 33.42-4.63 45.78-16.12 12.35-11.5 19.37-27.6 19.37-44.48 0-16.88-7.02-33-19.38-44.48-12.36-11.5-28.94-17.33-45.77-16.1zM2164.28 72.37h8.18c.67 0 1.3-.1 1.92-.33.7-.26 1.25-.63 1.77-1.15.98-.98 1.53-2.3 1.53-3.7 0-1.37-.55-2.7-1.53-3.67-.52-.52-1.08-.9-1.77-1.15-.63-.24-1.25-.33-1.92-.33h-8.18c2.8.06 5 2.38 5 5.16s-2.2 5.1-5 5.17zM572.93 41.9c15.3 1.12 29.63 7.98 40.1 19.22 10.45 11.24 16.26 26.03 16.26 41.38 0 15.35-5.82 30.13-16.28 41.37-10.46 11.24-24.78 18.1-40.1 19.22 16.84 1.2 33.42-4.63 45.78-16.12 12.35-11.5 19.37-27.6 19.37-44.48 0-16.88-7.02-33-19.38-44.48-12.36-11.5-28.94-17.33-45.77-16.1zM854.03 31.88c1.72 4 2.65 7.94 2.65 12.33V77.2l.08.32.4 1.72c.53 2.24 1.03 4.47 1.5 6.7.67 3.07 1.3 6.13 1.85 9.2.53 2.86 1.04 5.88 1.34 8.77.1.87.17 1.74.2 2.62.02.67.03 1.34-.04 2.02-.02.27-.07.54-.13.8-.12.5-.25.97-.4 1.44-.3.85-.67 1.66-1.14 2.43-.8 1.3-1.85 2.42-3.2 3.2-.15.1-.45 0-.45.3v6.23c0 5.28-.6 10.1-2.93 14.98-.82 1.72-1.8 3.3-2.97 4.8-.56.7-1.15 1.4-1.8 2.05-.3.32-.62.63-.95.93l-.24.23c-.05.05-.1.1-.14.12-.02.02-.03.02 0 .05v.05c.06.1.1.23.16.35.98 2.26 1.78 4.7 2.14 7.16.2 1.3.27 2.6.15 3.9-.05.66-.15 1.3-.32 1.92-.14.54-.4 1.33-.66 1.83-1.7 3.17-7.27 1.73-9.62 1 .4-.3.72-.7.94-1.2 2.2-4.9.1-11.3-1.6-15.03 5.4-4.82 9.06-11.9 9.06-22.36v-7.05c2.37-1.2 4.34-3.63 5.22-7.45 1.24-5.43-5.22-32.06-5.22-32.06V48.27 43.9c0-3.95-.93-8.03-2.65-12.03-6.38-14.84-23.6-28.54-44.36-30.4 2.9-.27 5.2-.3 8.1-.06 2.73.22 5.4.63 8.04 1.24 5.3 1.23 10.4 3.23 15.1 5.9 4.7 2.67 9.08 6.03 12.83 9.94 3.7 3.88 6.93 8.43 9.06 13.4z"/>
    <path opacity=".2" d="M1384.24 25.6c1.84 0 3.5 1.4 3.5 3.3 0 1.92-1.66 3.32-3.5 3.32h3.65c.4 0 .78.02 1.18-.04 1.64-.22 3-1.55 3-3.27s-1.36-3.03-3-3.26c-.4-.05-.8-.03-1.2-.03H1384.25zM1086.92 139.92c1.3-.03 2.48-.68 3.2-1.75.38-.56.6-1.12.66-1.8.04-.33.02-1.53.02-1.87v-7.6-7.58c0-.34.02-1.54-.02-1.88-.08-.67-.28-1.23-.66-1.78-.72-1.08-1.9-1.73-3.2-1.76h2.94c.42 0 .83.05 1.24.17 1.37.42 2.4 1.54 2.73 2.93.07.34.1.66.1 1v17.91c0 .72-.16 1.35-.52 1.98-.7 1.25-2.02 2.02-3.45 2.02h-3.03z"/>
  </g>
</svg>
