<svg xmlns="http://www.w3.org/2000/svg" width="2234" height="179.82" viewBox="0 0 2234 179.824">
  <g id="major" fill="none" stroke="#616161" stroke-linecap="round" stroke-linejoin="round">
    <path stroke-width="2" d="M1 169.82c0-3.97 3.22-7.2 7.2-7.2h2217.6c3.98 0 7.2 3.23 7.2 7.2v1.8c0 3.98-3.22 7.2-7.2 7.2H8.2c-3.98 0-7.2-3.22-7.2-7.2v-1.8z"/>
    <path stroke-width="1.25" d="M855.67 38.8c4.28 1 7.56 3.67 8.1 8.33.14 1.06.15 2.05-.2 3.1-.32 1-.93 1.84-1.74 2.5-1.54 1.3-3.85 1.98-5.78 2.1V76.53s6.46 26.62 5.22 32.05c-.88 3.83-2.84 6.26-5.22 7.46v7.03c0 5.54-1 11.04-3.83 15.96-1.28 2.22-2.8 4.15-4.67 5.9l-.34.32-.16.16s-.04 0-.03.03c.02 0 .02.02.02.03l.03.06.22.5c.15.35.3.7.43 1.07.3.78.6 1.58.83 2.4 1 3.27 1.6 7.33.15 10.74-.26.62-.6 1.1-1.15 1.52-.58.42-1.2.63-1.9.75-1.75.32-3.75-.03-5.4-.46-4.3-1.1-9.14-3.52-12.8-5.95-.62-.44-1.24-.87-1.85-1.33-.3-.22-.57-.44-.85-.66l-.1-.08h-.07l-.08.02c-.2.05-.42.1-.63.13-.4.1-.83.17-1.25.25l-2.53.45c-1.7.27-3.4.5-5.1.7-3.45.36-6.88.55-10.34.54-3.45 0-6.87-.17-10.3-.54-1.7-.2-3.4-.42-5.1-.7-.85-.13-1.7-.28-2.53-.44l-1.25-.25-.63-.13c-.03 0-.05 0-.08-.02h-.04-.03l-.1.1-.85.65c-.6.46-1.23.9-1.86 1.32-3.65 2.42-8.48 4.85-12.78 5.94-1.66.43-3.66.77-5.4.47-.7-.12-1.33-.32-1.9-.74-.57-.4-.9-.9-1.16-1.52-1.44-3.4-.84-7.47.15-10.76.24-.8.52-1.6.83-2.4l.43-1.07c.08-.15.15-.32.22-.48l.03-.06c.02-.05 0-.04-.02-.07l-.17-.16c-.13-.1-.24-.2-.35-.32-1.87-1.76-3.4-3.7-4.67-5.9-2.82-4.92-3.83-10.43-3.83-15.96v-.23-.45-.9-1.83-3.62c-2.38-1.2-4.34-3.63-5.22-7.46-1.24-5.43 5.22-32.05 5.22-32.05v-.02-.02-.05-.08-.17-.34-.68-1.35-2.7-5.42-10.84c-1.92-.13-4.24-.82-5.77-2.1-.82-.67-1.43-1.5-1.76-2.52-.34-1.04-.32-2.03-.2-3.1.55-4.65 3.83-7.3 8.1-8.32.9-5.32 3.27-10.37 6.28-14.75 3.05-4.43 6.88-8.36 11.12-11.64 8.53-6.6 18.9-10.72 29.7-11.6 2.94-.24 5.2-.23 8.15.02 2.66.23 5.27.66 7.87 1.27 5.25 1.24 10.3 3.25 14.98 5.93 4.66 2.67 8.98 6 12.7 9.9 3.68 3.87 6.86 8.38 8.98 13.32 1.06 2.45 1.83 4.92 2.27 7.55zM2084.98 71.75l19.7 48.5 9.83 24.24c1.65 4.03 3.3 8.07 4.93 12.1.4 1.02.82 2.03 1.23 3.04l.62 1.52c.1.25.2.5.38.7.18.23.4.4.64.53.57.28 1 .23 1.6.23h.8c.28 0 .55 0 .82-.06 1.12-.28 1.8-1.42 1.5-2.53l-23.1-88.3H2171.36c.47 0 .93.02 1.4-.05.48-.1.94-.23 1.38-.44 1.85-.88 3-2.78 2.93-4.82-.06-2.05-1.3-3.9-3.23-4.66-1.05-.42-1.73-.36-2.8-.36h-649.7c-.47 0-.92.05-1.37.17-1 .25-1.87.8-2.54 1.57-1.3 1.5-1.63 3.63-.85 5.46.8 1.88 2.64 3.12 4.7 3.12h68l-23.1 88.3c-.28 1.1.4 2.24 1.52 2.52.27.06.54.05.8.05h.82c.58 0 1.02.06 1.6-.23.24-.15.45-.3.63-.54.17-.2.28-.45.38-.7.22-.5.42-1 .63-1.52l1.23-3.03 4.92-12.1 9.84-24.26 19.68-48.5h476.78zM1387.63 31.6c.54 0 .87 0 1.4-.17.5-.15.9-.38 1.3-.72.72-.62 1.14-1.52 1.12-2.5-.03-.96-.5-1.84-1.25-2.44-.4-.32-.82-.53-1.32-.66-.53-.14-.86-.12-1.4-.12h-22.97c-.46 0-.93-.02-1.4.05-.5.1-.93.25-1.36.52-.8.52-1.38 1.37-1.5 2.34-.13.93.2 1.86.83 2.56.68.73 1.64 1.13 2.63 1.13h.33c0 1.94.08 3.13-.48 5.05-.24.83-.56 1.62-.97 2.38-.45.8-.86 1.38-1.44 2.1l-6.5 7.9-3.23 3.94-1.6 1.98c-.55.65-1.1 1.3-1.6 1.97-2.03 2.77-3.45 5.94-4.16 9.3-.36 1.68-.52 3.34-.52 5.06V150.57c0 .8.07 1.58.23 2.37.34 1.7 1.04 3.3 2.06 4.72 2.08 2.85 5.3 4.65 8.8 4.93.72.04 1.76.02 2.48.02H1395.43c.94 0 1.48 0 2.4-.12.85-.12 1.65-.32 2.44-.6 1.67-.63 3.18-1.6 4.42-2.87 1.24-1.27 2.18-2.8 2.77-4.47.27-.8.46-1.6.57-2.42.12-.9.1-1.5.1-2.42v-40.9-20.48V78.1 73c0-1.97.04-3.14-.23-5.1-.45-3.4-1.65-6.66-3.5-9.57-1-1.6-1.88-2.58-3.07-4.04l-3.24-3.96-6.5-7.9c-.25-.3-1.36-1.65-1.6-1.98-.52-.7-.94-1.4-1.3-2.2-.7-1.55-1.07-3.25-1.07-4.96v-1.7zM1203.37 105.57h30.08c1.14 0 2.07.93 2.07 2.07v46.72c0 4.56-3.7 8.26-8.26 8.26h-17.7c-4.56 0-8.26-3.7-8.26-8.26v-46.72c0-1.14.93-2.07 2.07-2.07zM979.8 113.28h-3.18c-.38 0-.75-.02-1.13 0-1.48.14-2.76 1.07-3.33 2.43-.33.8-.3 1.28-.3 2.1V135.1c0 .36 0 .7.07 1.04.08.37.2.7.38 1.03.68 1.3 2.04 2.12 3.5 2.12h4v18.82c0 .6-.04.95.12 1.53.14.55.37 1 .7 1.45.67.84 1.64 1.38 2.7 1.5.26.03.52.02.77.02h97.47c2.12-.1 3.8-1.85 3.8-3.97V145.5v-6.2h3.97c1.48 0 2.83-.82 3.5-2.13.2-.33.3-.67.4-1.03.06-.34.07-.68.07-1.03v-2.17-8.63-4.32-2.2c0-.8.02-1.3-.3-2.07-.58-1.35-1.86-2.28-3.33-2.4-.38-.04-.76-.02-1.13-.02h-3.19v-6.22c-.9-12.57-6.8-24.08-16.1-32.5-9.25-8.38-21.27-13.17-33.7-13.83-13.42-.7-26.87 3.42-37.4 11.9-10.52 8.5-17.36 20.8-18.34 34.43v6.22zM549.43 156.16c6.85 3.44 14.27 5.55 21.9 6.23 8.27.72 16.6-.25 24.48-2.86 7.9-2.6 15.15-6.8 21.34-12.34 5.72-5.1 10.4-11.22 13.85-18.07 3.42-6.84 5.53-14.26 6.2-21.9.74-8.26-.23-16.6-2.84-24.47-2.6-7.88-6.8-15.14-12.34-21.33-5.1-5.72-11.22-10.4-18.07-13.85-6.84-3.44-14.26-5.54-21.9-6.22-8.26-.73-16.6.24-24.47 2.85-7.88 2.62-15.14 6.82-21.33 12.34-5.72 5.1-10.4 11.23-13.85 18.07-3.44 6.86-5.54 14.28-6.22 21.9-.73 8.28.24 16.6 2.85 24.5 2.6 7.87 6.8 15.12 12.33 21.32 5.1 5.72 11.23 10.4 18.07 13.84zM319.94 156.16c6.84 3.44 14.26 5.55 21.9 6.23 8.26.72 16.6-.25 24.47-2.86 7.9-2.6 15.15-6.8 21.34-12.34 5.72-5.1 10.4-11.22 13.85-18.07 3.42-6.84 5.53-14.26 6.2-21.9.74-8.26-.23-16.6-2.84-24.47-2.6-7.88-6.8-15.14-12.34-21.33-5.1-5.72-11.22-10.4-18.07-13.85-6.84-3.44-14.26-5.54-21.9-6.22-8.26-.73-16.6.24-24.47 2.85-7.88 2.62-15.14 6.82-21.33 12.34-5.72 5.1-10.4 11.23-13.85 18.07-3.44 6.86-5.54 14.28-6.22 21.9-.73 8.28.24 16.6 2.85 24.5 2.6 7.87 6.8 15.12 12.33 21.32 5.1 5.72 11.23 10.4 18.07 13.84zM90.44 156.16c6.84 3.44 14.26 5.55 21.9 6.23 8.26.72 16.6-.25 24.47-2.86 7.9-2.6 15.14-6.8 21.34-12.34 5.72-5.1 10.4-11.22 13.84-18.07 3.44-6.84 5.55-14.26 6.23-21.9.74-8.26-.23-16.6-2.84-24.47-2.6-7.88-6.8-15.14-12.34-21.33-5.1-5.72-11.22-10.4-18.07-13.85-6.84-3.44-14.26-5.54-21.9-6.22-8.26-.73-16.6.24-24.47 2.85-7.88 2.62-15.14 6.82-21.33 12.34-5.72 5.1-10.4 11.23-13.85 18.07-3.44 6.86-5.54 14.28-6.22 21.9-.73 8.28.24 16.6 2.85 24.5 2.6 7.87 6.8 15.12 12.33 21.32 5.1 5.72 11.23 10.4 18.08 13.84z"/>
    <path stroke-width="1.25" d="M89.12 83.92c8-12.74 23.47-18.64 37.92-14.48 14.45 4.17 24.4 17.4 24.4 32.43s-9.95 28.27-24.4 32.43c-14.45 4.17-29.92-1.73-37.92-14.47M576.7 68.12c-13.66 0-25.96 8.23-31.2 20.84s-2.32 27.13 7.33 36.78c9.65 9.65 24.17 12.54 36.78 7.3 12.62-5.2 20.84-17.52 20.84-31.17V68.12M377.46 116.03l-26.4 22.45c-2.7 2.3-6.82 1.56-8.56-1.52l-31.8-56.2c-1-1.76-1-3.9.03-5.64 1-1.73 2.87-2.8 4.87-2.8h61.86"/>
  </g>
  <g id="minor" fill="none" stroke="#616161" stroke-width=".75" stroke-linecap="round" stroke-linejoin="round">
    <path d="M1082.17 107.06h3.18v38.44h-3.18zM983 107.06h99.17v38.44H983zM975.83 139.3h3.98v-26.02h-3.97c-2.2 0-3.97 1.78-3.97 3.97v18.07c0 2.2 1.78 3.97 3.97 3.97z"/>
    <path d="M983 107.06h99.17v5.96H983zM798.92 68.56c3.7-1.38 7.77-1.38 11.47 0M804.65 63.6v3.92M753.25 76.52s-6.46 26.63-5.22 32.06c2.88 12.57 17.5 9.98 19.92-1.18M856.05 76.52s6.46 26.63 5.22 32.06c-2.88 12.57-17.48 9.98-19.92-1.18"/>
    <circle cx="768.15" cy="47.12" r="7.75"/>
    <circle cx="841.15" cy="47.12" r="7.75"/>
    <path d="M853.4 31.25c1.72 4 2.65 8.08 2.65 12.04V76.5s6.46 26.62 5.22 32.06c-.88 3.82-2.84 6.25-5.22 7.45v7.04c0 10.45-3.66 17.54-9.04 22.36 1.68 3.74 3.8 10.12 1.6 15.02-2.5 5.55-16.83-.6-24-6.43-13.15 2.8-26.75 2.8-39.9 0-7.17 5.82-21.5 11.98-24 6.43-2.2-4.9-.08-11.28 1.6-15.02-5.4-4.82-9.05-11.9-9.05-22.36v-7.04c-2.38-1.2-4.34-3.63-5.22-7.46-1.24-5.43 5.22-32.05 5.22-32.05V47.64 43.3c0-3.97.93-8.05 2.65-12.05C762.72 15.37 781.94.8 804.65.62c22.7.18 41.93 14.75 48.75 30.63z"/>
    <path d="M804.65 52.92c3.07.1 6.1.83 8.75 2.1 1.35.66 1.84 2.33.95 3.53-3 4.08-7.9 4.88-9.7 5.04-1.8-.17-6.68-.97-9.7-5.05-.88-1.2-.4-2.87.95-3.52 2.65-1.28 5.7-2 8.75-2.1zM778.1 152.36c17.34 5 35.76 5 53.12 0M855.67 38.8c3 .7 7.98 2.87 8.2 9.34.16 5.32-5.63 6.55-7.82 6.7v-8.03-2s0-1.34 0-2c-.03-1.35-.16-2.68-.38-4zM753.25 54.84c-2.2-.15-7.98-1.38-7.8-6.7.2-6.47 5.18-8.63 8.2-9.34-.24 1.32-.37 2.65-.4 4v12.05zM1521.24 71.75h650.7c2.86 0 5.12-2.34 5.12-5.17 0-2.82-2.26-5.16-5.1-5.16h-650.72c-2.84 0-5.1 2.34-5.1 5.16 0 2.83 2.26 5.17 5.1 5.17zM1387.63 31.6c0 1.95-.1 3.14.48 5.08.26.83.58 1.62 1 2.4.45.8.85 1.36 1.45 2.08l6.52 7.94 3.26 3.97c.54.67 1.1 1.33 1.63 2 .54.64 1.08 1.3 1.58 1.98 2.03 2.8 3.44 6 4.12 9.38.36 1.78.48 3.28.48 5.1v77.12c0 .6 0 1.92-.02 2.52-.03.82-.15 1.6-.35 2.4-.44 1.72-1.24 3.3-2.36 4.67-2.22 2.7-5.52 4.3-9.03 4.38H1355.32c-3.52-.07-6.82-1.67-9.05-4.38-1.12-1.37-1.92-2.96-2.36-4.66-.2-.8-.33-1.6-.37-2.4-.02-.6 0-1.93 0-2.53v-41.12-20.58-10.3-5.13c0-1.8.1-3.3.46-5.1.68-3.37 2.08-6.57 4.1-9.37.5-.68 1.06-1.33 1.6-2l1.63-1.98 3.26-3.97 6.5-7.94c.6-.72 1-1.27 1.46-2.1.42-.76.74-1.55 1-2.38.55-1.94.47-3.13.47-5.1h23.6z"/>
    <path d="M2127.03 160.04l-23.1-88.3h-18.95l36.37 89.6c.3.77 1.07 1.28 1.9 1.28h1.78c1.35 0 2.34-1.28 2-2.58zM1566.17 160.04l23.1-88.3h18.94c-12.1 29.87-24.23 59.73-36.36 89.6-.3.77-1.07 1.28-1.9 1.28h-1.78c-1.35 0-2.34-1.28-2-2.58zM1345.32 71.2v79.4M1232.4 117.98c-1.14-.2-2.27-.42-3.4-.63-1.3-.25-2.06-.4-3.4-.48-2.3-.14-4.6.1-6.8.7-1.12.32-2.2.7-3.3 1-1.12.3-2.24.52-3.4.64-2.32.25-4.54.1-6.82-.43-1.3-.3-2.53.7-2.53 2.02V154.75c.13 2.1 1.2 4 2.92 5.2.82.57 1.75.95 2.74 1.12.5.08.96.1 1.44.1h16.18c1.12 0 1.96.06 3.07-.25.98-.28 1.9-.77 2.66-1.45.8-.7 1.4-1.56 1.8-2.53.2-.46.33-.93.4-1.43.1-.48.1-.97.1-1.46v-7.3-26.75c0-1-.7-1.84-1.67-2.02zM1363.7 31.6h24.25c1.84 0 3.5-1.4 3.5-3.3 0-1.92-1.66-3.32-3.5-3.32h-24.25c-1.84 0-3.5 1.4-3.5 3.3 0 1.92 1.66 3.3 3.5 3.3zM1401.4 57.2c1.67 2.08 2.96 4.44 3.8 6.98.43 1.28.73 2.57.92 3.9.22 1.55.22 2.5.22 4.04v78.59c0 .58-.06 1.14-.16 1.7-.22 1.24-.64 2.35-1.28 3.43-1.33 2.24-3.47 3.9-5.98 4.6-.58.17-1.16.28-1.76.34-.63.06-1.26.05-1.9.05h-39.86c-5.38-.07-9.8-4.3-10.06-9.68-.02-.3-.02-.6-.02-.9v-1.04-2.1-4.18-8.37-16.74-33.33-8.64-4.33c0-1.42.07-2.56.3-3.97.45-2.66 1.37-5.2 2.73-7.54.74-1.28 1.38-2.14 2.3-3.27.92-1.1 1.84-2.22 2.75-3.34 1.78-2.17 4.25-3.65 7-4.18 3-.58 6.06-.58 9.05-.02 1.74.33 2.7.67 4.36 1.24l4.32 1.47c1.43.5 2.87 1 4.3 1.48.72.24 1.44.5 2.16.73.7.25 1.44.45 2.18.62 2.97.68 6.03.8 9.04.33 2.1-.33 4.24.5 5.6 2.15zM1089.33 139.3h-3.97v-26.02h3.97c2.2 0 3.97 1.78 3.97 3.97v18.07c0 2.2-1.78 3.97-3.97 3.97zM1085.36 158.65V145.5v-38.44c-.96-13.1-7.32-25-17.2-33.47-9.9-8.47-22.64-12.95-35.58-12.95S1006.9 65.13 997 73.6c-9.88 8.45-16.24 20.36-17.2 33.46V158.65c0 2.2 1.8 3.97 3.98 3.97h97.6c2.2 0 3.97-1.78 3.97-3.97z"/>
    <path d="M979.8 107.06v38.46h3.2v-38.46z"/>
  </g>
  <g id="reflections" opacity=".1" fill="none">
    <path d="M1205.7 140.23c.5 0 .92-.4.92-.9V127.5c0-.5-.4-.9-.9-.9s-.9.4-.9.9v11.83c0 .5.4.9.9.9zM989.26 138.67c.28 0 .52-.16.67-.37.17-.24.23-.47.23-.75V122.8c0-.3-.06-.53-.23-.76-.15-.22-.4-.38-.67-.38-.28 0-.5.16-.67.38-.18.23-.24.46-.24.75v14.75c0 .28.06.5.23.75.15.2.38.37.66.37zM1012.16 71.25c.2.4 0 .9-.4 1.08-1.2.57-2.36 1.2-3.5 1.85-2.54 1.5-4.94 3.2-7.15 5.15-2.16 1.9-4.14 4.03-5.9 6.33L994 87.3c-.24.37-.75.46-1.12.2-.4-.24-.5-.76-.23-1.14.4-.58.82-1.15 1.24-1.7 1.8-2.4 3.87-4.6 6.12-6.57 2.3-2.02 4.77-3.8 7.4-5.34 1.2-.7 2.4-1.33 3.63-1.92.42-.2.92 0 1.1.4M1354.02 61.2c.3-.4.22-.94-.15-1.24-.4-.33-1-.26-1.3.16-2.37 3.2-3.64 7.08-3.64 11.07v6.8c0 .5.4.9.9.9s.9-.4.9-.9V71.2c0-3.6 1.15-7.1 3.3-10z"/>
  </g>
  <g id="shadows">
    <path opacity=".1" d="M1387.7 162.62c6.32 0 11.56-4.88 12-11.17.05-.73.03-1.46.03-2.18V147v-4.52-9.05-36.05-18.03-4.5c0-.58 0-3.9-.02-4.5-.1-3-.76-5.98-1.97-8.75-.6-1.4-1.32-2.7-2.18-3.95-.42-.62-.87-1.2-1.34-1.78-.46-.58-.94-1.16-1.42-1.74l-5.72-6.98-2.86-3.48-1.43-1.74c-.47-.58-.96-1.14-1.4-1.76-.86-1.24-1.48-2.63-1.83-4.1-.17-.74-.28-1.48-.3-2.23-.03-.37-.02-1.88-.02-2.25H1387.6s.03-.02.03 0v1.7c0 1.58.3 3.14.9 4.6.32.74.68 1.42 1.13 2.1.43.64.94 1.23 1.44 1.83 2 2.43 4 4.86 5.98 7.3l3 3.63 2.97 3.64c1.94 2.5 3.38 5.34 4.22 8.4.42 1.52.7 3.06.8 4.64.06.78.07 1.56.07 2.34v77.85c0 .75 0 1.5-.07 2.25-.08.76-.23 1.5-.45 2.23-.48 1.57-1.26 3-2.3 4.26-2.1 2.46-5.07 4-8.3 4.23-.74.05-1.5.03-2.25.03H1387.7zM1085.36 158.65V145.5h-8.42v13.24c0 .4-.07.77-.2 1.15-.5 1.56-1.94 2.65-3.6 2.72h8.18c.3 0 .58-.02.87-.08.6-.13 1.12-.37 1.62-.75.97-.76 1.54-1.92 1.54-3.15zM1085.36 107.06c-1-13.84-8.04-26.3-18.84-34.8-10.79-8.5-24.53-12.48-38.14-11.45 12.2.92 23.9 5.82 32.93 14.2 9.03 8.36 14.75 19.7 15.65 32.06h8.4zM1221.47 162.62c2.68 0 5.18-1.3 6.74-3.47.78-1.1 1.28-2.35 1.46-3.67.1-.63.08-1.26.08-1.9v-1.98-15.73-15.74-7.87-3.93c0-.2 0-.76-.02-.96-.05-.34-.16-.63-.36-.9-.38-.57-1-.9-1.7-.9h5.83c.4 0 .73.1 1.07.33.35.22.62.54.78.92.18.4.17.67.17 1.1v46.56c-.05 3.2-1.93 6.08-4.84 7.4-.72.33-1.45.54-2.23.66-.75.1-1.5.08-2.26.08h-4.73zM2217.55 178.82c2.04-.04 3.96-.95 5.3-2.5.67-.78 1.13-1.62 1.43-2.6.35-1.15.3-1.84.3-3 0-1.15.05-1.84-.3-2.98-.3-1-.76-1.83-1.44-2.62-1.33-1.54-3.25-2.45-5.3-2.5h7.79c.93 0 1.52.02 2.42.27 1.66.46 3.1 1.5 4.05 2.95.5.75.83 1.52 1.03 2.4.2.94.17 1.53.17 2.47s.04 1.54-.17 2.48c-.2.88-.53 1.65-1.03 2.4-.95 1.44-2.4 2.5-4.04 2.95-.9.26-1.5.28-2.43.28h-7.78zM113.3 41.28c15.3 1.1 29.64 7.98 40.1 19.22 10.45 11.24 16.26 26.02 16.26 41.37 0 15.36-5.8 30.14-16.26 41.38-10.46 11.24-24.78 18.1-40.1 19.22 16.83 1.22 33.4-4.62 45.77-16.1 12.36-11.5 19.37-27.62 19.37-44.5 0-16.87-7.02-33-19.37-44.48-12.36-11.5-28.94-17.34-45.77-16.12zM1603.27 83.9l4.94-12.15h-18.94l-3.18 12.16zM2089.92 83.9l-4.94-12.15h18.95l3.18 12.16zM342.8 41.28c15.3 1.1 29.64 7.98 40.1 19.22 10.45 11.24 16.26 26.02 16.26 41.37 0 15.36-5.8 30.14-16.26 41.38-10.46 11.24-24.78 18.1-40.1 19.22 16.83 1.22 33.4-4.62 45.77-16.1 12.36-11.5 19.37-27.62 19.37-44.5 0-16.87-7.02-33-19.37-44.48-12.36-11.5-28.94-17.34-45.77-16.12zM2163.65 71.75h8.18c.67 0 1.3-.1 1.92-.34.7-.25 1.26-.62 1.78-1.13.98-.98 1.52-2.3 1.52-3.69 0-1.38-.54-2.7-1.52-3.68-.52-.52-1.1-.88-1.78-1.15-.62-.24-1.25-.33-1.92-.33h-8.18c2.8.06 5 2.38 5 5.16s-2.2 5.1-5 5.17zM572.3 41.28c15.3 1.1 29.64 7.98 40.1 19.22 10.45 11.24 16.26 26.02 16.26 41.37 0 15.36-5.8 30.14-16.26 41.38-10.46 11.24-24.78 18.1-40.1 19.22 16.84 1.22 33.42-4.62 45.77-16.1 12.36-11.5 19.37-27.62 19.37-44.5 0-16.87-7.02-33-19.37-44.48-12.36-11.5-28.94-17.34-45.77-16.12zM853.4 31.25c1.73 4 2.65 7.95 2.65 12.34v32.93l.08.3c.14.6.28 1.16.4 1.74.53 2.23 1.03 4.47 1.52 6.7.65 3.06 1.28 6.12 1.84 9.2.5 2.85 1 5.87 1.32 8.76.1.88.16 1.75.2 2.63.02.67.03 1.35-.04 2.02-.03.26-.08.53-.14.8-.1.5-.25.96-.4 1.43-.3.86-.66 1.66-1.13 2.43-.8 1.32-1.85 2.43-3.2 3.22-.15.1-.45 0-.45.3v6.23c0 5.28-.6 10.1-2.92 14.98-.82 1.72-1.8 3.3-2.97 4.8-.56.7-1.16 1.4-1.8 2.04-.3.32-.62.63-.95.94l-.24.23c-.04.02-.08.06-.12.1-.03.02-.03 0-.02.05 0 0 0 .03.02.04l.16.35c.97 2.25 1.77 4.7 2.14 7.15.2 1.3.26 2.6.14 3.92-.05.64-.16 1.27-.32 1.9-.14.55-.4 1.34-.67 1.84-1.7 3.16-7.28 1.73-9.62 1 .4-.32.7-.72.93-1.2 2.2-4.92.1-11.3-1.57-15.04 5.38-4.8 9.04-11.9 9.04-22.36v-7.03c2.38-1.2 4.34-3.63 5.22-7.46 1.23-5.43-5.23-32.05-5.23-32.05V47.64 43.3c0-3.97-.93-8.05-2.64-12.05C838.24 16.4 821.02 2.7 800.25.83c2.92-.26 5.2-.28 8.13-.05 2.7.2 5.37.62 8.02 1.23 5.3 1.24 10.38 3.24 15.1 5.92 4.7 2.66 9.08 6.02 12.83 9.93 3.7 3.88 6.92 8.43 9.05 13.4z"/>
    <path opacity=".1" d="M1383.62 24.98c1.84 0 3.5 1.4 3.5 3.3 0 1.92-1.66 3.3-3.5 3.3H1387.26c.4 0 .8.03 1.2-.02 1.64-.23 3-1.56 3-3.27s-1.36-3.06-3-3.28c-.4-.06-.8-.04-1.2-.04h-3.63zM1086.3 139.3c1.28-.04 2.48-.7 3.2-1.76.37-.56.58-1.12.65-1.78.04-.34.03-1.54.03-1.88v-7.6-7.6c0-.33 0-1.53-.03-1.87-.07-.65-.28-1.2-.65-1.77-.72-1.07-1.92-1.72-3.2-1.75h2.95c.4 0 .8.04 1.22.17 1.37.4 2.42 1.53 2.73 2.93.08.33.1.66.1 1v17.91c0 .72-.16 1.34-.52 1.98-.7 1.25-2.02 2-3.45 2h-3.04z"/>
  </g>
</svg>
