<svg xmlns="http://www.w3.org/2000/svg" width="1434.113" height="164.501" viewBox="0 0 1434.113 164.501">
  <g id="design-asset-lines::major" stroke-width="2.5" stroke-linecap="round" stroke-linejoin="round">
    <path fill="#E5B173" stroke="#455A64" d="M9.443 39.423c.896-5.32 3.252-10.366 6.27-14.75 3.045-4.428 6.88-8.36 11.12-11.637 8.53-6.595 18.9-10.732 29.682-11.61 2.953-.242 5.21-.233 8.16.022 2.665.23 5.277.654 7.878 1.27C77.8 3.966 82.847 5.98 87.525 8.656c4.662 2.667 8.986 6.01 12.697 9.902 3.684 3.863 6.87 8.38 8.99 13.318 1.05 2.445 1.82 4.918 2.263 7.548 4.282 1.016 7.565 3.674 8.112 8.33.125 1.06.14 2.05-.2 3.09-.33 1.017-.94 1.85-1.753 2.525-1.536 1.274-3.852 1.965-5.774 2.1v21.627c0 .114.04.216.066.323.975 4.07 1.877 8.152 2.713 12.25.63 3.094 1.222 6.193 1.72 9.312.223 1.41.427 2.82.59 4.237.134 1.165.244 2.33.277 3.503.015.517.016 1.03-.02 1.547-.038.506-.116.908-.243 1.397-.354 1.36-.852 2.61-1.625 3.798-.65 1-1.407 1.826-2.383 2.525-.22.158-.45.305-.684.44-.116.067-.233.132-.353.193l-.044.023c-.006.002-.017-.003-.017.01v7.004c0 5.214-.883 10.38-3.346 15.093-.835 1.6-1.812 3.07-2.963 4.46-.552.668-1.135 1.305-1.75 1.914-.306.3-.617.595-.936.88-.006.007-.05.038-.044.052.006.015.012.027.02.042.01.027.024.056.036.084l.075.17.152.352c.925 2.18 1.685 4.546 2.037 6.903.36 2.432.316 5.062-.71 7.396-.61 1.395-1.83 1.972-3.226 2.166-1.814.252-3.865-.142-5.574-.606-5.035-1.37-11.18-4.646-15.208-7.926-13.162 2.803-26.766 2.803-39.928 0-4.028 3.28-10.172 6.556-15.208 7.926-1.71.465-3.76.858-5.574.605-1.395-.195-2.615-.772-3.227-2.167-1.026-2.335-1.07-4.965-.708-7.396.352-2.358 1.112-4.725 2.038-6.905l.15-.353.076-.17.04-.085c.005-.014.01-.028.017-.042.007-.014-.04-.046-.047-.052-.32-.285-.63-.58-.936-.88-.617-.61-1.2-1.246-1.752-1.914-1.15-1.392-2.127-2.862-2.963-4.463-2.462-4.714-3.343-9.875-3.343-15.087v-.237-.473-.945-2.75-1.373-.688-.344-.172-.02-.004c0-.004-.003-.003-.004-.004l-.022-.01c-.014-.01-.03-.017-.044-.024-.12-.062-.236-.126-.352-.192-.235-.138-.462-.284-.683-.442-.975-.7-1.73-1.526-2.38-2.528-.77-1.19-1.268-2.438-1.62-3.8-.128-.488-.205-.888-.24-1.393-.038-.518-.038-1.033-.022-1.55.034-1.173.144-2.337.278-3.502.163-1.417.367-2.827.59-4.236.497-3.116 1.09-6.214 1.72-9.306.836-4.1 1.74-8.182 2.714-12.25.025-.108.065-.21.065-.325v-.07-.288-.573-1.148-2.294-17.254c-1.922-.136-4.237-.827-5.773-2.1-.814-.675-1.425-1.51-1.755-2.527-.338-1.04-.324-2.03-.2-3.086.55-4.652 3.833-7.31 8.116-8.327z"/>
    <path fill="#FAFAFA" stroke="#455A64" d="M1340.792 41.974l19.684 48.494 9.843 24.247 4.92 12.123 1.23 3.03.615 1.517c.102.25.21.488.383.703.182.223.388.393.644.526.564.296 1.004.236 1.59.236h.818c.27 0 .54.006.808-.06 1.12-.274 1.8-1.413 1.507-2.53-7.697-29.43-15.396-58.857-23.094-88.287h67.41c.467 0 .932.012 1.4-.062.486-.076.937-.217 1.383-.43 1.853-.88 2.987-2.777 2.93-4.82-.06-2.052-1.315-3.89-3.232-4.654-1.047-.418-1.724-.36-2.804-.36H777.13c-.468 0-.92.05-1.372.17-.986.26-1.868.814-2.538 1.583-1.31 1.503-1.636 3.626-.854 5.457.804 1.88 2.634 3.116 4.688 3.116h68.016l-23.093 88.288c-.293 1.117.387 2.256 1.507 2.53.27.065.535.06.807.06h.818c.587 0 1.027.06 1.59-.236.258-.134.464-.304.646-.526.174-.215.28-.453.383-.703l.615-1.516 1.23-3.032 4.92-12.123 9.843-24.247 19.685-48.494h476.772z"/>
    <path fill="#FAFAFA" stroke="#62797F" d="M643.435 20.037c.542 0 .873.002 1.4-.16.497-.15.915-.38 1.306-.724.72-.63 1.137-1.53 1.114-2.494-.023-.972-.49-1.855-1.24-2.454-.404-.32-.83-.53-1.326-.66-.533-.138-.864-.117-1.403-.117h-22.967c-.47 0-.938-.03-1.41.05-.495.082-.93.246-1.354.517-.816.523-1.384 1.364-1.51 2.337-.12.945.193 1.87.833 2.568.678.735 1.644 1.134 2.635 1.134h.327c0 1.952.08 3.135-.478 5.06-.24.832-.564 1.616-.978 2.378-.44.813-.85 1.378-1.436 2.09-2.162 2.635-4.323 5.268-6.485 7.9l-3.242 3.952-1.62 1.975c-.537.654-1.08 1.3-1.583 1.98-2.04 2.767-3.462 5.937-4.17 9.298-.355 1.676-.52 3.343-.52 5.054V139.013c0 .803.073 1.588.23 2.376.337 1.7 1.04 3.31 2.057 4.714 2.07 2.857 5.283 4.657 8.802 4.93.716.055 1.753.035 2.47.035h38.354c.934 0 1.482.01 2.412-.125.833-.12 1.633-.322 2.424-.613 1.668-.612 3.18-1.588 4.426-2.855 1.244-1.266 2.19-2.79 2.775-4.466.276-.79.465-1.59.57-2.42.118-.914.1-1.51.1-2.426v-40.91-20.468-10.233-5.117c0-1.957.045-3.124-.224-5.075-.468-3.41-1.663-6.677-3.505-9.585-1.013-1.6-1.885-2.58-3.08-4.036-1.08-1.318-2.16-2.635-3.242-3.952-2.16-2.634-4.323-5.268-6.485-7.902-.253-.31-1.364-1.655-1.603-1.977-.513-.69-.94-1.416-1.295-2.2-.71-1.56-1.075-3.252-1.075-4.966-.002-.57-.002-1.138-.002-1.707zM459.176 53.724h30.087c1.14 0 2.065.925 2.065 2.065v46.722c0 4.563-3.7 8.262-8.262 8.262h-17.694c-4.563 0-8.262-3.698-8.262-8.262V55.79c0-1.142.925-2.066 2.066-2.066z"/>
    <path fill="#FAFAFA" stroke="#455A64" d="M235.615 83.888h-3.184c-.378 0-.754-.018-1.132.016-1.47.127-2.748 1.058-3.32 2.418-.327.776-.31 1.273-.31 2.085v17.32c0 .347.013.688.085 1.03.077.362.2.697.372 1.026.688 1.307 2.04 2.12 3.516 2.12h3.975v18.846c0 .583-.022.938.13 1.517.14.543.37 1.007.717 1.45.66.84 1.625 1.378 2.687 1.497.257.03.514.022.772.022H336.617c.252 0 .504.01.757-.003 2.12-.1 3.79-1.848 3.79-3.972V116.12v-6.215h3.973c1.478 0 2.83-.815 3.517-2.123.173-.328.294-.665.37-1.027.074-.342.087-.682.087-1.03v-2.183-8.63-4.316-2.19c0-.81.016-1.308-.312-2.084-.574-1.36-1.852-2.29-3.324-2.416-.377-.033-.753-.016-1.13-.016h-3.182v-6.214c-.913-12.578-6.818-24.085-16.09-32.49-9.267-8.398-21.285-13.183-33.704-13.843-13.426-.712-26.877 3.418-37.4 11.908-10.53 8.497-17.366 20.8-18.354 34.426v6.214z"/>
  </g>
  <g id="design-asset-lines::minor">
    <path fill="#85CCC6" stroke="#171742" stroke-width="1.75" stroke-linecap="round" stroke-linejoin="round" d="M345.137 109.904h-3.974V83.888h3.974c2.195 0 3.974 1.78 3.974 3.975v18.067c0 2.195-1.778 3.974-3.973 3.974zM231.64 109.904h3.975V83.888h-3.974c-2.194 0-3.973 1.78-3.973 3.975v18.067c0 2.195 1.78 3.974 3.974 3.974z"/>
    <path fill="#85CCC6" stroke="#171742" stroke-width="2" stroke-miterlimit="10" d="M341.163 129.26V116.12 77.674c-.95-13.1-7.312-25.01-17.208-33.474-9.89-8.458-22.625-12.938-35.566-12.938s-25.677 4.48-35.567 12.94c-9.896 8.463-16.257 20.372-17.208 33.472V129.26c0 2.196 1.78 3.976 3.974 3.976h97.6c2.193 0 3.973-1.78 3.973-3.975z"/>
    <path fill="#F66" stroke="#161741" stroke-width="2" stroke-miterlimit="10" d="M238.797 77.674h99.183v38.444h-99.183z"/>
    <path fill="#171742" stroke="#171742" stroke-width="1.75" stroke-linecap="round" stroke-linejoin="round" d="M235.615 77.674v38.445h3.182V77.673z"/>
    <path fill="none" stroke="#62797F" stroke-width="1.75" stroke-linecap="round" stroke-linejoin="round" d="M619.51 20.037h24.253c1.84 0 3.492-1.395 3.492-3.304s-1.653-3.304-3.492-3.304H619.51c-1.84 0-3.49 1.394-3.49 3.303s1.65 3.304 3.49 3.304zM657.193 45.647c1.682 2.078 2.975 4.44 3.817 6.978.425 1.28.728 2.573.916 3.91.216 1.536.216 2.482.216 4.027v76.464c0 .708.007 1.416 0 2.125-.005.572-.058 1.134-.158 1.697-.22 1.237-.633 2.345-1.275 3.426-1.334 2.24-3.472 3.887-5.98 4.603-.578.164-1.16.276-1.758.338-.634.063-1.265.052-1.896.052h-37.662c-.737 0-1.474.01-2.21 0-5.382-.073-9.782-4.31-10.06-9.685-.016-.296-.014-.593-.014-.89v-1.047-2.093-4.187-8.37-16.745V72.91v-8.643-4.322c0-1.426.067-2.567.304-3.977.442-2.655 1.365-5.207 2.72-7.533.74-1.27 1.384-2.13 2.313-3.262.913-1.114 1.828-2.228 2.742-3.34 1.774-2.166 4.252-3.64 7-4.173 2.986-.58 6.056-.584 9.044-.02 1.74.33 2.7.668 4.368 1.24l4.304 1.47 4.304 1.47c.717.244 1.434.496 2.153.734.72.238 1.446.44 2.185.61 2.965.68 6.032.79 9.038.324 2.113-.325 4.242.497 5.587 2.16z"/>
    <path fill="none" stroke="#455A64" stroke-width="1.75" stroke-linecap="round" stroke-linejoin="round" d="M54.723 69.187c3.7-1.383 7.773-1.383 11.473 0M60.46 64.214v3.935M9.06 77.147S2.597 103.77 3.84 109.202c2.878 12.568 17.48 9.984 19.92-1.175M111.86 77.147s6.46 26.623 5.217 32.055c-2.877 12.568-17.48 9.984-19.92-1.175"/>
    <circle fill="#FAFAFA" stroke="#455A64" stroke-width="1.75" stroke-linecap="round" stroke-linejoin="round" cx="23.961" cy="47.746" r="7.754"/>
    <circle fill="#FAFAFA" stroke="#455A64" stroke-width="1.75" stroke-linecap="round" stroke-linejoin="round" cx="96.958" cy="47.746" r="7.754"/>
    <path fill="none" stroke="#455A64" stroke-width="1.75" stroke-linecap="round" stroke-linejoin="round" d="M109.212 31.875c1.718 4 2.648 8.083 2.648 12.04v33.232c0 .002 6.46 26.623 5.217 32.055-.876 3.827-2.84 6.25-5.217 7.453v7.036c0 10.453-3.662 17.55-9.043 22.36 1.673 3.744 3.785 10.12 1.583 15.027-2.49 5.55-16.824-.613-23.977-6.437-13.162 2.803-26.766 2.803-39.928 0-7.152 5.823-21.486 11.985-23.977 6.437-2.203-4.906-.09-11.283 1.583-15.026-5.38-4.81-9.042-11.907-9.042-22.36 0-2.344 0-4.688.002-7.034-2.378-1.203-4.342-3.625-5.22-7.454C2.598 103.77 9.06 77.15 9.06 77.147V48.27v-4.354c0-3.957.93-8.04 2.648-12.04v-.002c6.82-15.88 26.047-30.45 48.753-30.625 22.705.175 41.933 14.745 48.752 30.625z"/>
    <path fill="#FAFAFA" stroke="#455A64" stroke-width="1.75" stroke-linecap="round" stroke-linejoin="round" d="M60.46 53.544c3.066.11 6.1.835 8.748 2.11 1.347.648 1.838 2.32.95 3.522-3.01 4.083-7.9 4.88-9.7 5.038-1.797-.156-6.686-.955-9.698-5.038-.888-1.202-.396-2.874.95-3.522 2.647-1.275 5.683-2 8.75-2.11z"/>
    <path fill="none" stroke="#455A64" stroke-width="1.75" stroke-linecap="round" stroke-linejoin="round" d="M33.893 152.99c17.357 5.004 35.776 5.004 53.133 0M111.476 39.423c3.01.714 7.977 2.872 8.188 9.346.173 5.313-5.61 6.544-7.803 6.7v-8.035-2.008s.01-1.338-.004-2.008c-.027-1.347-.157-2.67-.38-3.997zM9.06 55.47c-2.192-.156-7.977-1.387-7.804-6.7.21-6.475 5.178-8.633 8.188-9.347-.223 1.326-.354 2.65-.38 3.995-.012.67-.004 1.34-.004 2.01v10.041z"/>
    <path fill="#B2806B" stroke="#66493E" stroke-width="1.75" stroke-linecap="round" stroke-linejoin="round" d="M777.052 41.974h650.704c2.848 0 5.107-2.338 5.107-5.163s-2.26-5.163-5.107-5.163H777.052c-2.847 0-5.106 2.338-5.106 5.164 0 2.826 2.26 5.164 5.106 5.164z"/>
    <path fill="#B2806B" stroke="#66493E" stroke-width="1.75" stroke-linecap="round" stroke-linejoin="round" d="M821.975 130.262l23.093-88.288h18.95l-36.366 89.588c-.315.778-1.072 1.29-1.913 1.29h-1.768c-1.353 0-2.34-1.28-1.997-2.59z"/>
    <path fill="none" stroke="#62797F" stroke-width="1.75" stroke-linecap="round" stroke-linejoin="round" d="M488.195 66.13l-3.383-.63c-1.316-.246-2.062-.396-3.403-.48-2.297-.146-4.6.094-6.816.708-1.105.307-2.188.686-3.295.992-1.113.308-2.232.52-3.38.637-2.333.24-4.553.09-6.835-.435-1.294-.298-2.53.685-2.53 2.013v33.191c0 .26-.002.523.013.785.124 2.09 1.194 4 2.912 5.194.82.57 1.754.954 2.737 1.123.478.08.953.098 1.434.098h16.184c1.115 0 1.96.058 3.066-.25.988-.276 1.9-.772 2.67-1.45.79-.693 1.406-1.56 1.804-2.53.19-.464.324-.934.41-1.426.084-.487.1-.973.1-1.464v-7.29-26.76c-.002-.993-.71-1.847-1.69-2.03zM643.435 20.037c0 1.963-.08 3.15.484 5.084.244.837.57 1.625.988 2.39.453.826.854 1.37 1.45 2.096l6.52 7.942 3.26 3.97c.542.663 1.085 1.325 1.63 1.986.537.656 1.082 1.307 1.583 1.995 2.032 2.793 3.438 5.992 4.12 9.378.36 1.776.476 3.277.476 5.084V137.097c0 .596.015 1.92-.013 2.515-.038.82-.157 1.616-.36 2.41-.435 1.71-1.24 3.3-2.358 4.66-2.23 2.717-5.526 4.314-9.04 4.385-.477.01-4.64.003-5.115.003H616.216c-.476 0-4.64.008-5.115-.003-3.514-.07-6.81-1.668-9.04-4.385-1.12-1.36-1.924-2.95-2.358-4.66-.203-.794-.32-1.59-.36-2.41-.027-.596-.012-1.92-.012-2.515V95.972 75.396 65.108v-5.144c0-1.808.115-3.307.474-5.084.683-3.387 2.09-6.586 4.12-9.38.5-.688 1.045-1.338 1.584-1.995l1.63-1.985 3.26-3.97c2.172-2.648 4.346-5.295 6.52-7.943.595-.726.997-1.27 1.45-2.097.418-.765.743-1.552.99-2.388.564-1.934.482-3.122.482-5.085h23.595z"/>
    <path fill="#B2806B" stroke="#66493E" stroke-width="1.75" stroke-linecap="round" stroke-linejoin="round" d="M1382.834 130.262c-7.697-29.43-15.396-58.858-23.094-88.288h-18.948c12.12 29.863 24.243 59.725 36.364 89.588.316.778 1.073 1.29 1.914 1.29h1.766c1.353 0 2.34-1.28 1.998-2.59z"/>
    <path opacity=".2" d="M238.797 77.674h99.183v5.96h-99.183z"/>
    <path fill="#171742" stroke="#171742" stroke-width="1.75" stroke-linecap="round" stroke-linejoin="round" d="M337.98 77.674h3.183v38.444h-3.183z"/>
  </g>
  <g id="design-asset-lines::shadows">
    <path opacity=".3" fill="#748F99" d="M477.282 110.774c2.678 0 5.18-1.29 6.73-3.472.776-1.09 1.275-2.35 1.455-3.676.087-.63.076-1.258.076-1.89v-1.983-15.735V68.28v-7.867-3.934c0-.2.008-.76-.02-.96-.044-.342-.156-.63-.353-.913-.387-.554-1.017-.883-1.692-.883h4.656c.388 0 .774-.006 1.16 0 .406.006.743.108 1.085.328.342.22.612.54.775.914.18.412.172.678.172 1.11V100.325c0 .772.01 1.545-.002 2.317-.05 3.195-1.932 6.066-4.84 7.39-.72.327-1.448.54-2.23.654-.752.11-1.502.086-2.257.086h-4.716z"/>
    <path opacity=".2" d="M341.163 129.26V116.12h-8.41v12.004c0 .408.008.816 0 1.225-.01.4-.074.776-.2 1.156-.515 1.568-1.947 2.655-3.597 2.73h8.17c.294 0 .582-.02.87-.082.617-.127 1.134-.366 1.63-.75.97-.752 1.537-1.91 1.537-3.14z"/>
    <path opacity=".3" fill="#748F99" d="M643.52 151.07c6.312 0 11.546-4.882 11.985-11.177.05-.73.03-1.454.03-2.182v-2.262-4.524-9.05-36.05-18.027-4.502c0-.585.006-3.903-.015-4.488-.104-3.02-.775-5.99-1.98-8.76-.605-1.394-1.326-2.7-2.182-3.954-.42-.615-.867-1.205-1.34-1.78-.476-.58-.952-1.162-1.43-1.743l-5.723-6.972-2.86-3.483-1.43-1.742c-.473-.577-.963-1.14-1.392-1.754-.867-1.243-1.49-2.638-1.84-4.113-.172-.735-.274-1.47-.31-2.225-.016-.372-.01-1.873-.01-2.245h8.379c.012 0 .03-.012.03.01v1.7c0 1.58.313 3.143.917 4.6.305.735.673 1.423 1.115 2.084.437.652.946 1.242 1.442 1.846l5.983 7.29 2.99 3.642c.275.336 2.708 3.295 2.977 3.64 1.944 2.49 3.38 5.34 4.22 8.387.423 1.53.688 3.067.804 4.65.057.78.063 1.556.063 2.335v77.851c0 .75.014 1.5-.065 2.25-.08.763-.23 1.5-.454 2.234-.474 1.558-1.26 3.003-2.31 4.248-2.08 2.466-5.056 3.988-8.273 4.233-.756.057-1.51.034-2.266.034H643.52z"/>
    <path opacity=".3" fill="#748F99" d="M639.423 13.43c1.84 0 3.492 1.394 3.492 3.303s-1.652 3.304-3.492 3.304h3.65c.395 0 .79.02 1.187-.034 1.644-.224 2.995-1.556 2.995-3.27s-1.353-3.047-2.996-3.27c-.397-.054-.792-.034-1.19-.034H639.423z"/>
    <path opacity=".3" d="M1345.727 54.132l-4.935-12.158h18.948l3.18 12.158zM859.082 54.132l4.935-12.158h-18.95l-3.18 12.158zM1418.71 31.647c1.427 0 2.853.48 3.952 1.417 1.1.937 1.792 2.276 1.792 3.747s-.692 2.81-1.793 3.748c-1.097.936-2.523 1.417-3.95 1.417H1425.08c.707 0 1.413.01 2.12 0 1.415-.018 2.82-.507 3.902-1.443 1.085-.94 1.76-2.26 1.76-3.72s-.675-2.78-1.76-3.72c-1.082-.936-2.49-1.425-3.905-1.443-.705-.01-1.41 0-2.117 0h-2.126c-1.415-.003-2.83-.003-4.245-.003z"/>
    <path opacity=".2" d="M109.212 31.875c1.72 4.01 2.648 7.946 2.648 12.337v32.92c0 .01 0 .02.004.03l.076.315c.138.575.273 1.15.408 1.727.52 2.233 1.022 4.472 1.505 6.713.657 3.054 1.28 6.114 1.842 9.188.52 2.852 1.025 5.876 1.328 8.763.09.874.165 1.748.198 2.627.027.676.033 1.348-.035 2.022-.028.273-.073.543-.137.81-.115.485-.25.962-.412 1.433-.292.854-.655 1.658-1.125 2.43-.797 1.313-1.854 2.43-3.193 3.216-.157.092-.457-.012-.457.3v6.233c0 5.272-.596 10.098-2.924 14.974-.82 1.717-1.796 3.296-2.97 4.792-.563.714-1.157 1.394-1.79 2.045-.312.32-.633.633-.96.938l-.248.227-.125.112c-.024.02-.03.015-.016.05l.02.042c.053.118.105.237.157.357.975 2.255 1.776 4.71 2.14 7.155.192 1.307.265 2.592.145 3.912-.06.646-.163 1.28-.325 1.908-.14.544-.4 1.332-.667 1.833-1.683 3.166-7.27 1.73-9.615 1.005.396-.316.712-.718.935-1.213 2.202-4.906.09-11.283-1.583-15.026 5.38-4.81 9.043-11.907 9.043-22.36v-7.035c2.377-1.202 4.34-3.626 5.217-7.453 1.244-5.432-5.217-32.053-5.217-32.055V48.27v-4.354c0-3.957-.93-8.04-2.647-12.04v-.002C94.055 17.03 76.836 3.33 56.068 1.464c2.915-.263 5.208-.282 8.126-.056 2.716.21 5.378.622 8.03 1.234 5.29 1.223 10.385 3.226 15.105 5.902 4.705 2.668 9.075 6.027 12.82 9.94 3.713 3.876 6.93 8.426 9.062 13.39zM341.163 77.674c-1.004-13.844-8.04-26.307-18.835-34.81-10.785-8.493-24.53-12.467-38.144-11.444 12.196.916 23.92 5.814 32.932 14.18 9.018 8.372 14.74 19.712 15.637 32.074h8.41z"/>
  </g>
  <g id="design-asset-lines::reflections">
    <path opacity=".5" fill="#748F99" d="M461.522 88.38c.498 0 .9-.404.9-.9V75.65c0-.498-.402-.9-.9-.9-.497 0-.9.403-.9.9v11.83c0 .496.403.9.9.9z"/>
    <path opacity=".7" fill="#FFF" stroke="#FFF" stroke-linecap="round" stroke-linejoin="round" d="M267.968 41.86c.187.41.01.894-.397 1.087-1.194.568-2.363 1.185-3.503 1.85-2.54 1.48-4.938 3.205-7.146 5.146-2.17 1.91-4.155 4.03-5.908 6.327-.41.537-.806 1.083-1.19 1.64-.256.37-.76.467-1.136.218-.385-.255-.486-.777-.223-1.158.398-.578.81-1.146 1.236-1.703 1.818-2.384 3.878-4.584 6.13-6.565 2.288-2.012 4.773-3.797 7.405-5.333 1.18-.69 2.392-1.33 3.628-1.916.415-.198.914-.016 1.105.405M245.068 109.284c.28 0 .516-.157.67-.373.17-.233.23-.466.23-.75V93.4c0-.284-.06-.516-.23-.75-.154-.217-.39-.374-.67-.374-.278 0-.515.157-.67.373-.168.234-.23.466-.23.75v14.76c0 .284.062.517.23.75.155.216.392.374.67.374z"/>
    <path opacity=".5" fill="#748F99" d="M609.83 49.634c.284-.386.217-.927-.154-1.232-.398-.327-.99-.253-1.296.16-2.368 3.205-3.646 7.084-3.646 11.068v6.826c0 .498.404.9.9.9.5 0 .902-.402.902-.9V59.63c0-3.598 1.154-7.102 3.293-9.996z"/>
  </g>
</svg>
