<svg xmlns="http://www.w3.org/2000/svg" width="1319" height="167" viewBox="0 0 1319 167">
  <g id="default" stroke-width="5" stroke-linecap="round" stroke-linejoin="round">
    <path fill="#82D8C7" stroke="#61D6BF" d="M740.5 83.5c0-10.214-1.927-20.317-5.687-29.815-4.074-10.29-10.21-19.634-18.036-27.46-7.826-7.825-17.17-13.963-27.46-18.037-9.5-3.76-19.602-5.688-29.817-5.688-10.214 0-20.317 1.927-29.815 5.687-10.29 4.074-19.634 10.21-27.46 18.036-7.825 7.826-13.963 17.17-18.037 27.46-3.76 9.498-5.688 19.602-5.688 29.816 0 10.213 1.927 20.316 5.687 29.814 4.074 10.29 10.21 19.634 18.036 27.46 7.826 7.825 17.17 13.963 27.46 18.037 9.498 3.76 19.602 5.69 29.816 5.69 10.213 0 20.316-1.928 29.814-5.688 10.29-4.074 19.634-10.21 27.46-18.036 7.825-7.826 13.963-17.17 18.037-27.46 3.763-9.498 5.69-19.6 5.69-29.816z"/>
    <path fill="#F66" stroke="#FF4040" d="M164.5 83.5c0-10.214-1.927-20.317-5.687-29.815-4.074-10.29-10.21-19.634-18.037-27.46-7.826-7.825-17.17-13.963-27.46-18.037C103.82 4.428 93.716 2.5 83.5 2.5c-10.215 0-20.318 1.927-29.815 5.687-10.29 4.074-19.634 10.21-27.46 18.036C18.4 34.05 12.26 43.393 8.187 53.683 4.427 63.183 2.5 73.285 2.5 83.5c0 10.214 1.927 20.317 5.687 29.815 4.074 10.29 10.21 19.634 18.037 27.46 7.826 7.825 17.17 13.963 27.46 18.037 9.498 3.76 19.6 5.688 29.816 5.688 10.215 0 20.318-1.927 29.815-5.687 10.29-4.074 19.634-10.21 27.46-18.036 7.826-7.826 13.964-17.17 18.038-27.46 3.76-9.5 5.687-19.602 5.687-29.817z"/>
    <path fill="#66ACFF" stroke="#4399FF" d="M452.5 83.5c0-10.214-1.927-20.317-5.687-29.815-4.074-10.29-10.21-19.634-18.036-27.46-7.826-7.825-17.17-13.963-27.46-18.037C391.82 4.428 381.715 2.5 371.5 2.5s-20.318 1.927-29.815 5.687c-10.29 4.074-19.634 10.21-27.46 18.036-7.826 7.826-13.964 17.17-18.038 27.46-3.76 9.498-5.688 19.602-5.688 29.816 0 10.213 1.926 20.316 5.686 29.814 4.073 10.29 10.21 19.634 18.036 27.46 7.826 7.825 17.17 13.963 27.46 18.037 9.498 3.76 19.6 5.69 29.816 5.69 10.215 0 20.318-1.928 29.815-5.688 10.29-4.074 19.634-10.21 27.46-18.036 7.826-7.826 13.964-17.17 18.038-27.46 3.763-9.498 5.69-19.6 5.69-29.816z"/>
    <path fill="#BAD882" stroke="#AC6" d="M1316.5 83.5c0-10.214-1.927-20.317-5.687-29.815-4.074-10.29-10.21-19.634-18.036-27.46-7.826-7.825-17.17-13.963-27.46-18.037-9.498-3.76-19.602-5.688-29.816-5.688-10.213 0-20.316 1.927-29.814 5.687-10.29 4.074-19.634 10.21-27.46 18.036-7.825 7.826-13.963 17.17-18.037 27.46-3.76 9.498-5.69 19.602-5.69 29.816 0 10.213 1.928 20.316 5.688 29.814 4.074 10.29 10.21 19.634 18.036 27.46 7.826 7.825 17.17 13.963 27.46 18.037 9.498 3.76 19.602 5.69 29.816 5.69 10.214 0 20.317-1.928 29.815-5.688 10.29-4.074 19.634-10.21 27.46-18.036 7.825-7.826 13.963-17.17 18.037-27.46 3.76-9.498 5.688-19.6 5.688-29.816z"/>
    <path fill="#FFC85A" stroke="#FFBA40" d="M1028.5 83.5c0-10.214-1.927-20.317-5.687-29.815-4.074-10.29-10.21-19.634-18.036-27.46-7.826-7.825-17.17-13.963-27.46-18.037-9.5-3.76-19.602-5.688-29.817-5.688-10.214 0-20.317 1.927-29.815 5.687-10.29 4.074-19.634 10.21-27.46 18.036-7.825 7.826-13.963 17.17-18.037 27.46-3.76 9.498-5.688 19.602-5.688 29.816 0 10.213 1.927 20.316 5.687 29.814 4.074 10.29 10.21 19.634 18.036 27.46 7.826 7.825 17.17 13.963 27.46 18.037 9.498 3.76 19.602 5.69 29.816 5.69 10.213 0 20.316-1.928 29.814-5.688 10.29-4.074 19.634-10.21 27.46-18.036 7.825-7.826 13.963-17.17 18.037-27.46 3.763-9.498 5.69-19.6 5.69-29.816z"/>
  </g>
  <path fill="none" stroke="#FAFAFA" stroke-width="8" stroke-linecap="round" stroke-linejoin="round" d="M125.812 102.4l-35.184 29.926c-3.602 3.063-9.102 2.088-11.43-2.027l-42.41-74.943c-1.32-2.33-1.3-5.187.05-7.5 1.348-2.314 3.825-3.736 6.503-3.736h82.472" id="icons::final::dev"/>
  <path fill="none" stroke="#FAFAFA" stroke-width="8" stroke-linecap="round" stroke-linejoin="round" d="M1239.532 37.474c11.935 0 23.38 4.74 31.82 13.18s13.18 19.885 13.18 31.82c0 11.935-4.74 23.38-13.18 31.82s-19.885 13.18-31.82 13.18h-34.2c-5.964 0-10.8-4.835-10.8-10.8v-34.2" id="icons::final::design"/>
  <path fill="none" stroke="#FAFAFA" stroke-width="8" stroke-linecap="round" stroke-linejoin="round" d="M946.474 39.655c-18.2 0-34.61 10.964-41.575 27.78-6.966 16.814-3.116 36.17 9.754 49.04 12.87 12.87 32.225 16.72 49.04 9.755 16.816-6.965 27.78-23.374 27.78-41.575v-45" id="icons::final::skills"/>
  <path fill="none" stroke="#FAFAFA" stroke-width="8" stroke-linecap="round" stroke-linejoin="round" d="M621.4 59.555c10.67-16.98 31.29-24.848 50.56-19.295S704.5 63.446 704.5 83.5s-13.27 37.688-32.54 43.24-39.89-2.315-50.56-19.294" id="icons::final::contact"/>
  <path fill="none" stroke="#FAFAFA" stroke-width="8" stroke-linecap="round" stroke-linejoin="round" d="M384.625 68.5h29.302C410.274 58.167 403 49.545 393.43 44.204c-9.572-5.34-20.73-7.004-31.443-4.687-10.712 2.317-20.185 8.442-26.693 17.26-6.51 8.82-9.57 19.677-8.626 30.597.944 10.92 5.822 21.09 13.746 28.662 7.925 7.572 18.308 11.98 29.26 12.427 10.95.445 21.658-3.107 30.17-10.01 8.513-6.903 14.2-16.646 16.028-27.453" id="icons::final::work"/>
</svg>
