<svg xmlns="http://www.w3.org/2000/svg" width="1323.43" height="212.63" viewBox="0 0 1323.427 212.628">
  <g id="ground">
    <path fill="none" stroke="#000" stroke-linecap="round" stroke-linejoin="round" d="M.5 212.13h1322.43"/>
  </g>
  <g id="offset" fill="none" stroke="#000" stroke-linecap="round" stroke-linejoin="round">
    <path d="M757 172.05c-6.75 6.74-6.75 17.67 0 24.4 3.53 3.55 7.07 7.1 10.6 10.62 3.24 3.24 7.63 5.06 12.2 5.06h46.66c9.53 0 17.26-7.73 17.26-17.26V155.2c0-9.54-7.73-17.27-17.26-17.27h-28.2c-4.58 0-8.97 1.82-12.2 5.06-9.7 9.67-19.38 19.36-29.07 29.05zM1153.77 193.64c2.83-.8 5.4-2.3 7.47-4.4l25.22-25.2c.54-.55 1.27-.85 2.03-.85h61.22c9.53 0 17.26-7.74 17.26-17.27v-30.2c0-9.52-7.73-17.25-17.26-17.25h-121.96c-4.58 0-8.97 1.82-12.2 5.06l-29.7 29.67c-.52.55-1.25.85-2 .85h-21.15c-.74 0-1.47-.3-2-.84-12-11.96-23.96-23.94-35.94-35.92-6.74-6.74-17.67-6.74-24.4 0L979 118.63c-6.74 6.74-6.74 17.67 0 24.4l64.04 64.04c3.23 3.24 7.62 5.06 12.2 5.06h75.97c4.6 0 8.98-1.82 12.22-5.06l7.56-7.56c1.58-1.57 2.56-3.64 2.8-5.86zM331.04 146.58c.53.54 1.26.84 2.02.84h50.8c9.55 0 17.28 7.73 17.28 17.26v30.18c0 9.54-7.73 17.27-17.27 17.27h-71.65c-4.58 0-8.97-1.82-12.2-5.06l-92.32-92.32c-6.75-6.74-6.75-17.67 0-24.4 2.57-2.6 5.15-5.16 7.72-7.74 3.24-3.22 7.63-5.04 12.2-5.04h27.24c4.58 0 8.97 1.82 12.2 5.05l63.98 63.98zM643.94 173.52c0 4.58-1.82 8.97-5.06 12.2-7.1 7.12-14.23 14.24-21.34 21.35-6.74 6.74-17.67 6.74-24.4 0l-50.68-50.66c-3.24-3.23-5.06-7.62-5.06-12.2V72.55c0-9.54 7.73-17.27 17.27-17.27h30.18c4.58 0 8.97 1.82 12.2 5.06 13.95 13.94 27.9 27.88 41.83 41.83 3.24 3.23 5.06 7.62 5.06 12.2v59.15z"/>
  </g>
  <g id="main" fill="none" stroke="#000" stroke-linecap="round" stroke-linejoin="round">
    <path d="M599.43 173.52l-30.9-30.9c-1.8-1.8-2.8-4.22-2.8-6.76V89.72c0-.14-.04-.25-.14-.35L551.4 75.2c-.7-.73-1.8-.94-2.73-.55s-1.55 1.3-1.55 2.32v67.23c0 2 .8 3.92 2.2 5.33L600 200.2c2.94 2.95 7.72 2.95 10.67 0L632 178.86c1.43-1.42 2.22-3.34 2.22-5.34v-59.15c0-2-.8-3.92-2.2-5.33L590.18 67.2c-1.43-1.4-3.35-2.2-5.35-2.2h-23.33c-1.02 0-1.93.6-2.32 1.55s-.18 2.03.54 2.74c4.32 4.3 8.64 8.63 12.96 12.95 1.98 1.98 3.1 4.67 3.1 7.47v44.9c0 .66.26 1.3.73 1.77l30 30c.35.34.72.55 1.18.66 2.2.55 3.94 2.24 4.55 4.42.6 2.2 0 4.53-1.6 6.13s-3.96 2.23-6.14 1.62-3.86-2.34-4.4-4.53c-.13-.48-.33-.84-.67-1.18zM821.93 199.9c0 1.4 1.13 2.5 2.52 2.5h2c4.17 0 7.55-3.37 7.55-7.53v-8.2c0-1.4-1.12-2.52-2.5-2.52h-7.05c-1.4 0-2.52 1.13-2.52 2.52v13.23zM831.5 173.1c1.38 0 2.5-1.14 2.5-2.53V155.2c0-4.18-3.37-7.55-7.54-7.55h-28.2c-2 0-3.92.8-5.33 2.2l-29.07 29.07c-2.94 2.95-2.94 7.72 0 10.67l10.62 10.6c1.4 1.42 3.33 2.2 5.33 2.2h22.5c1.4 0 2.53-1.1 2.53-2.5v-21.28c0-3.06 2.47-5.53 5.53-5.53h21.13zM1170.95 135.87h63.68c2.78 0 5.03-2.26 5.03-5.04 0-2.77-2.25-5.03-5.03-5.03h-98.54c-2.67 0-5.23 1.06-7.12 2.95l-31.9 31.9c-.46.46-1.1.73-1.77.73h-44.05c-.66 0-1.3-.27-1.78-.74l-29.8-29.8c-1.9-1.9-4.45-2.95-7.12-2.95h-23c-1 0-1.93-.63-2.32-1.57-.4-.94-.17-2.02.55-2.74 6.48-6.5 12.96-12.97 19.44-19.45 2.94-2.94 7.72-2.94 10.67 0l35.92 35.93c2.36 2.36 5.56 3.7 8.9 3.7h21.13c3.33 0 6.54-1.34 8.9-3.7l29.67-29.67c1.42-1.4 3.34-2.2 5.34-2.2h121.96c4.17 0 7.55 3.37 7.55 7.54v30.2c0 4.15-3.38 7.53-7.55 7.53h-61.23c-3.35 0-6.55 1.33-8.9 3.7l-25.23 25.2c-1.42 1.42-3.33 2.22-5.34 2.22h-83.1c-2.23 0-4.03 1.8-4.03 4.02 0 2.22 1.8 4.02 4.03 4.02h75.75c.9 0 1.35 1.08.7 1.72l-5.83 5.84c-1.42 1.42-3.34 2.2-5.34 2.2h-75.96c-2 0-3.92-.78-5.33-2.2-19.3-19.32-38.63-38.64-57.95-57.96-.72-.72-.94-1.8-.55-2.74.4-.94 1.3-1.55 2.33-1.55h17.78c.68 0 1.32.27 1.8.74l29.8 29.8c1.9 1.88 4.44 2.94 7.1 2.94h98.55c2.77 0 5.03-2.25 5.03-5.03 0-2.77-2.25-5.02-5.03-5.02H1147c-1.34 0-2.02-1.63-1.07-2.58l21.47-21.46c.94-.94 2.22-1.47 3.55-1.47zM254.97 108c-.1-3.1-2.05-5.85-4.93-7s-6.18-.44-8.37 1.76-2.88 5.48-1.75 8.37c1.14 2.88 3.88 4.82 6.98 4.93.64.03 1.24.3 1.7.74l64.7 64.7c1.8 1.8 4.22 2.8 6.75 2.8h43.2c5.28 0 9.56-4.28 9.56-9.56v-15.1c0-1.38 1.13-2.5 2.52-2.5h8.56c4.16 0 7.54 3.37 7.54 7.54v30.18c0 4.17-3.38 7.55-7.54 7.55h-71.66c-2 0-3.92-.78-5.33-2.2-30.8-30.77-61.56-61.54-92.33-92.32-2.95-2.95-2.95-7.72 0-10.67l7.72-7.72c1.4-1.4 3.33-2.2 5.33-2.2h27.24c2 0 3.92.8 5.33 2.2l63.97 63.97c2.36 2.36 5.56 3.68 8.9 3.68h27.16c1.4 0 2.5 1.13 2.5 2.52v12.07c0 1.4-1.1 2.52-2.5 2.52H321.3c-.66 0-1.3-.27-1.77-.74l-63.82-63.82c-.44-.45-.7-1.05-.73-1.7zM81.58 210.87c5.36-7.58 10.72-15.15 16.1-22.72 2.7-3.84 4.16-8.42 4.16-13.12 0-7.24-3.45-14.05-9.3-18.33-5.85-4.27-13.38-5.5-20.28-3.3s-12.34 7.55-14.64 14.42c-2.3 6.86-1.2 14.42 3 20.33l16.1 22.72c1.18 1.68 3.67 1.68 4.86 0z"/>
  </g>
  <g id="minor" fill="none" stroke="#000" stroke-linecap="round" stroke-linejoin="round">
    <path d="M1234.63 130.83h-98.54c-1.34 0-2.62.53-3.56 1.48l-32.63 32.63c-.93.95-2.2 1.48-3.55 1.48"/>
    <path d="M1148.75 166.4h-98.54c-1.32 0-2.6-.52-3.54-1.47l-22.47-22.46-8.1-8.08c-.93-.95-2.2-1.48-3.54-1.48h-59.58M606.2 173.17l-34.1-34.1c-.86-.85-1.34-2-1.34-3.2V89.7c0-1.46-.58-2.87-1.62-3.9l-57.42-57.43c-.85-.86-1.33-2-1.33-3.2V1.75M247.18 108.27l69.67 69.68c.85.84 2 1.32 3.2 1.32h43.2c2.5 0 4.53-2.03 4.53-4.53V93.9"/>
    <circle cx="79.14" cy="175.03" r="7.02"/>
  </g>
  <g id="stations" fill="none" stroke="#000" stroke-linecap="round" stroke-linejoin="round">
    <circle cx="1148.75" cy="166.41" r="1.26"/>
    <circle cx="1134.17" cy="131.22" r="1.26"/>
    <circle cx="1048.29" cy="166.02" r="1.26"/>
    <circle cx="1014.48" cy="133.3" r="1.26"/>
    <circle cx="606.19" cy="173.17" r="1.26"/>
    <circle cx="571.11" cy="137.6" r="1.26"/>
    <circle cx="570.34" cy="87.61" r="1.26"/>
    <circle cx="510.39" cy="1.76" r="1.26"/>
    <circle cx="366.45" cy="177.94" r="1.26"/>
    <circle cx="367.78" cy="93.89" r="1.26"/>
    <circle cx="247.18" cy="108.27" r="1.26"/>
    <circle cx="318.32" cy="178.93" r="1.26"/>
    <circle cx="282.75" cy="143.84" r="1.26"/>
    <circle cx="952.98" cy="132.92" r="1.26"/>
    <circle cx="1234.63" cy="130.83" r="1.26"/>
    <circle cx="1184.32" cy="130.83" r="1.26"/>
    <circle cx="1096.35" cy="166.41" r="1.26"/>
  </g>
</svg>
