<svg xmlns="http://www.w3.org/2000/svg" width="2029.734" height="187.146" viewBox="0 0 2029.734 187.146">
  <g id="design-asset-lines::major" stroke-width="2.5" stroke-linecap="round" stroke-linejoin="round">
    <path fill="#FFBF40" stroke="#FFBF40" d="M1399.177 142.916c6.156 0 11.146-4.99 11.146-11.147V50.917c0-3.655-2.963-6.62-6.618-6.62s-6.618 2.964-6.618 6.62v78.76h-40.237l-69.062-69.06c-2.585-2.585-6.775-2.585-9.36 0-2.584 2.584-2.584 6.774 0 9.36l69.674 69.672c2.09 2.09 4.926 3.266 7.882 3.266h43.193z"/>
    <path fill="#FF5A5A" stroke="#FF5A5A" d="M1886.887 104.513c.217 0 .367-.068.52-.22l.41-.413c.275-.273.55-.548.824-.823l1.648-1.647c1.1-1.098 2.197-2.196 3.295-3.295l6.59-6.59 13.18-13.178 2.956-2.958 1.478-1.48c.38-.38.76-.754 1.185-1.087.545-.43 1.12-.792 1.743-1.1 1.237-.61 2.59-.957 3.97-1.014.414-.018.827-.01 1.24-.01h97.776c.505.01.98.09 1.462.25 2.066.69 3.42 2.662 3.315 4.837-.105 2.188-1.657 4.035-3.796 4.512-.387.085-.772.116-1.167.116H1925.074c-.016.003-.03.007-.044.013-.014.004-.026.012-.038.02l-.017.015c-.14.136-.276.275-.414.413l-1.814 1.816-7.266 7.265-7.265 7.264-3.632 3.633-1.816 1.815c-.152.15-.303.304-.454.455-.153.153-.304.284-.353.52-.093.447.248.865.704.865H1937.48c.416 0 .828.012 1.242.073.58.086 1.127.242 1.666.477 1.133.494 2.105 1.295 2.807 2.312 1.336 1.935 1.543 4.43.55 6.56-1.04 2.224-3.22 3.688-5.67 3.81-.353.017-.704.007-1.055.007h-96.872c-.797 0-1.59.01-2.386-.09-2.438-.306-4.718-1.376-6.51-3.056-.437-.407-.848-.837-1.27-1.258l-1.11-1.112-19.627-19.625-4.906-4.908-2.454-2.453-.613-.614-.307-.307c-.01-.01-.063-.068-.08-.068h-58.479c-.4 0-.798.002-1.196-.045-1.324-.154-2.57-.705-3.575-1.58-2.018-1.755-2.78-4.534-1.94-7.073.91-2.747 3.444-4.54 6.324-4.54H1800.243c.633 0 1.266-.017 1.9.015 2.455.123 4.808 1.02 6.722 2.562.593.478 1.116 1.022 1.652 1.558l1.11 1.112 4.447 4.447 17.79 17.788 4.905 4.906.613.613.307.307c.052.05.103.103.153.153.013.013.022.025.043.025h47z"/>
    <path fill="#EF5350" stroke="#EF5350" d="M26.384 122.59l16.09-22.724c2.715-3.835 4.173-8.418 4.173-13.117 0-7.243-3.456-14.05-9.302-18.325-5.845-4.273-13.377-5.5-20.277-3.306-6.902 2.194-12.34 7.55-14.642 14.418-2.3 6.866-1.188 14.418 2.998 20.328l16.09 22.723c1.188 1.678 3.68 1.678 4.87 0z"/>
    <path fill="#FFBF40" stroke="#FFBF40" d="M283.043 95.687c.537.537 1.265.84 2.023.84h50.814c9.533 0 17.262 7.728 17.262 17.26v30.186c0 9.533-7.73 17.262-17.262 17.262h-71.653c-4.578 0-8.97-1.818-12.206-5.056-30.772-30.774-61.545-61.548-92.318-92.32-6.74-6.74-6.74-17.67 0-24.412l7.725-7.725c3.237-3.237 7.628-5.056 12.206-5.056h27.238c4.58 0 8.97 1.82 12.207 5.056l63.966 63.964z"/>
    <path fill="#66CCB9" stroke="#66CCB9" d="M567.676 133.765c0 4.578-1.82 8.97-5.056 12.206l-21.344 21.346c-6.74 6.74-17.67 6.74-24.412 0l-50.666-50.666c-3.237-3.237-5.056-7.63-5.056-12.207V32.79c0-9.532 7.728-17.26 17.262-17.26h30.185c4.578 0 8.968 1.818 12.205 5.055L562.62 62.41c3.237 3.237 5.056 7.628 5.056 12.206v59.15z"/>
    <path fill="#3B84ED" stroke="#3B84ED" d="M680.73 90.97c-6.74 6.74-6.74 17.67 0 24.412l10.613 10.61c3.237 3.238 7.627 5.058 12.206 5.058h46.645c9.534 0 17.262-7.73 17.262-17.262V74.114c0-9.534-7.728-17.262-17.262-17.262H722c-4.578 0-8.97 1.818-12.206 5.056L680.73 90.97z"/>
    <path fill="#FF5A5A" stroke="#FF5A5A" d="M1055.282 135.414c2.82-.806 5.39-2.317 7.466-4.393l25.223-25.222c.538-.536 1.267-.838 2.025-.838h61.233c9.533 0 17.262-7.73 17.262-17.262V57.512c0-9.533-7.73-17.262-17.262-17.262h-121.962c-4.578 0-8.968 1.82-12.206 5.056l-29.68 29.68c-.536.536-1.263.837-2.022.837h-21.135c-.76 0-1.487-.3-2.023-.838l-35.93-35.93c-6.742-6.742-17.67-6.742-24.413 0l-21.344 21.343c-6.74 6.74-6.74 17.67 0 24.412l64.033 64.032c3.237 3.237 7.627 5.056 12.206 5.056h75.97c4.577 0 8.967-1.818 12.204-5.056l7.563-7.562c1.575-1.576 2.562-3.648 2.792-5.866z"/>
    <path fill="#66CCB9" stroke="#66CCB9" d="M1578.694 96.284v45.69c0 2.958 1.174 5.792 3.264 7.883l34.1 34.1c2.586 2.585 6.776 2.585 9.36 0 2.585-2.585 2.585-6.774 0-9.36l-33.487-33.487V95.836c0-3.223-1.28-6.314-3.56-8.593l-56.81-56.81V7.87c0-3.655-2.964-6.62-6.62-6.62-3.653 0-6.616 2.964-6.616 6.62v23.428c0 2.957 1.174 5.792 3.264 7.882 19.036 19.033 38.07 38.07 57.106 57.104z"/>
  </g>
  <g id="design-asset-lines::mid">
    <path fill="none" stroke="#FAFAFA" stroke-width="1.75" stroke-linecap="round" stroke-linejoin="round" d="M1937.745 111.132h-98.533c-1.335 0-2.614-.53-3.558-1.474-7.49-7.488-14.978-14.977-22.466-22.465l-8.077-8.077c-.942-.943-2.223-1.474-3.557-1.474h-59.578"/>
    <path fill="none" stroke="#FAFAFA" stroke-width="1.75" stroke-linecap="round" stroke-linejoin="round" d="M2023.627 75.56h-98.533c-1.335 0-2.614.53-3.558 1.473l-32.627 32.626c-.944.942-2.224 1.473-3.558 1.473M1620.738 179.277l-34.1-34.1c-.85-.85-1.326-2-1.326-3.202v-46.14c0-1.47-.583-2.876-1.62-3.914-19.143-19.14-38.283-38.28-57.425-57.422-.85-.85-1.326-2-1.326-3.202V7.868M1283.108 65.297l69.674 69.673c.85.85 2 1.326 3.2 1.326h43.194c2.5 0 4.528-2.027 4.528-4.528v-80.85"/>
    <path fill="#FAFAFA" stroke="#FF5A5A" stroke-width="1.75" stroke-linecap="round" stroke-linejoin="round" d="M1070.77 77.637h63.676c2.778 0 5.03-2.252 5.03-5.03s-2.252-5.032-5.03-5.032h-98.533c-2.668 0-5.228 1.06-7.114 2.947-10.632 10.63-21.26 21.26-31.89 31.89-.473.473-1.113.736-1.78.736h-44.057c-.667 0-1.307-.264-1.78-.736L919.49 72.606c-1.887-1.887-4.446-2.947-7.115-2.947h-22.996c-1.018 0-1.935-.614-2.324-1.554s-.174-2.02.545-2.74l19.44-19.44c2.946-2.947 7.724-2.947 10.67 0l35.932 35.93c2.36 2.36 5.558 3.685 8.894 3.685h21.135c3.334 0 6.534-1.324 8.892-3.683l29.68-29.68c1.414-1.415 3.334-2.21 5.336-2.21h121.96c4.17 0 7.547 3.378 7.547 7.546V87.7c0 4.166-3.378 7.545-7.547 7.545h-61.233c-3.335 0-6.534 1.325-8.893 3.685l-25.224 25.223c-1.415 1.415-3.335 2.21-5.336 2.21h-83.11c-2.222 0-4.023 1.802-4.023 4.025 0 2.222 1.8 4.024 4.023 4.024h75.757c.896 0 1.346 1.084.712 1.718-1.95 1.948-3.897 3.896-5.846 5.845-1.415 1.416-3.334 2.21-5.336 2.21h-75.968c-2 0-3.92-.794-5.336-2.21l-57.96-57.96c-.718-.718-.934-1.8-.544-2.74.39-.94 1.306-1.553 2.324-1.553h17.787c.667 0 1.307.265 1.78.737l29.805 29.805c1.887 1.887 4.446 2.947 7.115 2.947h98.533c2.78 0 5.032-2.252 5.032-5.03 0-2.78-2.253-5.032-5.032-5.032h-1.744c-1.345 0-2.02-1.625-1.066-2.576l21.46-21.46c.942-.947 2.22-1.477 3.555-1.477z"/>
    <path fill="#FAFAFA" stroke="#FF5A5A" stroke-width="1.75" stroke-linecap="round" stroke-linejoin="round" d="M1037.392 101.208c2.67 0 5.228-1.06 7.115-2.946l17.118-17.12c.558-.558 1.132-1.097 1.724-1.618.783-.692 1.058-1.797.687-2.776s-1.306-1.626-2.353-1.626h-22.646c-2.668 0-5.227 1.06-7.114 2.947l-21.575 21.574c-.236.235-.474.468-.715.697-.33.313-.108.868.346.868h27.412z"/>
    <path fill="#FAFAFA" stroke="#3B84ED" stroke-width="1.75" stroke-linecap="round" stroke-linejoin="round" d="M755.227 92.007c1.39 0 2.515-1.126 2.515-2.516V74.114c0-4.168-3.378-7.546-7.546-7.546H722c-2 0-3.92.795-5.335 2.21L687.603 97.84c-2.947 2.946-2.947 7.725 0 10.672l10.61 10.61c1.416 1.415 3.335 2.21 5.337 2.21h22.5c1.388 0 2.515-1.125 2.515-2.515V97.54c0-3.056 2.477-5.533 5.534-5.533h21.127zM745.667 118.818c0 1.39 1.126 2.516 2.516 2.516h2.012c4.168 0 7.546-3.38 7.546-7.546v-8.197c0-1.39-1.125-2.515-2.514-2.515h-7.043c-1.39 0-2.516 1.126-2.516 2.516v13.228z"/>
    <path fill="#FAFAFA" stroke="#66CCB9" stroke-width="1.75" stroke-linecap="round" stroke-linejoin="round" d="M523.165 133.76l-30.894-30.894c-1.79-1.793-2.798-4.224-2.798-6.76v-46.14c0-.147-.043-.252-.148-.356l-14.172-14.173c-.72-.72-1.8-.935-2.742-.545-.94.39-1.553 1.307-1.553 2.324v67.226c0 2.002.795 3.92 2.21 5.336l50.666 50.667c2.947 2.946 7.725 2.946 10.672 0L555.75 139.1c1.415-1.415 2.21-3.335 2.21-5.336v-59.15c0-2-.795-3.92-2.21-5.335l-41.825-41.826c-1.416-1.415-3.334-2.21-5.336-2.21h-23.33c-1.017 0-1.935.613-2.324 1.553-.39.94-.174 2.022.545 2.74l12.96 12.96c1.98 1.98 3.093 4.667 3.093 7.47v44.89c0 .668.266 1.308.737 1.78l30.01 30.01c.338.338.703.545 1.17.66 2.198.55 3.932 2.238 4.538 4.422.606 2.183-.01 4.524-1.613 6.127-1.603 1.602-3.943 2.218-6.127 1.612s-3.873-2.34-4.42-4.54c-.117-.465-.324-.83-.663-1.17z"/>
    <path fill="#FAFAFA" stroke="#FFBF40" stroke-width="1.75" stroke-linecap="round" stroke-linejoin="round" d="M206.978 57.1c-.11-3.1-2.05-5.842-4.938-6.98s-6.175-.45-8.37 1.744c-2.194 2.195-2.878 5.482-1.74 8.37s3.877 4.826 6.978 4.936c.636.022 1.24.285 1.69.735 21.566 21.568 43.134 43.136 64.702 64.703 1.792 1.792 4.224 2.8 6.76 2.8h43.193c5.28 0 9.56-4.28 9.56-9.56v-15.092c0-1.39 1.125-2.516 2.514-2.516h8.553c4.167 0 7.546 3.38 7.546 7.547v30.185c0 4.168-3.378 7.546-7.546 7.546h-71.653c-2 0-3.92-.794-5.336-2.21l-92.318-92.32c-2.947-2.946-2.947-7.724 0-10.67l7.725-7.726c1.415-1.415 3.334-2.21 5.336-2.21h27.238c2.002 0 3.922.795 5.337 2.21l63.965 63.965c2.36 2.358 5.558 3.684 8.894 3.684h27.17c1.39 0 2.515 1.127 2.515 2.517v12.073c0 1.39-1.125 2.516-2.515 2.516H273.31c-.667 0-1.307-.265-1.78-.736-21.27-21.273-42.544-42.546-63.818-63.818-.45-.452-.712-1.055-.734-1.69z"/>
    <circle fill="#FAFAFA" cx="23.948" cy="86.75" r="7.017"/>
  </g>
  <g id="design-asset-lines::minor" fill="#FAFAFA" stroke="#FAFAFA" stroke-width="1.75" stroke-linecap="round" stroke-linejoin="round">
    <circle cx="1283.108" cy="65.297" r="1.258"/>
    <circle cx="1354.251" cy="135.952" r="1.258"/>
    <circle cx="1402.379" cy="134.97" r="1.258"/>
    <circle cx="1803.479" cy="78.025" r="1.258"/>
    <circle cx="1973.318" cy="75.559" r="1.258"/>
    <circle cx="1937.745" cy="111.132" r="1.258"/>
    <circle cx="1837.286" cy="110.75" r="1.258"/>
    <circle cx="1885.353" cy="111.132" r="1.258"/>
    <circle cx="1741.976" cy="77.643" r="1.258"/>
    <circle cx="1524.942" cy="7.869" r="1.257"/>
    <circle cx="1584.891" cy="93.717" r="1.257"/>
    <circle cx="1585.657" cy="143.708" r="1.257"/>
    <circle cx="1620.739" cy="179.277" r="1.258"/>
    <circle cx="1923.169" cy="75.942" r="1.258"/>
    <circle cx="2023.627" cy="75.559" r="1.258"/>
    <circle cx="1403.705" cy="50.917" r="1.258"/>
    <circle cx="1318.682" cy="100.87" r="1.258"/>
  </g>
</svg>
