<svg xmlns="http://www.w3.org/2000/svg" width="2029.735" height="187.146" viewBox="0 0 2029.735 187.146">
  <g id="major" fill="#FAFAFA" stroke="#455A64" stroke-width="2.5" stroke-linecap="round" stroke-linejoin="round">
    <path d="M1399.177 142.915c6.156 0 11.146-4.99 11.146-11.146V50.917c0-3.655-2.963-6.62-6.618-6.62s-6.62 2.964-6.62 6.62v78.76h-40.236l-69.063-69.06c-2.584-2.585-6.775-2.585-9.36 0-2.584 2.584-2.584 6.774 0 9.36 23.225 23.224 46.45 46.448 69.673 69.673 2.09 2.09 4.926 3.266 7.882 3.266h43.195zM1886.887 104.514c.217 0 .367-.07.52-.22l.41-.413c.276-.273.55-.548.825-.823l1.647-1.647c1.097-1.1 2.196-2.197 3.294-3.295l6.59-6.59 13.178-13.178 2.957-2.958 1.478-1.48c.38-.38.76-.754 1.185-1.087.545-.43 1.12-.792 1.743-1.1 1.238-.61 2.59-.957 3.97-1.014.414-.018.828-.01 1.24-.01h97.774c.506.01.983.09 1.463.25 2.066.69 3.418 2.662 3.315 4.837-.104 2.188-1.657 4.035-3.795 4.512-.387.085-.772.116-1.167.116h-98.446c-.015.003-.03.007-.043.013-.014.004-.026.012-.038.02l-.018.015c-.14.136-.276.275-.414.413l-1.816 1.816-7.265 7.265-7.265 7.264-3.632 3.633-1.816 1.816-.454.454c-.153.153-.304.285-.353.52-.093.447.248.866.705.866H1937.476c.417 0 .83.01 1.243.072.58.086 1.126.243 1.666.478 1.133.493 2.105 1.294 2.807 2.31 1.335 1.936 1.543 4.43.548 6.56-1.038 2.225-3.217 3.688-5.668 3.81-.352.017-.703.007-1.054.007h-96.871c-.797 0-1.59.01-2.386-.09-2.438-.308-4.718-1.377-6.51-3.057-.436-.407-.847-.837-1.268-1.258l-1.112-1.112-19.626-19.626-4.907-4.907-2.453-2.453-.613-.613-.306-.307c-.01-.01-.063-.067-.08-.067h-58.479c-.4 0-.797.002-1.196-.045-1.325-.154-2.57-.705-3.577-1.58-2.016-1.755-2.778-4.534-1.938-7.073.91-2.747 3.444-4.54 6.324-4.54h58.223c.634 0 1.268-.017 1.9.015 2.457.124 4.81 1.02 6.724 2.563.593.478 1.117 1.022 1.652 1.558l1.112 1.112 4.447 4.447 17.79 17.79 4.905 4.906.613.613.307.307.153.153c.013.013.022.026.043.026h19.244c9.253.002 18.505.002 27.757.002zM26.384 122.59c5.363-7.575 10.726-15.15 16.09-22.723 2.715-3.835 4.173-8.418 4.173-13.117 0-7.242-3.456-14.05-9.302-18.324-5.845-4.273-13.377-5.5-20.277-3.306-6.9 2.195-12.34 7.552-14.642 14.42-2.3 6.865-1.187 14.417 2.998 20.328l16.09 22.722c1.19 1.68 3.68 1.68 4.87 0zM283.043 95.687c.537.537 1.264.838 2.023.838h50.814c9.533 0 17.262 7.73 17.262 17.262v30.185c0 9.533-7.73 17.262-17.262 17.262h-71.653c-4.578 0-8.97-1.82-12.206-5.056l-92.318-92.32c-6.74-6.74-6.74-17.67 0-24.41l7.725-7.726c3.237-3.237 7.628-5.056 12.206-5.056h27.238c4.58 0 8.97 1.82 12.207 5.056l63.966 63.965zM567.676 133.765c0 4.578-1.82 8.97-5.056 12.206l-21.344 21.345c-6.74 6.74-17.67 6.74-24.412 0l-50.666-50.666c-3.237-3.238-5.056-7.63-5.056-12.207V32.79c0-9.533 7.728-17.262 17.262-17.262h30.185c4.577 0 8.968 1.82 12.205 5.056 13.942 13.94 27.883 27.883 41.825 41.825 3.237 3.236 5.056 7.627 5.056 12.205v59.15zM680.732 90.97c-6.74 6.74-6.74 17.67 0 24.412l10.61 10.612c3.238 3.237 7.63 5.056 12.207 5.056h46.645c9.533 0 17.262-7.73 17.262-17.262V74.114c0-9.534-7.728-17.262-17.262-17.262H722c-4.578 0-8.97 1.818-12.206 5.056L680.732 90.97zM1055.282 135.414c2.82-.806 5.39-2.317 7.466-4.393l25.223-25.222c.538-.537 1.266-.838 2.024-.838h61.233c9.533 0 17.262-7.73 17.262-17.262V57.512c0-9.533-7.73-17.262-17.263-17.262h-121.96c-4.58 0-8.97 1.82-12.207 5.056l-29.68 29.68c-.537.536-1.264.837-2.023.837h-21.135c-.76 0-1.487-.3-2.023-.838l-35.932-35.93c-6.74-6.742-17.67-6.742-24.412 0l-21.344 21.343c-6.74 6.74-6.74 17.67 0 24.412l64.033 64.032c3.237 3.237 7.627 5.056 12.206 5.056h75.97c4.578 0 8.968-1.818 12.206-5.056l7.563-7.563c1.576-1.576 2.562-3.648 2.792-5.866zM1578.694 96.284v45.69c0 2.958 1.174 5.793 3.265 7.883l34.1 34.1c2.583 2.584 6.774 2.584 9.36 0 2.583-2.585 2.583-6.775 0-9.36l-33.49-33.488V95.833c0-3.223-1.28-6.314-3.558-8.593l-56.81-56.81V7.868c0-3.655-2.964-6.62-6.62-6.62s-6.618 2.964-6.618 6.62v23.428c0 2.957 1.174 5.792 3.265 7.882l57.104 57.106z"/>
  </g>
  <g id="mid" fill="none" stroke="#455A64" stroke-width="1.75" stroke-linecap="round" stroke-linejoin="round">
    <path d="M1937.745 111.132h-98.533c-1.334 0-2.614-.53-3.557-1.474-7.49-7.488-14.978-14.977-22.466-22.465l-8.078-8.077c-.943-.943-2.223-1.474-3.557-1.474h-59.58"/>
    <path d="M2023.627 75.56h-98.533c-1.334 0-2.614.53-3.558 1.473l-32.626 32.626c-.943.942-2.223 1.473-3.557 1.473M1620.74 179.277l-34.1-34.1c-.85-.85-1.327-2-1.327-3.202v-46.14c0-1.47-.583-2.876-1.62-3.914-19.142-19.14-38.283-38.28-57.424-57.422-.85-.85-1.327-2-1.327-3.202V7.868M1283.11 65.297l69.672 69.673c.85.85 2 1.326 3.202 1.326h43.194c2.5 0 4.528-2.027 4.528-4.528v-80.85M1070.772 77.637h63.675c2.778 0 5.03-2.252 5.03-5.03s-2.25-5.032-5.03-5.032h-98.533c-2.668 0-5.228 1.06-7.115 2.947l-31.89 31.89c-.473.472-1.113.737-1.78.737h-44.057c-.667 0-1.307-.266-1.78-.738L919.49 72.606c-1.887-1.887-4.446-2.947-7.115-2.947h-22.996c-1.018 0-1.935-.614-2.324-1.554s-.174-2.02.545-2.74l19.44-19.44c2.946-2.947 7.724-2.947 10.67 0l35.932 35.93c2.36 2.36 5.558 3.685 8.894 3.685h21.135c3.334 0 6.534-1.324 8.892-3.683l29.68-29.68c1.415-1.415 3.334-2.21 5.336-2.21h121.96c4.17 0 7.547 3.378 7.547 7.546V87.7c0 4.166-3.378 7.545-7.546 7.545h-61.234c-3.335 0-6.535 1.325-8.893 3.684l-25.223 25.222c-1.416 1.415-3.335 2.21-5.336 2.21h-83.11c-2.222 0-4.023 1.802-4.023 4.025s1.803 4.025 4.025 4.025h75.757c.896 0 1.345 1.083.71 1.717l-5.844 5.844c-1.415 1.416-3.334 2.21-5.336 2.21h-75.968c-2 0-3.92-.795-5.336-2.21l-57.96-57.96c-.718-.718-.934-1.8-.544-2.74.39-.94 1.306-1.553 2.324-1.553h17.787c.667 0 1.307.266 1.78.738l29.805 29.806c1.887 1.887 4.446 2.947 7.115 2.947h98.533c2.78 0 5.03-2.25 5.03-5.03 0-2.78-2.25-5.03-5.03-5.03h-1.745c-1.345 0-2.018-1.626-1.067-2.577l21.46-21.462c.942-.943 2.22-1.473 3.556-1.473z"/>
    <path d="M1037.392 101.208c2.668 0 5.228-1.06 7.115-2.947l17.12-17.118c.557-.558 1.13-1.097 1.723-1.618.784-.692 1.06-1.797.69-2.776-.37-.98-1.308-1.626-2.354-1.626h-22.646c-2.668 0-5.228 1.06-7.115 2.947l-21.575 21.574c-.235.235-.473.467-.714.696-.33.312-.108.868.346.868h27.41zM755.227 92.007c1.39 0 2.515-1.126 2.515-2.516V74.114c0-4.168-3.38-7.546-7.546-7.546H722c-2 0-3.92.795-5.335 2.21L687.603 97.84c-2.947 2.947-2.947 7.725 0 10.672l10.61 10.61c1.416 1.416 3.336 2.21 5.337 2.21h22.5c1.388 0 2.514-1.125 2.514-2.515V97.54c0-3.056 2.478-5.534 5.534-5.534h21.13zM745.668 118.818c0 1.39 1.126 2.516 2.516 2.516h2.012c4.168 0 7.546-3.38 7.546-7.546v-8.197c0-1.388-1.126-2.515-2.515-2.515h-7.043c-1.39 0-2.516 1.126-2.516 2.516v13.228zM523.165 133.76l-30.894-30.894c-1.79-1.792-2.8-4.224-2.8-6.76v-46.14c0-.147-.042-.252-.146-.356L475.15 35.437c-.718-.72-1.8-.935-2.74-.545-.94.39-1.553 1.307-1.553 2.324v67.226c0 2 .795 3.92 2.21 5.336l50.666 50.666c2.947 2.947 7.725 2.947 10.672 0L555.75 139.1c1.414-1.416 2.21-3.335 2.21-5.336v-59.15c0-2-.796-3.92-2.21-5.335l-41.826-41.826c-1.415-1.415-3.334-2.21-5.336-2.21h-23.33c-1.016 0-1.934.613-2.323 1.553s-.174 2.022.545 2.74l12.958 12.96c1.98 1.98 3.094 4.667 3.094 7.47v44.89c0 .668.265 1.308.737 1.78l30.008 30.008c.34.34.704.546 1.17.662 2.2.548 3.933 2.237 4.54 4.42.605 2.185-.012 4.526-1.614 6.128s-3.943 2.22-6.127 1.613c-2.184-.605-3.873-2.34-4.42-4.54-.116-.463-.322-.828-.662-1.168zM206.978 57.1c-.11-3.1-2.05-5.842-4.938-6.98-2.888-1.136-6.176-.45-8.37 1.744-2.194 2.195-2.878 5.482-1.74 8.37 1.136 2.888 3.877 4.826 6.978 4.936.636.022 1.24.285 1.69.735l64.702 64.703c1.792 1.792 4.224 2.8 6.76 2.8h43.193c5.28 0 9.56-4.28 9.56-9.56v-15.092c0-1.39 1.125-2.516 2.514-2.516h8.552c4.167 0 7.545 3.378 7.545 7.546v30.185c0 4.17-3.378 7.547-7.546 7.547h-71.654c-2 0-3.92-.795-5.336-2.21l-92.32-92.32c-2.946-2.946-2.946-7.724 0-10.67l7.726-7.726c1.415-1.414 3.334-2.21 5.336-2.21h27.238c2 0 3.92.796 5.336 2.21l63.965 63.966c2.36 2.358 5.56 3.684 8.895 3.684h27.17c1.388 0 2.514 1.126 2.514 2.516v12.074c0 1.39-1.127 2.516-2.516 2.516H273.31c-.668 0-1.308-.265-1.78-.737l-63.82-63.82c-.447-.45-.71-1.053-.732-1.69z"/>
    <circle cx="23.949" cy="86.75" r="7.017"/>
  </g>
  <g id="minor" fill="#455B65" stroke="#455A64" stroke-width="1.75" stroke-linecap="round" stroke-linejoin="round">
    <circle cx="1283.108" cy="65.297" r="1.258"/>
    <circle cx="1354.251" cy="135.952" r="1.258"/>
    <circle cx="1402.379" cy="134.97" r="1.258"/>
    <circle cx="1803.479" cy="78.025" r="1.258"/>
    <circle cx="1973.319" cy="75.559" r="1.258"/>
    <circle cx="1937.745" cy="111.132" r="1.258"/>
    <circle cx="1837.286" cy="110.749" r="1.258"/>
    <circle cx="1885.353" cy="111.132" r="1.258"/>
    <circle cx="1741.976" cy="77.643" r="1.258"/>
    <circle cx="1524.942" cy="7.869" r="1.258"/>
    <circle cx="1584.891" cy="93.717" r="1.257"/>
    <circle cx="1585.657" cy="143.708" r="1.258"/>
    <circle cx="1620.739" cy="179.277" r="1.258"/>
    <circle cx="1923.169" cy="75.942" r="1.258"/>
    <circle cx="2023.627" cy="75.559" r="1.258"/>
    <circle cx="1403.705" cy="50.917" r="1.258"/>
    <circle cx="1318.682" cy="100.87" r="1.258"/>
  </g>
</svg>
