<svg xmlns="http://www.w3.org/2000/svg" width="1490.59" height="389.77" viewBox="0 0 1490.586 389.768">
  <g id="main-lines" fill="none" stroke="#FFF" stroke-width="3" stroke-linecap="round" stroke-linejoin="round">
    <path d="M45.07 26.5L272.5 154.05M687.83 2.76l-118.5 66.47M500.13 108.04l-82.04 46.02M418.1 235.7l127.65 71.62M589.3 331.75L687.83 387M272.5 235.7l-81.75 45.86M100.66 332.1L2.76 387M2.76 2.76l22.7 12.72"/>
  </g>
  <g id="back" fill="none" stroke="#F2F2F2" stroke-width="3">
    <path stroke-miterlimit="10" d="M1.5 5.8c0-2.38 1.92-4.3 4.3-4.3h679c2.36 0 4.3 1.92 4.3 4.3v378.17c0 2.37-1.94 4.3-4.3 4.3H5.8c-2.38 0-4.3-1.93-4.3-4.3V5.8z"/>
    <path stroke-linecap="round" stroke-linejoin="round" d="M801.5 5.8c0-2.38 1.92-4.3 4.3-4.3h679c2.36 0 4.3 1.92 4.3 4.3v378.17c0 2.37-1.94 4.3-4.3 4.3h-679c-2.38 0-4.3-1.93-4.3-4.3V5.8z"/>
  </g>
  <g id="text" fill="none" stroke="#F2F2F2" stroke-linecap="round" stroke-linejoin="round">
    <path d="M1120.64 338.42h43.64M908.17 116.55h32.72M1120.64 343.87h43.64M1120.64 354.78h43.64M1120.64 332.96h43.64M908.17 122h32.72M908.17 127.46h32.72M1120.64 327.5h43.64M908.17 132.9h32.72M908.17 94.74h32.72M908.17 100.2h32.72M908.17 105.64h32.72M908.17 111.1h32.72"/>
    <path stroke-width="2" d="M1345.43 86.8c-2 0-3.63 1.63-3.63 3.64v46.77c0 2.02 1.62 3.65 3.63 3.65h41.38c2.02 0 3.64-1.63 3.64-3.63V90.44c0-2-1.62-3.64-3.63-3.64h-41.37zM945.15 86.8c2 0 3.64 1.63 3.64 3.64v46.77c0 2.02-1.64 3.65-3.65 3.65h-41.37c-2 0-3.64-1.63-3.64-3.63V90.44c0-2 1.63-3.64 3.64-3.64h41.37zM1116.95 319.33c-2 0-3.64 1.63-3.64 3.63v36.36c0 2 1.64 3.64 3.65 3.64h50.9c2 0 3.64-1.63 3.64-3.64-.02-12.12-.02-24.24-.02-36.36 0-2-1.62-3.63-3.63-3.63h-50.9z"/>
    <path d="M1349.82 116.55h32.72M1349.82 122h32.72M1349.82 127.46h32.72M1349.82 132.9h32.72M1349.82 94.74h32.72M1349.82 100.2h32.72M1349.82 105.64h32.72M1349.82 111.1h32.72M1120.64 349.32h43.64M326.03 326.18h38.68M326.03 332.62h38.68M464.18 198.1h38.67M464.18 204.55h38.67M464.18 211h38.67M464.18 217.44h38.67M464.18 172.32h38.67M464.18 178.77h38.67M464.18 185.22h38.67M464.18 191.66h38.67M187.88 198.1h38.68M187.88 204.55h38.68M187.88 211h38.68M187.88 217.44h38.68M187.88 172.32h38.68M187.88 178.77h38.68M187.88 185.22h38.68M187.88 191.66h38.68"/>
    <path stroke-width="2" d="M459 162.94c-2.4 0-4.3 1.93-4.3 4.3v55.3c0 2.36 1.9 4.3 4.3 4.3h48.9c2.36 0 4.3-1.94 4.3-4.3v-55.3c0-2.38-1.94-4.3-4.3-4.3H459zM369.74 303.9c2.38 0 4.3 1.93 4.3 4.3v55.3c0 2.36-1.92 4.3-4.3 4.3h-48.9c-2.37 0-4.3-1.94-4.3-4.3v-55.3c0-2.37 1.93-4.3 4.3-4.3h48.9zM231.6 162.94c2.37 0 4.3 1.93 4.3 4.3v55.3c0 2.36-1.93 4.3-4.3 4.3h-48.9c-2.38 0-4.3-1.94-4.3-4.3v-55.3c0-2.38 1.92-4.3 4.3-4.3h48.9z"/>
    <path d="M326.03 339.07h38.68M326.03 345.5h38.68M326.03 351.96h38.68M326.03 358.4h38.68M326.03 313.28h38.68M326.03 319.73h38.68"/>
  </g>
  <g id="image-box" fill="#F2F2F2" stroke="#F2F2F2" stroke-width="3" stroke-miterlimit="10">
    <path d="M14.8 49.38c0 2.38 1.92 4.3 4.3 4.3h21.67c2.37 0 4.3-1.92 4.3-4.3v-29.6c0-2.37-1.93-4.3-4.3-4.3H19.1c-2.38 0-4.3 1.93-4.3 4.3v29.6zM155.18 69.95c0 2.37 1.92 4.3 4.3 4.3h161.54c2.37 0 4.3-1.93 4.3-4.3V54.1c0-2.36-1.93-4.28-4.3-4.28H159.48c-2.38 0-4.3 1.92-4.3 4.3v15.83zM500.13 111.03c0 2.38 1.93 4.3 4.3 4.3h60.6c2.37 0 4.3-1.92 4.3-4.3v-60.6c0-2.36-1.93-4.3-4.3-4.3h-60.6c-2.37 0-4.3 1.94-4.3 4.3v60.6zM460.9 327.45c0 2.37 1.94 4.3 4.3 4.3h161.56c2.37 0 4.3-1.93 4.3-4.3V311.6c0-2.36-1.93-4.28-4.3-4.28H465.2c-2.36 0-4.3 1.92-4.3 4.3v15.83zM100.66 354.03c0 2.38 1.93 4.3 4.3 4.3h81.5c2.37 0 4.3-1.92 4.3-4.3v-81.5c0-2.37-1.93-4.3-4.3-4.3h-81.5c-2.37 0-4.3 1.93-4.3 4.3v81.5zM13.32 205.5c0 2.4 1.93 4.3 4.3 4.3h52.66c2.38 0 4.3-1.9 4.3-4.3v-21.25c0-2.37-1.92-4.3-4.3-4.3H17.63c-2.37 0-4.3 1.93-4.3 4.3v21.26zM272.5 263.38c0 2.37 1.92 4.3 4.3 4.3h137c2.36 0 4.28-1.93 4.28-4.3v-137c0-2.36-1.92-4.3-4.3-4.3H276.8c-2.38 0-4.3 1.94-4.3 4.3v137zM965.15 299.33c0 2 1.63 3.64 3.64 3.64h353c2 0 3.64-1.63 3.64-3.64V90.43c0-2-1.63-3.63-3.64-3.63h-353c-2.02 0-3.65 1.63-3.65 3.64v208.9z"/>
  </g>
  <g id="image-lines" fill="none" stroke="#FFF" stroke-width="3" stroke-linecap="round" stroke-linejoin="round">
    <path d="M72.85 180.8l-57.8 28.17M273.76 266.42l143.07-143.07M273.76 123.35l143.07 143.07M43.95 16.9L15.9 52.26M15.9 16.9l28.05 35.37M157.74 50.2l165.02 23.68M322.76 50.2L157.74 73.87M501.4 47.4l66.66 66.67M501.4 114.07l66.66-66.67M463.47 307.68l165.02 23.7M463.47 331.38l165.02-23.7M101.92 269.5l87.57 87.57M101.92 357.07l87.57-87.57M15.06 180.8l57.8 28.17M966.22 301.9l358.15-214.04M966.22 87.86l358.15 214.04"/>
  </g>
  <g id="arrow" fill="none" stroke="#FFCA28" stroke-width="5" stroke-linecap="round" stroke-linejoin="round">
    <path d="M770.3 194.88L758.4 204M770.3 194.88l-11.9-9.12M720.3 194.88h50"/>
  </g>
</svg>
