<svg xmlns="http://www.w3.org/2000/svg" width="1490.59" height="389.77" viewBox="0 0 1490.587 389.768">
  <g id="hamburger" fill="none" stroke="#F2F2F2" stroke-width="2" stroke-linecap="round" stroke-linejoin="round">
    <path d="M28.7 35.3h30M28.7 42.5h30M58.7 28.13h-30"/>
  </g>
  <g id="box_1_" fill="none" stroke="#F2F2F2" stroke-width="3" stroke-miterlimit="10">
    <path d="M801.5 5.8c0-2.38 1.92-4.3 4.3-4.3h679c2.36 0 4.3 1.92 4.3 4.3v378.17c0 2.37-1.94 4.3-4.3 4.3h-679c-2.38 0-4.3-1.93-4.3-4.3V5.8zM1.5 5.8c0-2.38 1.92-4.3 4.3-4.3h679c2.36 0 4.3 1.92 4.3 4.3v378.17c0 2.37-1.94 4.3-4.3 4.3H5.8c-2.38 0-4.3-1.93-4.3-4.3V5.8z"/>
  </g>
  <g id="text" fill="none" stroke="#F2F2F2" stroke-width="2" stroke-linecap="round" stroke-linejoin="round">
    <path d="M264.18 145.84H426.4M264.18 170.36H426.4M264.18 194.88H426.4M264.18 219.4H426.4M264.18 243.92H426.4"/>
  </g>
  <g id="land" fill="#F2F2F2">
    <path d="M983.3 86.26c-4.96 4.95-4.96 12.96 0 17.9l13.34 13.36c2.37 2.38 5.6 3.7 8.95 3.7h58.7c6.98 0 12.65-5.66 12.65-12.65V58.64c0-7-5.67-12.66-12.66-12.66h-35.5c-3.35 0-6.57 1.34-8.94 3.7L983.3 86.27zM1210.6 304.26c0 3.36-1.32 6.58-3.7 8.96l-26.85 26.86c-4.95 4.94-12.96 4.94-17.9 0l-63.77-63.76c-2.37-2.37-3.7-5.6-3.7-8.95V177.2c0-7 5.66-12.66 12.66-12.66h37.98c3.36 0 6.58 1.34 8.95 3.7l52.63 52.64c2.38 2.38 3.7 5.6 3.7 8.95v74.43zM991.4 160.83c2.37 2.38 5.6 3.7 8.95 3.7h63.94c6.98 0 12.65 5.68 12.65 12.67v38c0 6.98-5.67 12.65-12.66 12.65h-90.17c-3.36 0-6.58-1.34-8.96-3.7L849 107.96c-4.94-4.94-4.94-12.96 0-17.9l9.72-9.73c2.38-2.37 5.6-3.7 8.96-3.7h34.27c3.36 0 6.58 1.33 8.95 3.7l80.5 80.5zM1305.93 156.3c3.36 0 6.58-1.32 8.96-3.7l31.73-31.74c2.37-2.37 5.6-3.7 8.95-3.7h77.05c7 0 12.66-5.67 12.66-12.66v-38c0-6.98-5.68-12.65-12.67-12.65h-153.47c-3.36 0-6.58 1.33-8.95 3.7l-37.34 37.36c-2.37 2.38-5.6 3.72-8.95 3.72h-26.58c-3.36 0-6.58-1.34-8.96-3.7l-45.2-45.23c-4.96-4.95-12.97-4.95-17.92 0l-26.86 26.85c-4.94 4.95-4.94 12.96 0 17.9l80.58 80.58c2.38 2.38 5.6 3.7 8.95 3.7h95.6c3.37 0 6.6-1.32 8.96-3.7l9.52-9.52c2-1.98.58-5.4-2.24-5.4h-98.39c-1.04 0-1.9-.84-1.9-1.9s.86-1.9 1.9-1.9h104.58z"/>
  </g>
  <g id="lines" fill="none" stroke="#FFF" stroke-width="3" stroke-linecap="round" stroke-linejoin="round">
    <path d="M892.28 106.22l87.67 87.67c1.18 1.17 2.36 1.66 4.03 1.66h54.35c3.15 0 5.7-2.55 5.7-5.7V88.12M1172.17 303.82l-42.9-42.9c-1.2-1.2-1.68-2.37-1.68-4.04v-58.06c0-2.04-.6-3.5-2.05-4.93l-72.25-72.27c-1.18-1.17-1.67-2.36-1.67-4.02V88.14M1305.57 130.27h-124c-1.84 0-3.16-.55-4.47-1.86-9.42-9.4-18.84-18.83-28.27-28.26-3.38-3.4-6.77-6.77-10.16-10.16-1.3-1.3-2.62-1.86-4.48-1.86h-74.98"/>
    <path d="M1413.64 85.5h-124c-1.84 0-3.16.55-4.47 1.86l-41.05 41.05c-1.3 1.32-2.63 1.87-4.48 1.87"/>
  </g>
  <g id="arrow" fill="none" stroke="#FFCA28" stroke-width="5" stroke-linecap="round" stroke-linejoin="round">
    <path d="M720.3 194.88h50M770.3 194.88l-11.9-9.12M770.3 194.88L758.4 204"/>
  </g>
</svg>
