<svg id="Layer_1" xmlns="http://www.w3.org/2000/svg" viewBox="516 542.5 128 128">
  <linearGradient id="SVGID_BOOTSTRAP_1_" gradientUnits="userSpaceOnUse" x1="520.263" y1="652.677" x2="630.768" y2="567.255">
    <stop offset="0" stop-color="#101034"/>
    <stop offset="1" stop-color="#612D50"/>
  </linearGradient>
  <path fill="url(#SVGID_BOOTSTRAP_1_)" d="M644 653.303c0 9.498-7.7 17.197-17.195 17.197h-93.61c-9.496 0-17.195-7.7-17.195-17.197v-93.608c0-9.495 7.7-17.194 17.196-17.194h93.61c9.495 0 17.194 7.7 17.194 17.195v93.608z"/>
  <path fill="#FFF" d="M546.78 566.424h37.377c21.156 0 25.73 15.038 25.73 20.977 0 12.01-6.81 15.08-10.21 16.46 5.164 1.457 13.543 5.863 13.543 21.135 0 4.367-.55 21.58-28.096 21.58H546.78v-80.15zm20.69 31.327h11.377c8.42 0 9.27-5.516 9.27-8.16 0-2.45-1.532-7.815-9.123-7.815H567.47v15.976zm0 34.825h13.044c10.848 0 11.48-7.632 11.48-10.315 0-2.49-.936-10.19-11.53-10.19H567.47v20.505z"/>
</svg>
