<svg xmlns="http://www.w3.org/2000/svg" viewBox="0 0 128 128">
<g id="outline">
	<polygon fill="#00A1A2" points="83.485,0 23.774,0 12.689,23.946 44.196,36.25 14.114,63.998 44.196,91.742 12.689,104.053
		23.774,127.998 83.485,127.998 115.309,63.998 	"/>
</g>
<g id="lines" fill="none" stroke="#F7F5F2" stroke-width="2.5" stroke-linecap="round" stroke-linejoin="round">
		<line x1="57.739" y1="41.532" x2="115.309" y2="63.998"/>
		<line x1="115.309" y1="63.998" x2="57.739" y2="86.467"/>
		<line x1="57.739" y1="104.053" x2="115.309" y2="63.998"/>
		<line x1="57.739" y1="63.998" x2="57.739" y2="104.053"/>
		<line x1="12.689" y1="104.053" x2="57.739" y2="104.053"/>
		<line x1="83.485" y1="127.998" x2="57.525" y2="104.053"/>
		<line x1="83.485" y1="0" x2="57.525" y2="23.946"/>
		<line x1="12.689" y1="23.946" x2="57.739" y2="23.946"/>
		<line x1="57.739" y1="63.998" x2="57.739" y2="23.946"/>
		<line x1="57.739" y1="23.946" x2="115.309" y2="63.998"/>
		<line x1="44.196" y1="36.25" x2="57.739" y2="41.532"/>
		<line x1="44.196" y1="91.742" x2="57.739" y2="86.467"/>
</g>
</svg>
