<svg xmlns="http://www.w3.org/2000/svg" viewBox="0 0 135 135">
<path fill="none" stroke="#4F4F4F" stroke-width="0.3" stroke-linecap="round" stroke-linejoin="round" d="M127.36,64
	c0-34.993-28.366-63.359-63.36-63.359C29.007,0.641,0.641,29.007,0.641,64c0,34.987,28.367,63.36,63.359,63.36
	C98.994,127.359,127.36,98.986,127.36,64z"/>
<path fill="#8FB5E3" d="M127.36,64c0-34.993-28.366-63.359-63.36-63.359C29.007,0.641,0.641,29.007,0.641,64
	c0,34.987,28.367,63.36,63.359,63.36C98.994,127.359,127.36,98.986,127.36,64z"/>
<path fill="#F7F5F2" stroke="#8FB5E3" stroke-width="0.3" stroke-linecap="round" stroke-linejoin="round" d="M89.82,109.787
	c-25.464,13.143-56.74,5.058-72.634-18.777C1.286,67.164,5.849,35.183,27.777,16.736c-8.104,11.585-7.762,24.657-6.451,34.549
	c1.31,9.893,3.582,16.592,6.807,23.172c3.225,6.572,7.392,13.018,10.934,16.977c3.542,3.965,6.452,5.436,9.248,5.334
	c2.796-0.107,5.464-1.787,8.696-6.215c3.232-4.43,7.029-11.586,10.901-20.048c3.871-8.454,7.822-18.205,11.639-24.811
	c3.817-6.613,7.514-10.094,11.305-12.144c3.788-2.056,7.688-2.688,11.088-1.687c3.393,1.001,6.289,3.636,8.582,7.326
	c2.291,3.683,3.984,8.427,5.012,13.797c1.023,5.383,1.393,11.384,0.518,17.378c-0.871,5.99-2.977,11.957-6.189,18.354
	C106.66,95.109,102.367,101.936,89.82,109.787z"/>
<path fill="#F7F5F2" stroke="#8FB5E3" stroke-width="0.3" stroke-linecap="round" stroke-linejoin="round" d="M45.809,6.541
	c20.57-7.022,43.338-1.572,58.5,13.991c-6.814-2.768-12.366-1.612-17.553,0.982c-5.189,2.601-10.014,6.639-14.98,14.328
	s-10.06,19.039-13.649,26.672c-3.588,7.628-5.658,11.546-7.305,14.153c-1.661,2.602-2.89,3.893-4.301,4.026
	c-1.418,0.134-3.004-0.895-5.215-4.441c-2.205-3.542-5.034-9.611-7.192-16.009c-2.156-6.405-3.662-13.131-4.079-19.32
	c-0.417-6.183,0.256-11.814,1.291-16.007c1.035-4.201,2.439-6.962,4.845-10.148C38.584,11.594,41.985,8.013,45.809,6.541z"/>
</svg>
