<svg xmlns="http://www.w3.org/2000/svg" viewBox="0 0 128 128">
<path fill="none" stroke="#633491" stroke-width="9" stroke-linecap="round" stroke-linejoin="round" d="M93.173,20.268
	c0,10.435,0,20.871,0,31.306c0,2.117,1.36,3.994,3.372,4.653c13.593,4.451,22.573,17.392,21.986,31.683
	s-10.596,26.452-24.508,29.775c-13.912,3.323-28.337-3.002-35.318-15.485C51.724,89.716,53.886,74.114,64,64
	s12.276-25.716,5.295-38.199S47.888,6.993,33.976,10.315S10.054,25.8,9.468,40.091c-0.586,14.291,8.394,27.231,21.986,31.683
	c2.012,0.659,3.372,2.536,3.372,4.652c0,10.436,0,20.871,0,31.306"/>
</svg>
