<svg xmlns="http://www.w3.org/2000/svg" viewBox="-1 0 130 130">
<path fill="none" stroke="#00ABB6" stroke-width="10" stroke-linejoin="round" d="M71.942,71.942
	c3.201,3.201,6.402,6.402,9.603,9.603c7.096,7.096,17.769,9.219,27.041,5.379c9.272-3.841,15.317-12.889,15.317-22.924
	c0-10.036-6.045-19.084-15.317-22.924c-9.272-3.841-19.945-1.718-27.041,5.379C75.697,52.303,69.848,58.151,64,64
	c-5.849,5.848-11.697,11.697-17.545,17.545c-7.097,7.096-17.769,9.219-27.041,5.379C10.142,83.083,4.096,74.036,4.096,64
	c0-10.036,6.046-19.084,15.318-22.924c9.272-3.841,19.944-1.718,27.041,5.379c3.201,3.201,6.402,6.402,9.603,9.603"/>
</svg>
