<svg xmlns="http://www.w3.org/2000/svg" viewBox="0 0 128 128">
<path fill="none" stroke="#00ABB6" stroke-width="10" stroke-linejoin="round" d="M68.221,68.221
	c4.149,4.149,8.298,8.298,12.447,12.447c6.742,6.742,16.881,8.758,25.689,5.11c8.809-3.648,14.552-12.244,14.552-21.778
	c0-9.534-5.743-18.13-14.552-21.778c-8.808-3.648-18.947-1.632-25.689,5.11C69.556,58.444,58.444,69.556,47.332,80.668
	c-6.742,6.742-16.881,8.758-25.689,5.11C12.834,82.129,7.091,73.534,7.091,64c0-9.534,5.744-18.13,14.552-21.778
	c8.809-3.648,18.947-1.632,25.689,5.11c4.148,4.148,8.297,8.297,12.447,12.447"/>
</svg>
